<svg width="31" height="12" viewBox="0 0 31 12" fill="none" xmlns="http://www.w3.org/2000/svg">
<path d="M7.67913 10.4661V12H7.52261C7.32435 12 7.08696 11.9843 6.81043 11.953C6.53913 11.9165 6.26783 11.8357 5.99652 11.7104C5.58435 11.5174 5.24 11.1991 4.96348 10.7557C4.63478 10.8078 4.32957 10.847 4.04783 10.873C3.7713 10.8939 3.50522 10.9043 3.24957 10.9043C1.90348 10.9043 0.966957 10.5783 0.44 9.92609C0.293913 9.75391 0.189565 9.56609 0.126957 9.36261C0.0695652 9.15913 0.0382609 8.96087 0.0330435 8.76783V8.62696C0.0330435 8.48609 0.046087 8.34261 0.072174 8.19652C0.0982609 8.05043 0.134783 7.92261 0.181739 7.81304C0.322609 7.52087 0.489565 7.25217 0.682609 7.00696C0.88087 6.76174 1.08957 6.54261 1.3087 6.34957C1.53304 6.1513 1.76261 5.97652 1.99739 5.82522C2.23739 5.6687 2.46696 5.53304 2.68609 5.41826C2.91043 5.29826 3.12174 5.19913 3.32 5.12087C3.51826 5.03739 3.69043 4.96957 3.83652 4.91739C3.79478 4.52087 3.76348 4.2313 3.74261 4.0487C3.72696 3.86087 3.71913 3.76435 3.71913 3.75913L5.25304 3.43826V3.43043C5.25826 3.47217 5.2687 3.5687 5.28435 3.72C5.3 3.86609 5.31826 4.04087 5.33913 4.24435C5.36 4.44261 5.38087 4.65652 5.40174 4.88609C5.42783 5.11043 5.4513 5.32174 5.47217 5.52C5.49304 5.71826 5.5113 5.89043 5.52696 6.03652C5.54261 6.18261 5.55304 6.27391 5.55826 6.31043C5.64174 6.98348 5.71739 7.53391 5.78522 7.96174C5.85304 8.38957 5.91304 8.7313 5.96522 8.98696C6.01739 9.24261 6.05913 9.42522 6.09044 9.53478C6.12174 9.63913 6.14522 9.70696 6.16087 9.73826C6.28609 10.02 6.45304 10.213 6.66174 10.3174C6.87044 10.4165 7.15739 10.4661 7.52261 10.4661H7.67913ZM4.01652 6.50609C3.8913 6.55826 3.74261 6.62348 3.57043 6.70174C3.39826 6.77478 3.21826 6.86087 3.03043 6.96C2.84783 7.05391 2.66522 7.15826 2.48261 7.27304C2.30522 7.38783 2.14348 7.51304 1.99739 7.6487C1.85652 7.78435 1.74174 7.93043 1.65304 8.08696C1.56435 8.23826 1.52 8.39739 1.52 8.56435C1.52 8.7313 1.57217 8.86957 1.67652 8.97913C1.78609 9.0887 1.92435 9.17478 2.0913 9.23739C2.26348 9.29478 2.45652 9.33391 2.67043 9.35478C2.84783 9.37565 3.02783 9.38609 3.21043 9.38609C3.24696 9.38609 3.32783 9.38609 3.45304 9.38609C3.57826 9.38087 3.73739 9.36783 3.93044 9.34696C4.1287 9.32609 4.29565 9.30261 4.4313 9.27652C4.3687 8.97391 4.30348 8.60348 4.23565 8.16522C4.17304 7.72696 4.1 7.17391 4.01652 6.50609ZM7.36887 10.4661H8.2767C8.5793 10.4661 8.85843 10.4609 9.11409 10.4504C9.36974 10.4348 9.60191 10.3957 9.81061 10.333C10.0193 10.2704 10.2019 10.1791 10.3584 10.0591C10.515 9.93391 10.6454 9.76174 10.7497 9.54261C10.8019 9.43304 10.841 9.29478 10.8671 9.12783C10.8828 9.01826 10.8906 8.90087 10.8906 8.77565C10.8906 8.70783 10.8854 8.60609 10.875 8.47043C10.8645 8.32957 10.8306 8.13913 10.7732 7.89913C10.7158 7.65391 10.6323 7.39826 10.5228 7.13217L9.84191 5.45739L11.235 4.7687C11.235 4.77391 11.2584 4.8287 11.3054 4.93304C11.3523 5.03217 11.4123 5.16783 11.4854 5.34C11.5637 5.51217 11.6471 5.71304 11.7358 5.94261C11.8245 6.16696 11.908 6.40696 11.9863 6.66261C12.221 7.41913 12.3567 8.08696 12.3932 8.66609C12.3984 8.74957 12.401 8.83304 12.401 8.91652C12.401 9.3913 12.3228 9.8087 12.1663 10.1687C12.0097 10.5235 11.8167 10.8183 11.5871 11.053C11.3628 11.2878 11.1019 11.4757 10.8045 11.6165C10.5071 11.7574 10.1732 11.8565 9.80278 11.9139C9.43756 11.9713 9.04104 12 8.61322 12H7.36887V10.4661ZM11.141 2.18609L9.86539 3.46174L8.58191 2.17826L9.85756 0.902608L11.141 2.18609ZM17.9987 12C17.4248 12 16.9344 11.9322 16.5274 11.7965C16.1257 11.6609 15.7839 11.4522 15.5022 11.1704C15.33 10.9983 15.197 10.813 15.1031 10.6148C15.0144 10.4165 14.9465 10.2209 14.8996 10.0278C14.8578 9.83478 14.8344 9.65217 14.8291 9.48C14.8239 9.30261 14.8213 9.1513 14.8213 9.02609C14.8213 8.98435 14.8213 8.86174 14.8213 8.65826C14.8265 8.44957 14.8318 8.18348 14.837 7.86C14.8422 7.53652 14.8448 7.16609 14.8448 6.7487C14.8448 6.33652 14.8422 5.90087 14.837 5.44174C14.837 4.99304 14.8318 4.52609 14.8213 4.04087C14.8109 3.55565 14.7926 3.08609 14.7665 2.63217C14.7457 2.17826 14.717 1.76087 14.6805 1.38C14.6491 0.993913 14.61 0.678261 14.5631 0.433043L16.097 0.151304C16.1439 0.417391 16.1831 0.743478 16.2144 1.12956C16.2509 1.51565 16.2796 1.93565 16.3005 2.38956C16.3265 2.84348 16.3448 3.31826 16.3552 3.81391C16.3709 4.30435 16.3787 4.78435 16.3787 5.25391V9.18261C16.3787 9.36 16.3865 9.52696 16.4022 9.68348C16.4231 9.83478 16.4935 9.96783 16.6135 10.0826C16.7335 10.2026 16.9109 10.2965 17.1457 10.3643C17.3857 10.4322 17.67 10.4661 17.9987 10.4661H18.1552V12H17.9987ZM17.8454 10.4661H19.5437C20.2376 10.4661 20.9315 10.4009 21.6254 10.2704C22.3193 10.1348 23.0028 9.95739 23.6759 9.73826C24.3489 9.51913 25.0063 9.2687 25.648 8.98696C26.2898 8.70522 26.908 8.41565 27.5028 8.11826C27.1428 7.99304 26.7985 7.85739 26.4698 7.7113C26.1411 7.56522 25.8176 7.41652 25.4993 7.26522C25.2541 7.15043 25.0141 7.04087 24.7793 6.93652C24.5498 6.82696 24.3254 6.73043 24.1063 6.64696C23.8924 6.56348 23.6889 6.49826 23.4959 6.4513C23.3028 6.39913 23.1254 6.37304 22.9637 6.37304C22.7498 6.37304 22.5463 6.42 22.3533 6.51391C22.1602 6.60783 21.9802 6.72783 21.8133 6.87391C21.6515 7.01478 21.5054 7.1687 21.375 7.33565C21.2446 7.49739 21.1324 7.6513 21.0385 7.79739C20.9446 7.93826 20.8715 8.05826 20.8193 8.15739C20.7724 8.2513 20.7489 8.30087 20.7489 8.30609L19.3402 7.67217C19.3454 7.66174 19.3663 7.61739 19.4028 7.53913C19.4446 7.45565 19.502 7.3513 19.575 7.22609C19.6533 7.10087 19.7446 6.95739 19.8489 6.79565C19.9585 6.63391 20.0837 6.46957 20.2246 6.30261C20.6315 5.81217 21.062 5.44435 21.5159 5.19913C21.975 4.95391 22.4576 4.8313 22.9637 4.8313C23.2141 4.8313 23.4672 4.86 23.7228 4.91739C23.9837 4.97478 24.2472 5.05304 24.5133 5.15217C24.7793 5.24609 25.0506 5.35565 25.3272 5.48087C25.6037 5.60609 25.8828 5.73391 26.1646 5.86435C26.4724 6.01043 26.7828 6.15391 27.0959 6.29478C27.4141 6.43565 27.7324 6.56348 28.0506 6.67826C28.3689 6.78783 28.6872 6.87652 29.0054 6.94435C29.3237 7.01217 29.6446 7.04609 29.968 7.04609L30.2654 8.53304C29.9002 8.68435 29.5376 8.8487 29.1776 9.02609C28.8176 9.19826 28.442 9.38087 28.0506 9.57391C27.4767 9.86087 26.8585 10.1478 26.1959 10.4348C25.5385 10.7217 24.8472 10.9826 24.122 11.2174C23.402 11.447 22.6559 11.6348 21.8837 11.7809C21.1115 11.927 20.3315 12 19.5437 12H17.8454V10.4661ZM24.1846 2.10783L22.9089 3.38348L21.6254 2.1L22.9011 0.824348L24.1846 2.10783Z" fill="white"/>
</svg>
