<svg width="72" height="19" viewBox="0 0 72 19" fill="none" xmlns="http://www.w3.org/2000/svg">
<path d="M7.67913 10.4661V12H7.52261C7.32435 12 7.08696 11.9843 6.81043 11.953C6.53913 11.9165 6.26783 11.8357 5.99652 11.7104C5.58435 11.5174 5.24 11.1991 4.96348 10.7557C4.63478 10.8078 4.32957 10.847 4.04783 10.873C3.7713 10.8939 3.50522 10.9043 3.24957 10.9043C1.90348 10.9043 0.966957 10.5783 0.44 9.92609C0.293913 9.75391 0.189565 9.56609 0.126957 9.36261C0.0695652 9.15913 0.0382609 8.96087 0.0330435 8.76783V8.62696C0.0330435 8.48609 0.046087 8.34261 0.072174 8.19652C0.0982609 8.05043 0.134783 7.92261 0.181739 7.81304C0.322609 7.52087 0.489565 7.25217 0.682609 7.00696C0.88087 6.76174 1.08957 6.54261 1.3087 6.34957C1.53304 6.1513 1.76261 5.97652 1.99739 5.82522C2.23739 5.6687 2.46696 5.53304 2.68609 5.41826C2.91043 5.29826 3.12174 5.19913 3.32 5.12087C3.51826 5.03739 3.69043 4.96957 3.83652 4.91739C3.79478 4.52087 3.76348 4.2313 3.74261 4.0487C3.72696 3.86087 3.71913 3.76435 3.71913 3.75913L5.25304 3.43826V3.43043C5.25826 3.47217 5.2687 3.5687 5.28435 3.72C5.3 3.86609 5.31826 4.04087 5.33913 4.24435C5.36 4.44261 5.38087 4.65652 5.40174 4.88609C5.42783 5.11043 5.4513 5.32174 5.47217 5.52C5.49304 5.71826 5.5113 5.89043 5.52696 6.03652C5.54261 6.18261 5.55304 6.27391 5.55826 6.31043C5.64174 6.98348 5.71739 7.53391 5.78522 7.96174C5.85304 8.38957 5.91304 8.7313 5.96522 8.98696C6.01739 9.24261 6.05913 9.42522 6.09044 9.53478C6.12174 9.63913 6.14522 9.70696 6.16087 9.73826C6.28609 10.02 6.45304 10.213 6.66174 10.3174C6.87044 10.4165 7.15739 10.4661 7.52261 10.4661H7.67913ZM4.01652 6.50609C3.8913 6.55826 3.74261 6.62348 3.57043 6.70174C3.39826 6.77478 3.21826 6.86087 3.03043 6.96C2.84783 7.05391 2.66522 7.15826 2.48261 7.27304C2.30522 7.38783 2.14348 7.51304 1.99739 7.6487C1.85652 7.78435 1.74174 7.93043 1.65304 8.08696C1.56435 8.23826 1.52 8.39739 1.52 8.56435C1.52 8.7313 1.57217 8.86957 1.67652 8.97913C1.78609 9.0887 1.92435 9.17478 2.0913 9.23739C2.26348 9.29478 2.45652 9.33391 2.67043 9.35478C2.84783 9.37565 3.02783 9.38609 3.21043 9.38609C3.24696 9.38609 3.32783 9.38609 3.45304 9.38609C3.57826 9.38087 3.73739 9.36783 3.93044 9.34696C4.1287 9.32609 4.29565 9.30261 4.4313 9.27652C4.3687 8.97391 4.30348 8.60348 4.23565 8.16522C4.17304 7.72696 4.1 7.17391 4.01652 6.50609ZM13.1993 10.4661V12H13.0428C12.5158 12 12.0776 11.9113 11.728 11.7339C11.3784 11.5513 11.0915 11.3165 10.8671 11.0296C10.5384 11.3583 10.1132 11.6035 9.59148 11.7652C9.06974 11.9217 8.42539 12 7.65843 12H7.36887V10.4661H7.65843C8.53496 10.4661 9.17148 10.3096 9.568 9.99652C9.96452 9.67826 10.1628 9.2087 10.1628 8.58783C10.1628 8.29043 10.1393 7.98783 10.0923 7.68C10.0506 7.37217 9.97235 7.02 9.85756 6.62348L11.3289 6.2087C11.381 6.3913 11.4254 6.5687 11.4619 6.74087C11.4984 6.90783 11.5297 7.08522 11.5558 7.27304C11.5819 7.46087 11.6054 7.66435 11.6263 7.88348C11.6523 8.10261 11.6758 8.35043 11.6967 8.62696C11.7123 8.82 11.741 9.02348 11.7828 9.23739C11.8245 9.4513 11.8923 9.64957 11.9863 9.83217C12.0854 10.0148 12.2184 10.1661 12.3854 10.2861C12.5576 10.4061 12.7767 10.4661 13.0428 10.4661H13.1993ZM11.1332 3.5087L9.85756 4.78435L8.57409 3.50087L9.84974 2.22522L11.1332 3.5087ZM19.8693 10.4661V12H19.7127C19.1858 12 18.7475 11.9113 18.398 11.7339C18.0484 11.5513 17.7614 11.3165 17.5371 11.0296C17.3701 11.1913 17.1875 11.3348 16.9893 11.46C16.791 11.58 16.5562 11.6817 16.2849 11.7652C16.0136 11.8435 15.6954 11.9035 15.3301 11.9452C14.9701 11.9817 14.5449 12 14.0545 12H12.8884V10.4661H14.0545C14.5501 10.4661 14.9727 10.427 15.3223 10.3487C15.6771 10.2704 15.9641 10.153 16.1832 9.99652C16.4075 9.84 16.5719 9.64435 16.6762 9.40957C16.7806 9.17478 16.8327 8.90087 16.8327 8.58783C16.8327 8.29043 16.8093 7.98783 16.7623 7.68C16.7206 7.37217 16.6423 7.02 16.5275 6.62348L17.9988 6.2087C18.051 6.3913 18.0954 6.5687 18.1319 6.74087C18.1684 6.90783 18.1997 7.08522 18.2258 7.27304C18.2519 7.46087 18.2754 7.66435 18.2962 7.88348C18.3223 8.10261 18.3458 8.35043 18.3667 8.62696C18.3823 8.82 18.411 9.02348 18.4527 9.23739C18.4945 9.4513 18.5623 9.64957 18.6562 9.83217C18.7554 10.0148 18.8884 10.1661 19.0554 10.2861C19.2275 10.4061 19.4467 10.4661 19.7127 10.4661H19.8693ZM15.6119 14.5591L14.3441 15.827L13.0606 14.5513L14.3284 13.2757L15.6119 14.5591ZM18.8206 14.567L17.5527 15.8426L16.2693 14.5591L17.5371 13.2913L18.8206 14.567ZM19.5505 10.4661H19.7227C20.0305 10.4661 20.307 10.4061 20.5522 10.2861C20.7975 10.1609 21.014 9.99913 21.2018 9.80087C21.3949 9.59739 21.5618 9.36522 21.7027 9.10435C21.8436 8.84348 21.9662 8.57217 22.0705 8.29043C22.1749 8.00348 22.2636 7.71652 22.3366 7.42957C22.4096 7.14261 22.4722 6.8713 22.5244 6.61565L24.074 6.94435C24.0322 7.06956 23.9801 7.2313 23.9175 7.42957C23.8601 7.62783 23.8027 7.84174 23.7453 8.0713C23.6879 8.29565 23.6383 8.52783 23.5966 8.76783C23.5549 9.00261 23.534 9.22174 23.534 9.42522C23.534 9.56609 23.547 9.70435 23.5731 9.84C23.5992 9.97043 23.6436 10.0878 23.7062 10.1922C23.7688 10.2965 23.8549 10.38 23.9644 10.4426C24.074 10.5052 24.2122 10.5365 24.3792 10.5365C24.6453 10.5365 24.8827 10.4635 25.0914 10.3174C25.3053 10.1713 25.4931 9.98087 25.6549 9.74609C25.8218 9.5113 25.9653 9.24522 26.0853 8.94783C26.2105 8.65043 26.3149 8.34783 26.3983 8.04C26.487 7.73217 26.5575 7.43478 26.6096 7.14783C26.667 6.85565 26.7114 6.60261 26.7427 6.3887L28.2453 6.66261L28.2062 6.91304C28.1749 7.08522 28.1383 7.29391 28.0966 7.53913C28.0601 7.77913 28.0262 8.03739 27.9949 8.31391C27.9636 8.58522 27.9479 8.82783 27.9479 9.04174C27.9479 9.23478 27.9609 9.42 27.987 9.59739C28.0183 9.76957 28.0653 9.92348 28.1279 10.0591C28.1957 10.1896 28.2818 10.2991 28.3862 10.3878C28.4957 10.4713 28.6288 10.5209 28.7853 10.5365C28.8844 10.547 28.9783 10.5522 29.067 10.5522C29.2183 10.5522 29.367 10.5339 29.5131 10.4974C29.6644 10.4557 29.7975 10.3748 29.9122 10.2548C30.0322 10.1348 30.1183 9.98348 30.1705 9.80087C30.2227 9.61826 30.2488 9.41217 30.2488 9.18261C30.2488 8.88522 30.207 8.56435 30.1236 8.22C30.0453 7.87565 29.9488 7.53913 29.834 7.21043C29.7244 6.87652 29.607 6.5687 29.4818 6.28696C29.3618 6 29.2601 5.77304 29.1766 5.60609L30.5462 4.88609C30.5722 4.93826 30.6218 5.04 30.6949 5.1913C30.7679 5.33739 30.8514 5.52 30.9453 5.73913C31.0392 5.95304 31.1357 6.19826 31.2349 6.47478C31.334 6.74609 31.4253 7.03043 31.5088 7.32783C31.5975 7.62522 31.6679 7.93043 31.7201 8.24348C31.7775 8.55652 31.8062 8.86174 31.8062 9.15913C31.8062 9.60783 31.7436 10.0148 31.6183 10.38C31.4931 10.74 31.3053 11.0478 31.0549 11.3035C30.8044 11.5591 30.4914 11.7548 30.1157 11.8904C29.7505 12.0261 29.3253 12.0939 28.8401 12.0939H28.7853C28.587 12.0939 28.3862 12.0626 28.1827 12C27.9844 11.9374 27.794 11.8539 27.6114 11.7496C27.4288 11.64 27.2592 11.5148 27.1027 11.3739C26.9462 11.2278 26.8131 11.0713 26.7036 10.9043C26.3905 11.2696 26.0357 11.5591 25.6392 11.773C25.2427 11.987 24.8227 12.0939 24.3792 12.0939C24.1862 12.0939 23.9853 12.0678 23.7766 12.0157C23.5731 11.9687 23.3775 11.8957 23.1896 11.7965C23.0018 11.6974 22.8296 11.5748 22.6731 11.4287C22.5218 11.2826 22.4044 11.113 22.3209 10.92C22.1644 11.087 21.9975 11.2383 21.8201 11.3739C21.6427 11.5043 21.4496 11.6165 21.2409 11.7104C21.0322 11.8043 20.8001 11.8774 20.5444 11.9296C20.294 11.9765 20.0175 12 19.7149 12H19.5505V10.4661ZM43.0202 11.46C43.0202 12.1435 42.8741 12.7957 42.5819 13.4165C42.2898 14.0374 41.9011 14.6139 41.4159 15.1461C40.9359 15.6835 40.3854 16.1739 39.7646 16.6174C39.1437 17.0609 38.5046 17.447 37.8472 17.7757L37.1741 16.3904C37.5498 16.1974 37.9228 15.9835 38.2933 15.7487C38.6637 15.5191 39.0133 15.2713 39.3419 15.0052C39.6706 14.7391 39.9733 14.4574 40.2498 14.16C40.5263 13.8678 40.7585 13.56 40.9463 13.2365C41.1393 12.913 41.2828 12.5765 41.3767 12.227C41.4446 11.9765 41.4785 11.7209 41.4785 11.46C41.4785 11.3557 41.4733 11.2591 41.4628 11.1704C41.4263 10.873 41.3689 10.5548 41.2906 10.2157C41.2176 9.8713 41.1367 9.53478 41.048 9.20609C40.9593 8.87739 40.8706 8.56957 40.7819 8.28261C40.6933 7.99043 40.6176 7.74783 40.555 7.55478L42.0263 7.10087C42.2246 7.70609 42.4176 8.22261 42.6054 8.65043C42.7933 9.07304 42.9863 9.42 43.1846 9.6913C43.3828 9.95739 43.5889 10.153 43.8028 10.2783C44.0219 10.4035 44.2619 10.4661 44.5228 10.4661H44.648V12H44.515C44.4419 12 44.348 11.9974 44.2333 11.9922C44.1185 11.987 43.9906 11.9661 43.8498 11.9296C43.7141 11.893 43.5733 11.8357 43.4272 11.7574C43.2863 11.6791 43.1506 11.5696 43.0202 11.4287V11.46ZM42.4959 3.70435L41.2202 4.98L39.9367 3.69652L41.2124 2.42087L42.4959 3.70435ZM44.3532 10.4661H45.8637C46.1663 10.4661 46.4611 10.4609 46.748 10.4504C47.035 10.4348 47.3011 10.3957 47.5463 10.333C47.7915 10.2704 48.008 10.1791 48.1959 10.0591C48.3837 9.93391 48.5298 9.76174 48.6341 9.54261C48.6863 9.43304 48.7254 9.29478 48.7515 9.12783C48.7672 9.01826 48.775 8.90087 48.775 8.77565C48.775 8.70783 48.7698 8.60609 48.7593 8.47043C48.7489 8.32957 48.715 8.13913 48.6576 7.89913C48.6002 7.65391 48.5167 7.39826 48.4072 7.13217L47.7263 5.45739L49.1193 4.7687C49.1193 4.77391 49.1428 4.8287 49.1898 4.93304C49.2367 5.03217 49.2967 5.16783 49.3698 5.34C49.448 5.51217 49.5315 5.71304 49.6202 5.94261C49.7089 6.16696 49.7924 6.40696 49.8706 6.66261C50.1054 7.41913 50.2411 8.08696 50.2776 8.66609C50.2828 8.74957 50.2854 8.83304 50.2854 8.91652C50.2854 9.3913 50.2072 9.8087 50.0506 10.1687C49.8941 10.5235 49.6854 10.8183 49.4245 11.053C49.1689 11.2878 48.8741 11.4757 48.5402 11.6165C48.2063 11.7574 47.8385 11.8565 47.4367 11.9139C47.0402 11.9713 46.628 12 46.2002 12H44.3532V10.4661ZM47.6715 2.1L46.4037 3.36783L45.1202 2.09217L46.388 0.816522L47.6715 2.1ZM50.8802 2.10783L49.6124 3.38348L48.3289 2.1L49.5967 0.832173L50.8802 2.10783ZM55.1555 6.91304C55.0042 6.91304 54.8607 6.97304 54.725 7.09304C54.5894 7.20783 54.4668 7.35652 54.3572 7.53913C54.2529 7.72174 54.1642 7.92783 54.0911 8.15739C54.0181 8.38174 53.9685 8.60348 53.9424 8.82261C53.9268 8.94261 53.919 9.06 53.919 9.17478C53.919 9.2687 53.9268 9.38609 53.9424 9.52696C53.9633 9.66261 54.0181 9.78522 54.1068 9.89478C54.185 9.99913 54.2816 10.0852 54.3963 10.153C54.5163 10.2157 54.6416 10.2678 54.772 10.3096C54.9076 10.3461 55.0381 10.3748 55.1633 10.3957C55.2937 10.4113 55.4059 10.4217 55.4998 10.427C55.7607 10.4426 56.0059 10.4504 56.2355 10.4504C56.2929 10.4504 56.4024 10.4504 56.5642 10.4504C56.7311 10.4452 56.9163 10.4348 57.1198 10.4191C57.1042 10.0852 57.065 9.76957 57.0024 9.47217C56.9398 9.17478 56.859 8.89826 56.7598 8.64261C56.6607 8.38696 56.5485 8.15739 56.4233 7.95391C56.3033 7.74522 56.1781 7.56522 56.0476 7.41391C55.9955 7.36174 55.9355 7.30696 55.8676 7.24957C55.805 7.18696 55.7346 7.13217 55.6563 7.08522C55.5833 7.03304 55.505 6.9913 55.4216 6.96C55.3381 6.9287 55.2494 6.91304 55.1555 6.91304ZM51.7042 15.9835C52.5076 15.8217 53.2276 15.5974 53.8642 15.3104C54.5007 15.0235 55.0459 14.7 55.4998 14.34C55.9537 13.98 56.3111 13.5965 56.572 13.1896C56.8381 12.7878 56.9998 12.3913 57.0572 12H56.6972C56.572 12 56.3946 12 56.165 12C55.9407 12 55.685 11.987 55.3981 11.9609C54.2659 11.893 53.4285 11.5226 52.8859 10.8496C52.6459 10.547 52.4946 10.1974 52.432 9.80087C52.3955 9.59217 52.3772 9.38348 52.3772 9.17478C52.3772 8.97652 52.3981 8.72609 52.4398 8.42348C52.4868 8.11565 52.5911 7.7687 52.7529 7.38261C52.9146 6.9913 53.105 6.65478 53.3242 6.37304C53.5903 6.04435 53.8772 5.79652 54.185 5.62957C54.4981 5.45739 54.8216 5.3713 55.1555 5.3713C55.8963 5.3713 56.5772 5.70522 57.1981 6.37304C57.4642 6.66522 57.6963 7.00435 57.8946 7.39043C58.0981 7.7713 58.2624 8.18087 58.3876 8.61913C58.5129 9.05739 58.599 9.51391 58.6459 9.9887C58.6668 10.213 58.6772 10.4374 58.6772 10.6617C58.6772 10.9122 58.6642 11.1626 58.6381 11.413C58.5807 11.987 58.4529 12.5217 58.2546 13.0174C58.0563 13.5183 57.8033 13.98 57.4955 14.4026C57.1876 14.8252 56.8303 15.2087 56.4233 15.553C56.0216 15.8974 55.5859 16.1974 55.1163 16.453C54.652 16.7139 54.1616 16.9304 53.645 17.1026C53.1285 17.28 52.6016 17.4104 52.0642 17.4939L51.7042 15.9835ZM64.4304 11.46C64.4304 12.1435 64.2843 12.7957 63.9921 13.4165C63.6999 14.0374 63.3112 14.6139 62.826 15.1461C62.346 15.6835 61.7956 16.1739 61.1747 16.6174C60.5538 17.0609 59.9147 17.447 59.2573 17.7757L58.5843 16.3904C58.9599 16.1974 59.333 15.9835 59.7034 15.7487C60.0738 15.5191 60.4234 15.2713 60.7521 15.0052C61.0808 14.7391 61.3834 14.4574 61.6599 14.16C61.9365 13.8678 62.1686 13.56 62.3565 13.2365C62.5495 12.913 62.693 12.5765 62.7869 12.227C62.8547 11.9765 62.8886 11.7209 62.8886 11.46C62.8886 11.3557 62.8834 11.2591 62.873 11.1704C62.8365 10.873 62.7791 10.5548 62.7008 10.2157C62.6278 9.8713 62.5469 9.53478 62.4582 9.20609C62.3695 8.87739 62.2808 8.56957 62.1921 8.28261C62.1034 7.99043 62.0278 7.74783 61.9651 7.55478L63.4365 7.10087C63.6347 7.70609 63.8278 8.22261 64.0156 8.65043C64.2034 9.07304 64.3965 9.42 64.5947 9.6913C64.793 9.95739 64.9991 10.153 65.213 10.2783C65.4321 10.4035 65.6721 10.4661 65.933 10.4661H66.0582V12H65.9251C65.8521 12 65.7582 11.9974 65.6434 11.9922C65.5286 11.987 65.4008 11.9661 65.2599 11.9296C65.1243 11.893 64.9834 11.8357 64.8373 11.7574C64.6965 11.6791 64.5608 11.5696 64.4304 11.4287V11.46ZM65.7634 10.4661H67.2738C67.5764 10.4661 67.8712 10.4609 68.1582 10.4504C68.4451 10.4348 68.7112 10.3957 68.9564 10.333C69.2017 10.2704 69.4182 10.1791 69.606 10.0591C69.7938 9.93391 69.9399 9.76174 70.0443 9.54261C70.0964 9.43304 70.1356 9.29478 70.1617 9.12783C70.1773 9.01826 70.1851 8.90087 70.1851 8.77565C70.1851 8.70783 70.1799 8.60609 70.1695 8.47043C70.1591 8.32957 70.1251 8.13913 70.0677 7.89913C70.0104 7.65391 69.9269 7.39826 69.8173 7.13217L69.1364 5.45739L70.5295 4.7687C70.5295 4.77391 70.553 4.8287 70.5999 4.93304C70.6469 5.03217 70.7069 5.16783 70.7799 5.34C70.8582 5.51217 70.9417 5.71304 71.0304 5.94261C71.1191 6.16696 71.2025 6.40696 71.2808 6.66261C71.5156 7.41913 71.6512 8.08696 71.6877 8.66609C71.693 8.74957 71.6956 8.83304 71.6956 8.91652C71.6956 9.3913 71.6173 9.8087 71.4608 10.1687C71.3043 10.5235 71.0956 10.8183 70.8347 11.053C70.5791 11.2878 70.2843 11.4757 69.9504 11.6165C69.6164 11.7574 69.2486 11.8565 68.8469 11.9139C68.4504 11.9713 68.0382 12 67.6104 12H65.7634V10.4661ZM70.6077 13.5261L71.8756 14.7939L70.5921 16.0774L69.3243 14.8096L70.6077 13.5261ZM67.1877 13.5339L68.4556 14.8096L67.1721 16.093L65.9043 14.8174L67.1877 13.5339ZM68.9251 16.007L70.0834 17.1652L68.9173 18.3313L67.7591 17.173L68.9251 16.007Z" fill="white"/>
</svg>
