<svg width="75" height="19" viewBox="0 0 75 19" fill="none" xmlns="http://www.w3.org/2000/svg">
<path d="M5.8913 12.46C5.8913 13.1435 5.74522 13.7957 5.45304 14.4165C5.16087 15.0374 4.77217 15.6139 4.28696 16.1461C3.80696 16.6835 3.25652 17.1739 2.63565 17.6174C2.01478 18.0609 1.37565 18.447 0.718261 18.7757L0.0452173 17.3904C0.42087 17.1974 0.793913 16.9835 1.16435 16.7487C1.53478 16.5191 1.88435 16.2713 2.21304 16.0052C2.54174 15.7391 2.84435 15.4574 3.12087 15.16C3.39739 14.8678 3.62957 14.56 3.81739 14.2365C4.01043 13.913 4.15391 13.5765 4.24783 13.227C4.31565 12.9765 4.34957 12.7209 4.34957 12.46C4.34957 12.3557 4.34435 12.2591 4.33391 12.1704C4.29739 11.873 4.24 11.5548 4.16174 11.2157C4.0887 10.8713 4.00783 10.5348 3.91913 10.2061C3.83043 9.87739 3.74174 9.56957 3.65304 9.28261C3.56435 8.99043 3.4887 8.74783 3.42609 8.55478L4.89739 8.10087C5.09565 8.70609 5.2887 9.22261 5.47652 9.65043C5.66435 10.073 5.85739 10.42 6.05565 10.6913C6.25391 10.9574 6.46 11.153 6.67391 11.2783C6.89304 11.4035 7.13304 11.4661 7.39391 11.4661H7.51913V13H7.38609C7.31304 13 7.21913 12.9974 7.10435 12.9922C6.98957 12.987 6.86174 12.9661 6.72087 12.9296C6.58522 12.893 6.44435 12.8357 6.29826 12.7574C6.15739 12.6791 6.02174 12.5696 5.8913 12.4287V12.46ZM14.2052 11.4661V13H14.0487C13.5217 13 13.0835 12.9113 12.7339 12.7339C12.3843 12.5513 12.0974 12.3165 11.873 12.0296C11.7061 12.1913 11.5235 12.3348 11.3252 12.46C11.1269 12.58 10.8922 12.6817 10.6209 12.7652C10.3496 12.8435 10.0313 12.9035 9.66608 12.9452C9.30608 12.9817 8.88086 13 8.39042 13H7.22434V11.4661H8.39042C8.88608 11.4661 9.30869 11.427 9.65825 11.3487C10.013 11.2704 10.3 11.153 10.5191 10.9965C10.7435 10.84 10.9078 10.6443 11.0122 10.4096C11.1165 10.1748 11.1687 9.90087 11.1687 9.58783C11.1687 9.29043 11.1452 8.98783 11.0983 8.68C11.0565 8.37217 10.9783 8.02 10.8635 7.62348L12.3348 7.2087C12.3869 7.3913 12.4313 7.5687 12.4678 7.74087C12.5043 7.90783 12.5356 8.08522 12.5617 8.27304C12.5878 8.46087 12.6113 8.66435 12.6322 8.88348C12.6583 9.10261 12.6817 9.35043 12.7026 9.62696C12.7183 9.82 12.7469 10.0235 12.7887 10.2374C12.8304 10.4513 12.8983 10.6496 12.9922 10.8322C13.0913 11.0148 13.2243 11.1661 13.3913 11.2861C13.5635 11.4061 13.7826 11.4661 14.0487 11.4661H14.2052ZM10.5426 4.32087L9.27477 5.5887L7.99129 4.31304L9.25912 3.03739L10.5426 4.32087ZM13.7513 4.3287L12.4835 5.60435L11.2 4.32087L12.4678 3.05304L13.7513 4.3287ZM13.8864 11.4661H14.8647C15.1778 11.4661 15.5038 11.4635 15.843 11.4583C16.1821 11.4478 16.5056 11.4165 16.8134 11.3643C17.1212 11.307 17.403 11.2209 17.6586 11.1061C17.9143 10.9861 18.1151 10.8165 18.2612 10.5974C18.4334 10.3313 18.5351 10.0443 18.5664 9.73652C18.5717 9.6687 18.5743 9.60087 18.5743 9.53304C18.5743 9.28783 18.5378 9.02435 18.4647 8.74261C18.4073 8.5287 18.2638 8.25739 18.0343 7.9287C17.8099 7.59478 17.5308 7.24 17.1969 6.86435C16.863 6.48348 16.4899 6.09478 16.0778 5.69826C15.6656 5.30174 15.2456 4.9313 14.8178 4.58696L14.9978 2.98261L21.4308 0.227826L22.0334 1.65217L16.4299 4.00783C16.6856 4.22696 16.9647 4.47217 17.2673 4.74348C17.5699 5.01478 17.8699 5.31478 18.1673 5.64348C18.5638 6.08174 18.8899 6.50174 19.1456 6.90348C19.4012 7.3 19.5995 7.67826 19.7404 8.03826C19.8812 8.39826 19.9751 8.73739 20.0221 9.05565C20.0534 9.26435 20.0691 9.46261 20.0691 9.65043C20.0691 9.76 20.0586 9.9113 20.0378 10.1043C20.0221 10.2922 19.9725 10.5061 19.8891 10.7461C19.8108 10.9861 19.7169 11.2052 19.6073 11.4035C19.143 12.2278 18.3578 12.7417 17.2517 12.9452C17.0691 12.9817 16.8421 13 16.5708 13H13.8864V11.4661ZM26.3062 12.9922C26.0558 12.9922 25.7584 12.9635 25.4141 12.9061C25.0749 12.8435 24.7358 12.7626 24.3967 12.6635C24.0575 12.5643 23.7471 12.4548 23.4654 12.3348C23.1836 12.2148 22.9775 12.0948 22.8471 11.9748L23.4888 10.5035C23.6819 10.6287 23.9141 10.7513 24.1854 10.8713C24.4567 10.9861 24.7462 11.0878 25.0541 11.1765C25.3619 11.26 25.6801 11.3226 26.0088 11.3643C26.2071 11.3904 26.4028 11.4035 26.5958 11.4035C26.7158 11.4035 26.8801 11.3957 27.0888 11.38C27.2975 11.3591 27.5323 11.2965 27.7932 11.1922C28.0541 11.0878 28.2732 10.9287 28.4506 10.7148C28.5288 10.6209 28.568 10.48 28.568 10.2922C28.568 10.1565 28.5471 9.99478 28.5054 9.80696C28.448 9.5513 28.3541 9.28522 28.2236 9.0087C28.0984 8.72696 27.9445 8.44783 27.7619 8.1713C27.5845 7.88957 27.3862 7.61826 27.1671 7.35739C26.948 7.0913 26.7184 6.84348 26.4784 6.61391C26.2436 6.38435 26.0036 6.18087 25.7584 6.00348C25.5132 5.82609 25.2732 5.68522 25.0384 5.58087L25.6723 4.15652C25.9801 4.29739 26.288 4.48 26.5958 4.70435C26.9088 4.9287 27.2141 5.18174 27.5115 5.46348C27.8088 5.74522 28.0906 6.05043 28.3567 6.37913C28.628 6.70261 28.8732 7.03913 29.0923 7.3887C29.3167 7.73304 29.5071 8.08261 29.6636 8.43739C29.8254 8.78696 29.9454 9.12609 30.0236 9.45478C30.0862 9.74696 30.1149 10.0104 30.1097 10.2452C30.1097 10.48 30.0888 10.6887 30.0471 10.8713C30.0054 11.0539 29.948 11.213 29.8749 11.3487C29.8019 11.4843 29.7236 11.6017 29.6401 11.7009C29.4523 11.9304 29.2306 12.1287 28.9749 12.2957C28.7245 12.4574 28.4532 12.5904 28.161 12.6948C27.8688 12.7991 27.5636 12.8748 27.2454 12.9217C26.9323 12.9687 26.6193 12.9922 26.3062 12.9922ZM40.1101 13C40.084 13 40.0188 13 39.9145 13C39.8153 12.9948 39.6875 12.9817 39.531 12.9609C39.3797 12.9348 39.2101 12.8957 39.0223 12.8435C38.8345 12.7913 38.644 12.7183 38.451 12.6243C37.9501 12.3896 37.5718 12.0765 37.3162 11.6852C37.0605 11.2887 36.9327 10.8217 36.9327 10.2843C36.9327 9.34 37.3579 8.35652 38.2084 7.33391C38.3805 7.13043 38.5449 6.94783 38.7014 6.78609C38.8631 6.62435 39.004 6.4887 39.124 6.37913C38.9675 6.23826 38.8423 6.1287 38.7484 6.05043C38.6545 5.97217 38.6075 5.93043 38.6075 5.92522L39.5936 4.72783C39.5988 4.73826 39.6536 4.78783 39.7579 4.87652C39.8623 4.96522 39.9979 5.08783 40.1649 5.24435C40.3371 5.40087 40.5301 5.58609 40.744 5.8C40.9579 6.0087 41.1771 6.23826 41.4014 6.4887C42.0431 7.21913 42.5205 7.9 42.8336 8.5313C43.1466 9.16261 43.3031 9.74696 43.3031 10.2843C43.3031 10.8217 43.1831 11.2887 42.9431 11.6852C42.7084 12.0817 42.3614 12.3922 41.9023 12.6165C41.7353 12.7 41.5658 12.7678 41.3936 12.82C41.2214 12.867 41.0571 12.9061 40.9005 12.9374C40.744 12.9635 40.5953 12.9817 40.4545 12.9922C40.3188 12.9974 40.204 13 40.1101 13ZM40.204 7.49043C40.0527 7.62609 39.8753 7.79826 39.6718 8.00696C39.4736 8.21565 39.2858 8.44522 39.1084 8.69565C38.931 8.94609 38.7797 9.20696 38.6545 9.47826C38.5345 9.74957 38.4745 10.0183 38.4745 10.2843C38.4745 10.3626 38.4797 10.4435 38.4901 10.527C38.5058 10.6104 38.5345 10.6939 38.5762 10.7774C38.6231 10.8557 38.6884 10.9339 38.7718 11.0122C38.8553 11.0904 38.9675 11.1609 39.1084 11.2235C39.2075 11.2704 39.3092 11.3096 39.4136 11.3409C39.5179 11.367 39.6145 11.3878 39.7031 11.4035C39.7918 11.4191 39.8727 11.4296 39.9458 11.4348C40.0188 11.44 40.0736 11.4426 40.1101 11.4426C40.1623 11.4426 40.2301 11.4426 40.3136 11.4426C40.3971 11.4374 40.4884 11.427 40.5875 11.4113C40.6866 11.3957 40.791 11.3748 40.9005 11.3487C41.0101 11.3226 41.1145 11.2861 41.2136 11.2391C41.4066 11.1348 41.5449 11.0096 41.6284 10.8635C41.7171 10.7122 41.7614 10.5191 41.7614 10.2843C41.7614 9.94 41.6284 9.52522 41.3623 9.04C41.0962 8.55478 40.7101 8.03826 40.204 7.49043ZM47.9325 7.91304C48.0055 8.15826 48.0786 8.40087 48.1516 8.64087C48.2247 8.87565 48.2899 9.11304 48.3473 9.35304C48.4099 9.60348 48.4725 9.85652 48.5351 10.1122C48.6029 10.3626 48.6629 10.613 48.7151 10.8635C48.7725 11.1087 48.8194 11.3513 48.856 11.5913C48.8925 11.8313 48.9108 12.0661 48.9108 12.2957C48.9108 12.7496 48.8429 13.1878 48.7073 13.6104C48.5768 14.0383 48.3916 14.4504 48.1516 14.847C47.9168 15.2435 47.6351 15.6217 47.3064 15.9817C46.9829 16.3417 46.6281 16.6809 46.2421 16.9991C45.8612 17.3174 45.4568 17.6096 45.029 17.8757C44.6064 18.147 44.176 18.3896 43.7377 18.6035L43.0568 17.2261C43.6047 16.9548 44.1368 16.6391 44.6534 16.2791C45.1699 15.9243 45.629 15.5357 46.0308 15.113C46.4377 14.6904 46.7638 14.2417 47.009 13.767C47.2542 13.2922 47.3768 12.8017 47.3768 12.2957C47.3768 12.1026 47.3586 11.8991 47.3221 11.6852C47.2908 11.4713 47.249 11.2522 47.1968 11.0278C47.1447 10.8035 47.0873 10.5791 47.0247 10.3548C46.9621 10.1304 46.9021 9.9113 46.8447 9.69739C46.7194 9.25913 46.5864 8.82087 46.4455 8.38261L47.9325 7.91304ZM54.7331 13C54.1592 13 53.6687 12.9322 53.2618 12.7965C52.86 12.6609 52.5183 12.4522 52.2366 12.1704C52.0644 11.9983 51.9313 11.813 51.8374 11.6148C51.7487 11.4165 51.6809 11.2209 51.634 11.0278C51.5922 10.8348 51.5687 10.6522 51.5635 10.48C51.5583 10.3026 51.5557 10.1513 51.5557 10.0261C51.5557 9.98435 51.5557 9.86174 51.5557 9.65826C51.5609 9.44957 51.5661 9.18348 51.5713 8.86C51.5766 8.53652 51.5792 8.16609 51.5792 7.7487C51.5792 7.33652 51.5766 6.90087 51.5713 6.44174C51.5713 5.99304 51.5661 5.52609 51.5557 5.04087C51.5453 4.55565 51.527 4.08609 51.5009 3.63217C51.48 3.17826 51.4513 2.76087 51.4148 2.38C51.3835 1.99391 51.3444 1.67826 51.2974 1.43304L52.8313 1.1513C52.8783 1.41739 52.9174 1.74348 52.9487 2.12956C52.9853 2.51565 53.014 2.93565 53.0348 3.38956C53.0609 3.84348 53.0792 4.31826 53.0896 4.81391C53.1053 5.30435 53.1131 5.78435 53.1131 6.25391V10.1826C53.1131 10.36 53.1209 10.527 53.1366 10.6835C53.1574 10.8348 53.2279 10.9678 53.3479 11.0826C53.4679 11.2026 53.6453 11.2965 53.88 11.3643C54.12 11.4322 54.4044 11.4661 54.7331 11.4661H54.8896V13H54.7331ZM54.5798 11.4661H55.4876C55.7902 11.4661 56.0694 11.4609 56.325 11.4504C56.5807 11.4348 56.8128 11.3957 57.0215 11.333C57.2302 11.2704 57.4128 11.1791 57.5694 11.0591C57.7259 10.9339 57.8563 10.7617 57.9607 10.5426C58.0128 10.433 58.052 10.2948 58.0781 10.1278C58.0937 10.0183 58.1015 9.90087 58.1015 9.77565C58.1015 9.70783 58.0963 9.60609 58.0859 9.47043C58.0755 9.32957 58.0415 9.13913 57.9842 8.89913C57.9268 8.65391 57.8433 8.39826 57.7337 8.13217L57.0528 6.45739L58.4459 5.7687C58.4459 5.77391 58.4694 5.8287 58.5163 5.93304C58.5633 6.03217 58.6233 6.16783 58.6963 6.34C58.7746 6.51217 58.8581 6.71304 58.9468 6.94261C59.0355 7.16696 59.1189 7.40696 59.1972 7.66261C59.432 8.41913 59.5676 9.08696 59.6042 9.66609C59.6094 9.74957 59.612 9.83304 59.612 9.91652C59.612 10.3913 59.5337 10.8087 59.3772 11.1687C59.2207 11.5235 59.0276 11.8183 58.7981 12.053C58.5737 12.2878 58.3128 12.4757 58.0155 12.6165C57.7181 12.7574 57.3842 12.8565 57.0137 12.9139C56.6485 12.9713 56.252 13 55.8242 13H54.5798V11.4661ZM58.3833 15.8017L57.1076 17.0774L55.8242 15.7939L57.0998 14.5183L58.3833 15.8017ZM64.1923 7.91304C64.2653 8.15826 64.3383 8.40087 64.4114 8.64087C64.4844 8.87565 64.5497 9.11304 64.607 9.35304C64.6697 9.60348 64.7323 9.85652 64.7949 10.1122C64.8627 10.3626 64.9227 10.613 64.9749 10.8635C65.0323 11.1087 65.0792 11.3513 65.1157 11.5913C65.1523 11.8313 65.1705 12.0661 65.1705 12.2957C65.1705 12.7496 65.1027 13.1878 64.967 13.6104C64.8366 14.0383 64.6514 14.4504 64.4114 14.847C64.1766 15.2435 63.8949 15.6217 63.5662 15.9817C63.2427 16.3417 62.8879 16.6809 62.5018 16.9991C62.121 17.3174 61.7166 17.6096 61.2888 17.8757C60.8662 18.147 60.4357 18.3896 59.9975 18.6035L59.3166 17.2261C59.8644 16.9548 60.3966 16.6391 60.9131 16.2791C61.4297 15.9243 61.8888 15.5357 62.2905 15.113C62.6975 14.6904 63.0236 14.2417 63.2688 13.767C63.514 13.2922 63.6366 12.8017 63.6366 12.2957C63.6366 12.1026 63.6183 11.8991 63.5818 11.6852C63.5505 11.4713 63.5088 11.2522 63.4566 11.0278C63.4044 10.8035 63.347 10.5791 63.2844 10.3548C63.2218 10.1304 63.1618 9.9113 63.1044 9.69739C62.9792 9.25913 62.8462 8.82087 62.7053 8.38261L64.1923 7.91304ZM70.3746 12.9922C70.1242 12.9922 69.8268 12.9635 69.4824 12.9061C69.1433 12.8435 68.8042 12.7626 68.465 12.6635C68.1259 12.5643 67.8155 12.4548 67.5337 12.3348C67.252 12.2148 67.0459 12.0948 66.9155 11.9748L67.5572 10.5035C67.7502 10.6287 67.9824 10.7513 68.2537 10.8713C68.525 10.9861 68.8146 11.0878 69.1224 11.1765C69.4302 11.26 69.7485 11.3226 70.0772 11.3643C70.2755 11.3904 70.4711 11.4035 70.6642 11.4035C70.7842 11.4035 70.9485 11.3957 71.1572 11.38C71.3659 11.3591 71.6007 11.2965 71.8615 11.1922C72.1224 11.0878 72.3415 10.9287 72.5189 10.7148C72.5972 10.6209 72.6363 10.48 72.6363 10.2922C72.6363 10.1565 72.6155 9.99478 72.5737 9.80696C72.5163 9.5513 72.4224 9.28522 72.292 9.0087C72.1668 8.72696 72.0129 8.44783 71.8302 8.1713C71.6529 7.88957 71.4546 7.61826 71.2355 7.35739C71.0163 7.0913 70.7868 6.84348 70.5468 6.61391C70.312 6.38435 70.072 6.18087 69.8268 6.00348C69.5815 5.82609 69.3415 5.68522 69.1068 5.58087L69.7407 4.15652C70.0485 4.29739 70.3563 4.48 70.6642 4.70435C70.9772 4.9287 71.2824 5.18174 71.5798 5.46348C71.8772 5.74522 72.1589 6.05043 72.425 6.37913C72.6963 6.70261 72.9415 7.03913 73.1607 7.3887C73.385 7.73304 73.5755 8.08261 73.732 8.43739C73.8937 8.78696 74.0137 9.12609 74.092 9.45478C74.1546 9.74696 74.1833 10.0104 74.1781 10.2452C74.1781 10.48 74.1572 10.6887 74.1155 10.8713C74.0737 11.0539 74.0163 11.213 73.9433 11.3487C73.8702 11.4843 73.792 11.6017 73.7085 11.7009C73.5207 11.9304 73.2989 12.1287 73.0433 12.2957C72.7929 12.4574 72.5215 12.5904 72.2294 12.6948C71.9372 12.7991 71.632 12.8748 71.3137 12.9217C71.0007 12.9687 70.6876 12.9922 70.3746 12.9922Z" fill="white"/>
</svg>
