<svg width="106" height="19" viewBox="0 0 106 19" fill="none" xmlns="http://www.w3.org/2000/svg">
<path d="M3.18522 10.347C3.11217 10.4617 3.03913 10.5896 2.96609 10.7304C2.89826 10.8661 2.83565 11.0148 2.77826 11.1765C2.67391 11.4583 2.57739 11.8026 2.4887 12.2096C2.40522 12.6113 2.36348 13.0887 2.36348 13.6417C2.36348 13.9861 2.40783 14.2965 2.49652 14.573C2.59043 14.8548 2.71304 15.1026 2.86435 15.3165C3.02087 15.5304 3.19826 15.7157 3.39652 15.8722C3.6 16.0287 3.8087 16.1565 4.02261 16.2557C4.23652 16.36 4.44783 16.4383 4.65652 16.4904C4.87043 16.5478 5.0687 16.5817 5.2513 16.5922C5.31913 16.5974 5.38435 16.6 5.44696 16.6C5.65044 16.6 5.87739 16.5791 6.12783 16.5374C6.38348 16.5009 6.65217 16.4278 6.93391 16.3183C7.21565 16.2087 7.48435 16.0626 7.74 15.88C7.99565 15.6974 8.22 15.473 8.41304 15.207C8.6113 14.9461 8.76783 14.6409 8.88261 14.2913C9.00261 13.947 9.06261 13.553 9.06261 13.1096C9.06261 12.6974 9.05478 12.2096 9.03913 11.6461C9.0287 11.0826 9.01304 10.48 8.99217 9.83826C8.97652 9.19652 8.95565 8.53652 8.92957 7.85826C8.90348 7.17478 8.87739 6.50957 8.8513 5.86261C8.82522 5.10087 8.79391 4.32609 8.75739 3.53826C8.72609 2.74522 8.68957 1.9313 8.64783 1.09652L10.1817 1.03391C10.2235 1.87391 10.26 2.69304 10.2913 3.4913C10.3278 4.28435 10.3591 5.06435 10.3852 5.8313C10.4113 6.48348 10.4374 7.1513 10.4635 7.83478C10.4896 8.51826 10.5104 9.18348 10.5261 9.83043C10.547 10.4722 10.5626 11.0774 10.573 11.6461C10.5887 12.2096 10.5965 12.6974 10.5965 13.1096C10.5965 13.767 10.513 14.3487 10.3461 14.8548C10.1791 15.3661 9.95478 15.8096 9.67304 16.1852C9.39652 16.5661 9.07565 16.8843 8.71044 17.14C8.35044 17.3957 7.97217 17.5991 7.57565 17.7504C7.17913 17.907 6.78 18.0139 6.37826 18.0713C6.08609 18.113 5.80435 18.1339 5.53304 18.1339C5.43913 18.1339 5.34522 18.1313 5.2513 18.1261C4.93304 18.1104 4.60174 18.0609 4.25739 17.9774C3.91826 17.8939 3.58435 17.7739 3.25565 17.6174C2.92696 17.4609 2.61391 17.2626 2.31652 17.0226C2.02435 16.7878 1.76609 16.5061 1.54174 16.1774C1.31739 15.8487 1.14261 15.473 1.01739 15.0504C0.892174 14.6487 0.829565 14.2 0.829565 13.7043V13.6417C0.834783 12.9635 0.886957 12.3817 0.986087 11.8965C1.08522 11.4113 1.19478 11.0043 1.31478 10.6757C1.45043 10.2948 1.60696 9.97652 1.78435 9.72087L3.18522 10.347ZM15.6555 7.91304C15.5042 7.91304 15.3607 7.97304 15.225 8.09304C15.0894 8.20783 14.9668 8.35652 14.8572 8.53913C14.7529 8.72174 14.6642 8.92783 14.5911 9.15739C14.5181 9.38174 14.4685 9.60348 14.4424 9.82261C14.4268 9.94261 14.419 10.06 14.419 10.1748C14.419 10.2687 14.4268 10.3861 14.4424 10.527C14.4633 10.6626 14.5181 10.7852 14.6068 10.8948C14.685 10.9991 14.7816 11.0852 14.8963 11.153C15.0163 11.2157 15.1416 11.2678 15.272 11.3096C15.4076 11.3461 15.5381 11.3748 15.6633 11.3957C15.7937 11.4113 15.9059 11.4217 15.9998 11.427C16.2607 11.4426 16.5059 11.4504 16.7355 11.4504C16.7929 11.4504 16.9024 11.4504 17.0642 11.4504C17.2311 11.4452 17.4163 11.4348 17.6198 11.4191C17.6042 11.0852 17.565 10.7696 17.5024 10.4722C17.4398 10.1748 17.359 9.89826 17.2598 9.64261C17.1607 9.38696 17.0485 9.15739 16.9233 8.95391C16.8033 8.74522 16.6781 8.56522 16.5476 8.41391C16.4955 8.36174 16.4355 8.30696 16.3676 8.24957C16.305 8.18696 16.2346 8.13217 16.1563 8.08522C16.0833 8.03304 16.005 7.9913 15.9216 7.96C15.8381 7.9287 15.7494 7.91304 15.6555 7.91304ZM12.2042 16.9835C13.0076 16.8217 13.7276 16.5974 14.3642 16.3104C15.0007 16.0235 15.5459 15.7 15.9998 15.34C16.4537 14.98 16.8111 14.5965 17.072 14.1896C17.3381 13.7878 17.4998 13.3913 17.5572 13H17.1972C17.072 13 16.8946 13 16.665 13C16.4407 13 16.185 12.987 15.8981 12.9609C14.7659 12.893 13.9285 12.5226 13.3859 11.8496C13.1459 11.547 12.9946 11.1974 12.932 10.8009C12.8955 10.5922 12.8772 10.3835 12.8772 10.1748C12.8772 9.97652 12.8981 9.72609 12.9398 9.42348C12.9868 9.11565 13.0911 8.7687 13.2529 8.38261C13.4146 7.9913 13.605 7.65478 13.8242 7.37304C14.0903 7.04435 14.3772 6.79652 14.685 6.62957C14.9981 6.45739 15.3216 6.3713 15.6555 6.3713C16.3963 6.3713 17.0772 6.70522 17.6981 7.37304C17.9642 7.66522 18.1963 8.00435 18.3946 8.39043C18.5981 8.7713 18.7624 9.18087 18.8876 9.61913C19.0129 10.0574 19.099 10.5139 19.1459 10.9887C19.1668 11.213 19.1772 11.4374 19.1772 11.6617C19.1772 11.9122 19.1642 12.1626 19.1381 12.413C19.0807 12.987 18.9529 13.5217 18.7546 14.0174C18.5563 14.5183 18.3033 14.98 17.9955 15.4026C17.6876 15.8252 17.3303 16.2087 16.9233 16.553C16.5216 16.8974 16.0859 17.1974 15.6163 17.453C15.152 17.7139 14.6616 17.9304 14.145 18.1026C13.6285 18.28 13.1016 18.4104 12.5642 18.4939L12.2042 16.9835ZM22.7547 0.642608C22.9791 2.76087 23.1121 4.66 23.1538 6.34C23.1695 7.20609 23.1773 8.02 23.1773 8.78174C23.1773 9.24087 23.1695 9.85391 23.1538 10.6209C23.1434 11.3878 23.1017 12.2043 23.0286 13.0704L21.4869 12.9843C21.5704 11.8157 21.6251 10.7461 21.6512 9.77565C21.6617 9.33739 21.6669 8.91739 21.6669 8.51565C21.6669 8.03043 21.6591 7.5713 21.6434 7.13826C21.5391 4.60783 21.3982 2.52087 21.2208 0.877392L22.7547 0.642608ZM34.2733 11.4661V13H34.1168C33.7776 13 33.475 12.9739 33.2089 12.9217C32.9481 12.8643 32.7159 12.7887 32.5124 12.6948C32.3141 12.6009 32.1394 12.4913 31.9881 12.3661C31.8368 12.2357 31.7063 12.1 31.5968 11.9591C31.3776 12.1313 31.1559 12.2826 30.9315 12.413C30.7124 12.5435 30.475 12.653 30.2194 12.7417C29.9689 12.8252 29.695 12.8904 29.3976 12.9374C29.1002 12.9791 28.7663 13 28.3959 13C27.7802 13 27.2089 12.8748 26.682 12.6243C26.1602 12.3687 25.6776 12.0113 25.2341 11.5522L26.1185 10.3078C26.4315 10.6 26.7472 10.8322 27.0655 11.0043C27.3837 11.1765 27.6994 11.2965 28.0124 11.3643C28.2211 11.4113 28.4298 11.4348 28.6385 11.4348C28.7376 11.4348 28.8837 11.427 29.0768 11.4113C29.275 11.3904 29.515 11.3252 29.7968 11.2157C30.0628 11.1113 30.2794 10.9991 30.4463 10.8791C30.6185 10.7539 30.7489 10.647 30.8376 10.5583L28.3646 4.61043L29.7889 4.01565C30.0394 4.62609 30.2663 5.18174 30.4698 5.68261C30.6785 6.18348 30.8741 6.65826 31.0568 7.10696C31.2446 7.55565 31.4272 7.99913 31.6046 8.43739C31.7872 8.87043 31.9802 9.32435 32.1837 9.79913C32.2881 10.0496 32.3872 10.2791 32.4811 10.4878C32.5802 10.6913 32.6976 10.8661 32.8333 11.0122C32.9689 11.153 33.1385 11.2652 33.342 11.3487C33.5455 11.427 33.8037 11.4661 34.1168 11.4661H34.2733ZM40.9435 11.4661V13H40.787C40.26 13 39.8217 12.9113 39.4722 12.7339C39.1226 12.5513 38.8357 12.3165 38.6113 12.0296C38.4444 12.1913 38.2617 12.3348 38.0635 12.46C37.8652 12.58 37.6304 12.6817 37.3591 12.7652C37.0878 12.8435 36.7696 12.9035 36.4044 12.9452C36.0444 12.9817 35.6191 13 35.1287 13H33.9626V11.4661H35.1287C35.6244 11.4661 36.047 11.427 36.3965 11.3487C36.7513 11.2704 37.0383 11.153 37.2574 10.9965C37.4817 10.84 37.6461 10.6443 37.7504 10.4096C37.8548 10.1748 37.907 9.90087 37.907 9.58783C37.907 9.29043 37.8835 8.98783 37.8365 8.68C37.7948 8.37217 37.7165 8.02 37.6017 7.62348L39.0731 7.2087C39.1252 7.3913 39.1696 7.5687 39.2061 7.74087C39.2426 7.90783 39.2739 8.08522 39.3 8.27304C39.3261 8.46087 39.3496 8.66435 39.3704 8.88348C39.3965 9.10261 39.42 9.35043 39.4409 9.62696C39.4565 9.82 39.4852 10.0235 39.527 10.2374C39.5687 10.4513 39.6365 10.6496 39.7304 10.8322C39.8296 11.0148 39.9626 11.1661 40.1296 11.2861C40.3017 11.4061 40.5209 11.4661 40.787 11.4661H40.9435ZM37.2809 4.32087L36.0131 5.5887L34.7296 4.31304L35.9974 3.03739L37.2809 4.32087ZM40.4896 4.3287L39.2217 5.60435L37.9383 4.32087L39.2061 3.05304L40.4896 4.3287ZM40.7812 11.4661C41.2456 11.4661 41.6317 11.3957 41.9395 11.2548C42.2473 11.1087 42.5082 10.9183 42.7221 10.6835C42.9413 10.4435 43.1291 10.1722 43.2856 9.86957C43.4473 9.56174 43.6091 9.24609 43.7708 8.92261C43.9117 8.63043 44.0604 8.34348 44.2169 8.06174C44.3786 7.77478 44.5586 7.52174 44.7569 7.30261C44.9604 7.07826 45.1899 6.89826 45.4456 6.76261C45.7065 6.62174 46.0091 6.5513 46.3534 6.5513C46.7656 6.5513 47.1282 6.63478 47.4413 6.80174C47.7595 6.96348 48.0308 7.17739 48.2552 7.44348C48.4795 7.70957 48.6569 8.01217 48.7873 8.3513C48.923 8.69043 49.0169 9.03478 49.0691 9.38435C49.0952 9.56174 49.1082 9.74435 49.1082 9.93217C49.1082 10.0991 49.0926 10.3183 49.0613 10.5896C49.0299 10.8609 48.9465 11.1609 48.8108 11.4896C48.6752 11.813 48.4899 12.0974 48.2552 12.3426C48.0204 12.5826 47.7334 12.7496 47.3943 12.8435C47.1804 12.9009 46.9665 12.9296 46.7526 12.9296C46.6482 12.9296 46.4865 12.9165 46.2673 12.8904C46.0534 12.8643 45.7926 12.7939 45.4847 12.6791C45.1821 12.5591 44.8899 12.4157 44.6082 12.2487C44.3265 12.0765 44.0656 11.9017 43.8256 11.7243C43.6221 12.0009 43.4082 12.2226 43.1839 12.3896C42.9647 12.5565 42.7299 12.6843 42.4795 12.773C42.2291 12.8617 41.963 12.9217 41.6813 12.953C41.3995 12.9843 41.0995 13 40.7812 13H40.6247V11.4661H40.7812ZM44.7256 10.4565C45.2004 10.8061 45.6334 11.0591 46.0247 11.2157C46.2856 11.32 46.5204 11.3722 46.7291 11.3722C46.8282 11.3722 46.9195 11.3617 47.003 11.3409C47.0917 11.32 47.1778 11.26 47.2613 11.1609C47.3447 11.0617 47.4152 10.9339 47.4726 10.7774C47.5352 10.6209 47.5795 10.4409 47.6056 10.2374C47.616 10.1539 47.6212 10.0704 47.6212 9.98696C47.6212 9.85652 47.6108 9.72087 47.5899 9.58C47.5847 9.54348 47.5717 9.48087 47.5508 9.39217C47.5299 9.30348 47.4986 9.20435 47.4569 9.09478C47.4204 8.98522 47.3708 8.87304 47.3082 8.75826C47.2456 8.63826 47.1699 8.5313 47.0812 8.43739C46.9926 8.33826 46.8882 8.25739 46.7682 8.19478C46.6482 8.13217 46.5099 8.10087 46.3534 8.10087C46.2491 8.10087 46.1499 8.13217 46.056 8.19478C45.9673 8.25217 45.876 8.34348 45.7821 8.4687C45.6934 8.59391 45.5969 8.75043 45.4926 8.93826C45.3934 9.12609 45.2786 9.34783 45.1482 9.60348L44.7256 10.4565ZM63.1326 13C61.2648 12.9843 59.7648 12.7678 58.6326 12.3504C57.5579 11.933 56.8274 11.3357 56.4413 10.5583C56.2222 10.1357 56.1126 9.67652 56.1126 9.18087C56.1126 8.68522 56.2144 8.1687 56.4179 7.6313C56.4909 7.44348 56.564 7.2713 56.637 7.11478C56.7153 6.95826 56.7883 6.82261 56.8561 6.70783C56.924 6.59304 56.9813 6.50174 57.0283 6.43391C57.0753 6.36087 57.104 6.31652 57.1144 6.30087L58.3587 7.22435C58.3066 7.30261 58.257 7.37826 58.21 7.4513C58.1683 7.52435 58.1266 7.6 58.0848 7.67826C58.0431 7.7513 58.0013 7.83217 57.9596 7.92087C57.9231 8.00435 57.8866 8.10087 57.85 8.21043C57.7248 8.55478 57.6622 8.87043 57.6622 9.15739C57.6622 9.41304 57.7144 9.64522 57.8187 9.85391C58.0744 10.3652 58.6587 10.7591 59.5718 11.0357C60.4848 11.307 61.6718 11.4452 63.1326 11.4504C63.5448 11.4504 63.9987 11.4348 64.4944 11.4035C64.99 11.367 65.4961 11.3043 66.0126 11.2157C66.5292 11.127 67.0405 11.007 67.5466 10.8557C68.0579 10.6991 68.5326 10.4983 68.9709 10.253C68.95 10.0183 68.8979 9.77304 68.8144 9.51739C68.7361 9.25652 68.6422 9.00087 68.5326 8.75043C68.4283 8.5 68.3161 8.26261 68.1961 8.03826C68.0761 7.8087 67.964 7.60783 67.8596 7.43565C67.7605 7.25826 67.6744 7.11739 67.6013 7.01304C67.5335 6.90348 67.497 6.84609 67.4918 6.84087L68.7909 5.99565C68.8013 6.01652 68.8666 6.12609 68.9866 6.32435C69.1118 6.51739 69.2553 6.77043 69.417 7.08348C69.5787 7.3913 69.7405 7.74087 69.9022 8.13217C70.0692 8.51826 70.1996 8.91217 70.2935 9.31391C70.3561 9.58 70.3979 9.81739 70.4187 10.0261C70.424 10.0835 70.4266 10.1409 70.4266 10.1983C70.4266 10.3391 70.4031 10.4852 70.3561 10.6365C70.3144 10.7878 70.2257 10.9417 70.09 11.0983C69.9596 11.2496 69.7718 11.4035 69.5266 11.56C69.2918 11.7061 69.0179 11.8443 68.7048 11.9748C68.3918 12.1052 68.0553 12.2252 67.6953 12.3348C67.3353 12.4391 66.957 12.5357 66.5605 12.6243C66.1692 12.7078 65.7753 12.7783 65.3787 12.8357C64.9822 12.893 64.5935 12.9348 64.2126 12.9609C63.884 12.987 63.5709 13 63.2735 13H63.1326ZM62.937 5.30696L61.6692 6.57478L60.3857 5.29913L61.6535 4.02348L62.937 5.30696ZM66.1457 5.31478L64.8779 6.59043L63.5944 5.30696L64.8622 4.03913L66.1457 5.31478ZM80.3226 8.37478C80.3279 8.46348 80.3305 8.55217 80.3305 8.64087C80.3305 8.86522 80.307 9.1287 80.26 9.4313C80.2131 9.7287 80.1296 10.047 80.0096 10.3861C79.8948 10.7252 79.7487 11.0461 79.5713 11.3487C79.3992 11.6461 79.2009 11.8965 78.9766 12.1C78.6322 12.413 78.2279 12.6817 77.7635 12.9061C77.2992 13.1304 76.7905 13.3078 76.2374 13.4383C75.7626 13.5374 75.2826 13.5948 74.7974 13.6104C74.6931 13.6157 74.5913 13.6183 74.4922 13.6183C74.1061 13.6183 73.7226 13.587 73.3418 13.5243L73.6079 11.9983C73.8687 12.0504 74.1531 12.0765 74.4609 12.0765C74.5392 12.0765 74.6957 12.0739 74.9305 12.0687C75.1653 12.0583 75.4861 12.0087 75.8931 11.92C75.8096 11.4557 75.687 10.9783 75.5253 10.4878C75.3635 9.99217 75.1757 9.49913 74.9618 9.0087C74.7531 8.51826 74.5261 8.03826 74.2809 7.5687C74.0409 7.09391 73.8009 6.64522 73.5609 6.22261C73.3261 5.79478 73.0966 5.40348 72.8722 5.0487C72.6531 4.6887 72.4574 4.37826 72.2853 4.11739C72.1131 3.8513 71.9748 3.64522 71.8705 3.49913C71.7661 3.34783 71.7113 3.26957 71.7061 3.26435L72.9818 2.37217C72.987 2.38783 73.0444 2.47652 73.154 2.63826C73.2687 2.8 73.4174 3.02174 73.6 3.30348C73.7826 3.58 73.9913 3.9113 74.2261 4.29739C74.4609 4.67826 74.7061 5.09826 74.9618 5.55739C75.5931 6.67913 76.107 7.72261 76.5035 8.68783C76.9 9.64783 77.187 10.5426 77.3644 11.3722C77.5783 11.2365 77.7766 11.0565 77.9592 10.8322C78.147 10.6026 78.3035 10.3548 78.4287 10.0887C78.5592 9.82261 78.6583 9.5487 78.7261 9.26696C78.7679 9.07391 78.7887 8.88609 78.7887 8.70348C78.7887 8.63043 78.7861 8.55739 78.7809 8.48435L77.9748 1.20609L79.5087 1.05739C79.5087 1.06261 79.5244 1.16696 79.5557 1.37043C79.587 1.57391 79.6261 1.85043 79.6731 2.2C79.72 2.54435 79.7722 2.9513 79.8296 3.42087C79.8922 3.89043 79.9522 4.39652 80.0096 4.93913C80.0722 5.47652 80.1296 6.04 80.1818 6.62957C80.2392 7.21391 80.2861 7.79565 80.3226 8.37478ZM83.7157 0.642608C83.94 2.76087 84.073 4.66 84.1148 6.34C84.1304 7.20609 84.1383 8.02 84.1383 8.78174C84.1383 9.24087 84.1304 9.85391 84.1148 10.6209C84.1043 11.3878 84.0626 12.2043 83.9896 13.0704L82.4478 12.9843C82.5313 11.8157 82.5861 10.7461 82.6122 9.77565C82.6226 9.33739 82.6278 8.91739 82.6278 8.51565C82.6278 8.03043 82.62 7.5713 82.6043 7.13826C82.5 4.60783 82.3591 2.52087 82.1817 0.877392L83.7157 0.642608ZM85.8116 16.9835C86.6151 16.8217 87.3351 16.5974 87.9716 16.3104C88.6081 16.0235 89.1533 15.7 89.6073 15.34C90.0612 14.98 90.4186 14.5965 90.6794 14.1896C90.9455 13.7878 91.1073 13.3913 91.1647 13H90.8047C90.6794 13 90.502 13 90.2725 13C90.0481 13 89.7925 12.987 89.5055 12.9609C88.3733 12.893 87.536 12.5226 86.9933 11.8496C86.7533 11.547 86.602 11.1974 86.5394 10.8009C86.5029 10.5922 86.4847 10.3835 86.4847 10.1748C86.4847 9.97652 86.5055 9.72609 86.5473 9.42348C86.5942 9.11565 86.6986 8.7687 86.8603 8.38261C87.022 7.9913 87.2125 7.65478 87.4316 7.37304C87.6977 7.04435 87.9847 6.79652 88.2925 6.62957C88.6055 6.45739 88.929 6.3713 89.2629 6.3713C90.0038 6.3713 90.6847 6.70522 91.3055 7.37304C91.5247 7.61826 91.7229 7.89478 91.9003 8.20261C92.0777 8.51043 92.229 8.84174 92.3542 9.19652C92.4794 9.54609 92.5786 9.91391 92.6516 10.3C92.7247 10.6809 92.7664 11.0696 92.7768 11.4661H93.5203V13H92.6594C92.5029 13.7722 92.2186 14.4687 91.8064 15.0896C91.3994 15.7157 90.9038 16.2609 90.3194 16.7252C89.7403 17.1896 89.0933 17.5704 88.3786 17.8678C87.669 18.1652 86.9333 18.3739 86.1716 18.4939L85.8116 16.9835ZM89.2629 7.91304C89.1116 7.91304 88.9681 7.97304 88.8325 8.09304C88.6968 8.20783 88.5742 8.35652 88.4647 8.53913C88.3603 8.72174 88.2716 8.92783 88.1986 9.15739C88.1255 9.38174 88.076 9.60348 88.0499 9.82261C88.0342 9.94261 88.0264 10.06 88.0264 10.1748C88.0264 10.2687 88.0342 10.3861 88.0499 10.527C88.0707 10.6626 88.1255 10.7852 88.2142 10.8948C88.2925 10.9991 88.389 11.0852 88.5038 11.153C88.6238 11.2157 88.749 11.2678 88.8794 11.3096C89.0151 11.3461 89.1455 11.3748 89.2707 11.3957C89.4012 11.4113 89.5133 11.4217 89.6073 11.427C89.8681 11.4426 90.1133 11.4504 90.3429 11.4504C90.4003 11.4504 90.5099 11.4504 90.6716 11.4504C90.8386 11.4452 91.0238 11.4348 91.2273 11.4191C91.2116 11.0852 91.1725 10.7696 91.1099 10.4722C91.0473 10.1748 90.9664 9.89826 90.8673 9.64261C90.7681 9.38696 90.656 9.15739 90.5307 8.95391C90.4107 8.74522 90.2855 8.56522 90.1551 8.41391C90.1029 8.36174 90.0429 8.30696 89.9751 8.24957C89.9125 8.18696 89.842 8.13217 89.7638 8.08522C89.6907 8.03304 89.6125 7.9913 89.529 7.96C89.4455 7.9287 89.3568 7.91304 89.2629 7.91304ZM93.2009 11.4661H93.3731C93.6809 11.4661 93.9574 11.4061 94.2026 11.2861C94.4479 11.1609 94.6644 10.9991 94.8522 10.8009C95.0452 10.5974 95.2122 10.3652 95.3531 10.1043C95.4939 9.84348 95.6166 9.57217 95.7209 9.29043C95.8252 9.00348 95.9139 8.71652 95.987 8.42957C96.06 8.14261 96.1226 7.8713 96.1748 7.61565L97.7244 7.94435C97.6826 8.06956 97.6305 8.2313 97.5679 8.42957C97.5105 8.62783 97.4531 8.84174 97.3957 9.0713C97.3383 9.29565 97.2887 9.52783 97.247 9.76783C97.2052 10.0026 97.1844 10.2217 97.1844 10.4252C97.1844 10.5661 97.1974 10.7043 97.2235 10.84C97.2496 10.9704 97.2939 11.0878 97.3566 11.1922C97.4192 11.2965 97.5052 11.38 97.6148 11.4426C97.7244 11.5052 97.8626 11.5365 98.0296 11.5365C98.2957 11.5365 98.5331 11.4635 98.7418 11.3174C98.9557 11.1713 99.1435 10.9809 99.3052 10.7461C99.4722 10.5113 99.6157 10.2452 99.7357 9.94783C99.8609 9.65043 99.9652 9.34783 100.049 9.04C100.137 8.73217 100.208 8.43478 100.26 8.14783C100.317 7.85565 100.362 7.60261 100.393 7.3887L101.896 7.66261L101.857 7.91304C101.825 8.08522 101.789 8.29391 101.747 8.53913C101.71 8.77913 101.677 9.03739 101.645 9.31391C101.614 9.58522 101.598 9.82783 101.598 10.0417C101.598 10.2348 101.611 10.42 101.637 10.5974C101.669 10.7696 101.716 10.9235 101.778 11.0591C101.846 11.1896 101.932 11.2991 102.037 11.3878C102.146 11.4713 102.279 11.5209 102.436 11.5365C102.535 11.547 102.629 11.5522 102.717 11.5522C102.869 11.5522 103.017 11.5339 103.164 11.4974C103.315 11.4557 103.448 11.3748 103.563 11.2548C103.683 11.1348 103.769 10.9835 103.821 10.8009C103.873 10.6183 103.899 10.4122 103.899 10.1826C103.899 9.88522 103.857 9.56435 103.774 9.22C103.696 8.87565 103.599 8.53913 103.484 8.21043C103.375 7.87652 103.257 7.5687 103.132 7.28696C103.012 7 102.91 6.77304 102.827 6.60609L104.197 5.88609C104.223 5.93826 104.272 6.04 104.345 6.1913C104.418 6.33739 104.502 6.52 104.596 6.73913C104.69 6.95304 104.786 7.19826 104.885 7.47478C104.984 7.74609 105.076 8.03043 105.159 8.32783C105.248 8.62522 105.318 8.93043 105.37 9.24348C105.428 9.55652 105.457 9.86174 105.457 10.1591C105.457 10.6078 105.394 11.0148 105.269 11.38C105.144 11.74 104.956 12.0478 104.705 12.3035C104.455 12.5591 104.142 12.7548 103.766 12.8904C103.401 13.0261 102.976 13.0939 102.49 13.0939H102.436C102.237 13.0939 102.037 13.0626 101.833 13C101.635 12.9374 101.444 12.8539 101.262 12.7496C101.079 12.64 100.91 12.5148 100.753 12.3739C100.597 12.2278 100.464 12.0713 100.354 11.9043C100.041 12.2696 99.6861 12.5591 99.2896 12.773C98.8931 12.987 98.4731 13.0939 98.0296 13.0939C97.8366 13.0939 97.6357 13.0678 97.427 13.0157C97.2235 12.9687 97.0279 12.8957 96.84 12.7965C96.6522 12.6974 96.48 12.5748 96.3235 12.4287C96.1722 12.2826 96.0548 12.113 95.9713 11.92C95.8148 12.087 95.6479 12.2383 95.4705 12.3739C95.2931 12.5043 95.1 12.6165 94.8913 12.7104C94.6826 12.8043 94.4505 12.8774 94.1948 12.9296C93.9444 12.9765 93.6679 13 93.3652 13H93.2009V11.4661Z" fill="white"/>
</svg>
