<svg width="77" height="19" viewBox="0 0 77 19" fill="none" xmlns="http://www.w3.org/2000/svg">
<path d="M3.88348 13C3.30957 13 2.81913 12.9322 2.41217 12.7965C2.01043 12.6609 1.6687 12.4522 1.38696 12.1704C1.21478 11.9983 1.08174 11.813 0.987826 11.6148C0.89913 11.4165 0.831304 11.2209 0.784348 11.0278C0.742609 10.8348 0.71913 10.6522 0.713913 10.48C0.708696 10.3026 0.706087 10.1513 0.706087 10.0261C0.706087 9.98435 0.706087 9.86174 0.706087 9.65826C0.711304 9.44957 0.716522 9.18348 0.721739 8.86C0.726957 8.53652 0.729565 8.16609 0.729565 7.7487C0.729565 7.33652 0.726957 6.90087 0.721739 6.44174C0.721739 5.99304 0.716522 5.52609 0.706087 5.04087C0.695652 4.55565 0.677391 4.08609 0.651304 3.63217C0.630435 3.17826 0.601739 2.76087 0.565217 2.38C0.533913 1.99391 0.494783 1.67826 0.447826 1.43304L1.98174 1.1513C2.0287 1.41739 2.06783 1.74348 2.09913 2.12956C2.13565 2.51565 2.16435 2.93565 2.18522 3.38956C2.2113 3.84348 2.22957 4.31826 2.24 4.81391C2.25565 5.30435 2.26348 5.78435 2.26348 6.25391V10.1826C2.26348 10.36 2.2713 10.527 2.28696 10.6835C2.30783 10.8348 2.37826 10.9678 2.49826 11.0826C2.61826 11.2026 2.79565 11.2965 3.03043 11.3643C3.27043 11.4322 3.55478 11.4661 3.88348 11.4661H4.04V13H3.88348ZM3.7302 11.4661H3.9415C4.25454 11.4661 4.52846 11.4635 4.76324 11.4583C5.00324 11.453 5.21976 11.4452 5.41281 11.4348C5.60585 11.4243 5.78063 11.4113 5.93715 11.3957C6.09889 11.38 6.25541 11.3617 6.40672 11.3409C6.01541 10.9183 5.72063 10.5035 5.52237 10.0965C5.32933 9.68435 5.23281 9.28783 5.23281 8.90696C5.23281 8.64609 5.26672 8.37217 5.33454 8.08522C5.40759 7.79304 5.51715 7.51391 5.66324 7.24783C5.81454 6.97652 6.00237 6.72609 6.22672 6.49652C6.45107 6.26174 6.71976 6.0687 7.03281 5.91739L6.41454 5.67478L7.15802 4.26609L9.8815 5.38522C10.3667 5.59913 10.8337 5.81304 11.2824 6.02696C11.7363 6.24087 12.1537 6.45478 12.5345 6.6687C12.9206 6.88261 13.2598 7.09913 13.5519 7.31826C13.8441 7.53739 14.0711 7.75652 14.2328 7.97565C14.7128 8.64348 14.9528 9.32174 14.9528 10.0104C14.9528 10.527 14.8172 11.007 14.5458 11.4504C14.2798 11.8887 13.8702 12.2565 13.3172 12.5539L13.325 12.5461C13.1789 12.6348 13.0067 12.7104 12.8085 12.773C12.6102 12.8304 12.4015 12.88 12.1824 12.9217C11.9685 12.9583 11.7519 12.9843 11.5328 13C11.3137 13.0157 11.1128 13.0235 10.9302 13.0235C10.4711 13.0235 10.025 12.9896 9.59194 12.9217C9.16411 12.8539 8.72846 12.7313 8.28498 12.5539C8.00846 12.6374 7.69541 12.7078 7.34585 12.7652C7.0015 12.8226 6.63889 12.8696 6.25802 12.9061C5.87715 12.9374 5.48846 12.9609 5.09194 12.9765C4.69541 12.9922 4.31194 13 3.9415 13H3.7302V11.4661ZM11.3685 8.5313C11.3685 8.75043 11.3372 8.98783 11.2745 9.24348C11.2119 9.49913 11.1232 9.75739 11.0085 10.0183C10.8989 10.2739 10.7632 10.527 10.6015 10.7774C10.4398 11.0278 10.2598 11.2574 10.0615 11.4661C10.2285 11.4922 10.3667 11.5078 10.4763 11.513C10.5858 11.5183 10.6876 11.5209 10.7815 11.5209C11.2719 11.5209 11.6893 11.4791 12.0337 11.3957C12.378 11.307 12.6572 11.1896 12.8711 11.0435C13.0902 10.8974 13.2467 10.7278 13.3406 10.5348C13.4398 10.3365 13.4893 10.1304 13.4893 9.91652C13.4893 9.73391 13.4424 9.53565 13.3485 9.32174C13.2545 9.10783 13.1137 8.89391 12.9258 8.68C12.7432 8.46087 12.5137 8.24696 12.2372 8.03826C11.9606 7.82957 11.6372 7.63913 11.2667 7.46696C11.3241 7.66522 11.3554 7.85304 11.3606 8.03043C11.3658 8.20783 11.3685 8.37478 11.3685 8.5313ZM9.76411 8.4687C9.76411 8.31217 9.75107 8.14783 9.72498 7.97565C9.70411 7.79826 9.65455 7.6313 9.57628 7.47478C9.50324 7.31304 9.39628 7.17217 9.25541 7.05217C9.11976 6.92696 8.93976 6.84087 8.71541 6.79391C8.61628 6.77304 8.51976 6.76261 8.42585 6.76261C8.24846 6.76261 8.06063 6.80957 7.86237 6.90348C7.66411 6.99739 7.47628 7.14609 7.29889 7.34957C7.12672 7.55304 6.99107 7.78261 6.89194 8.03826C6.79281 8.29391 6.74324 8.53913 6.74324 8.77391C6.74324 8.99304 6.78237 9.20174 6.86063 9.4C6.93889 9.59826 7.04324 9.78609 7.17368 9.96348C7.30933 10.1357 7.46585 10.3 7.64324 10.4565C7.82063 10.6078 8.00846 10.7487 8.20672 10.8791C8.47281 10.7591 8.70237 10.6078 8.89541 10.4252C9.09368 10.2426 9.25541 10.0443 9.38063 9.83043C9.51107 9.6113 9.60759 9.38435 9.6702 9.14957C9.73281 8.91478 9.76411 8.68783 9.76411 8.4687ZM19.6708 7.91304C19.7438 8.15826 19.8169 8.40087 19.8899 8.64087C19.9629 8.87565 20.0282 9.11304 20.0856 9.35304C20.1482 9.60348 20.2108 9.85652 20.2734 10.1122C20.3412 10.3626 20.4012 10.613 20.4534 10.8635C20.5108 11.1087 20.5577 11.3513 20.5943 11.5913C20.6308 11.8313 20.649 12.0661 20.649 12.2957C20.649 12.7496 20.5812 13.1878 20.4456 13.6104C20.3151 14.0383 20.1299 14.4504 19.8899 14.847C19.6551 15.2435 19.3734 15.6217 19.0447 15.9817C18.7212 16.3417 18.3664 16.6809 17.9803 16.9991C17.5995 17.3174 17.1951 17.6096 16.7673 17.8757C16.3447 18.147 15.9143 18.3896 15.476 18.6035L14.7951 17.2261C15.3429 16.9548 15.8751 16.6391 16.3916 16.2791C16.9082 15.9243 17.3673 15.5357 17.769 15.113C18.176 14.6904 18.5021 14.2417 18.7473 13.767C18.9925 13.2922 19.1151 12.8017 19.1151 12.2957C19.1151 12.1026 19.0969 11.8991 19.0603 11.6852C19.029 11.4713 18.9873 11.2522 18.9351 11.0278C18.8829 10.8035 18.8256 10.5791 18.7629 10.3548C18.7003 10.1304 18.6403 9.9113 18.5829 9.69739C18.4577 9.25913 18.3247 8.82087 18.1838 8.38261L19.6708 7.91304ZM26.4714 13C25.8975 13 25.407 12.9322 25.0001 12.7965C24.5983 12.6609 24.2566 12.4522 23.9748 12.1704C23.8027 11.9983 23.6696 11.813 23.5757 11.6148C23.487 11.4165 23.4192 11.2209 23.3722 11.0278C23.3305 10.8348 23.307 10.6522 23.3018 10.48C23.2966 10.3026 23.294 10.1513 23.294 10.0261C23.294 9.98435 23.294 9.86174 23.294 9.65826C23.2992 9.44957 23.3044 9.18348 23.3096 8.86C23.3148 8.53652 23.3175 8.16609 23.3175 7.7487C23.3175 7.33652 23.3148 6.90087 23.3096 6.44174C23.3096 5.99304 23.3044 5.52609 23.294 5.04087C23.2835 4.55565 23.2653 4.08609 23.2392 3.63217C23.2183 3.17826 23.1896 2.76087 23.1531 2.38C23.1218 1.99391 23.0827 1.67826 23.0357 1.43304L24.5696 1.1513C24.6166 1.41739 24.6557 1.74348 24.687 2.12956C24.7235 2.51565 24.7522 2.93565 24.7731 3.38956C24.7992 3.84348 24.8175 4.31826 24.8279 4.81391C24.8435 5.30435 24.8514 5.78435 24.8514 6.25391V10.1826C24.8514 10.36 24.8592 10.527 24.8748 10.6835C24.8957 10.8348 24.9662 10.9678 25.0862 11.0826C25.2062 11.2026 25.3835 11.2965 25.6183 11.3643C25.8583 11.4322 26.1427 11.4661 26.4714 11.4661H26.6279V13H26.4714ZM26.3181 11.4661H27.2963C27.6094 11.4661 27.9355 11.4635 28.2746 11.4583C28.6137 11.4478 28.9372 11.4165 29.245 11.3643C29.5529 11.307 29.8346 11.2209 30.0903 11.1061C30.3459 10.9861 30.5468 10.8165 30.6929 10.5974C30.865 10.3313 30.9668 10.0443 30.9981 9.73652C31.0033 9.6687 31.0059 9.60087 31.0059 9.53304C31.0059 9.28783 30.9694 9.02435 30.8963 8.74261C30.839 8.5287 30.6955 8.25739 30.4659 7.9287C30.2416 7.59478 29.9624 7.24 29.6285 6.86435C29.2946 6.48348 28.9216 6.09478 28.5094 5.69826C28.0972 5.30174 27.6772 4.9313 27.2494 4.58696L27.4294 2.98261L33.8624 0.227826L34.465 1.65217L28.8616 4.00783C29.1172 4.22696 29.3963 4.47217 29.699 4.74348C30.0016 5.01478 30.3016 5.31478 30.599 5.64348C30.9955 6.08174 31.3216 6.50174 31.5772 6.90348C31.8329 7.3 32.0311 7.67826 32.172 8.03826C32.3129 8.39826 32.4068 8.73739 32.4537 9.05565C32.485 9.26435 32.5007 9.46261 32.5007 9.65043C32.5007 9.76 32.4903 9.9113 32.4694 10.1043C32.4537 10.2922 32.4042 10.5061 32.3207 10.7461C32.2424 10.9861 32.1485 11.2052 32.039 11.4035C31.5746 12.2278 30.7894 12.7417 29.6833 12.9452C29.5007 12.9817 29.2737 13 29.0024 13H26.3181V11.4661ZM48.601 11.4661V13H48.4445C48.2462 13 48.0088 12.9843 47.7323 12.953C47.461 12.9165 47.1897 12.8357 46.9184 12.7104C46.5062 12.5174 46.1619 12.1991 45.8854 11.7557C45.5567 11.8078 45.2514 11.847 44.9697 11.873C44.6932 11.8939 44.4271 11.9043 44.1714 11.9043C42.8254 11.9043 41.8888 11.5783 41.3619 10.9261C41.2158 10.7539 41.1114 10.5661 41.0488 10.3626C40.9914 10.1591 40.9601 9.96087 40.9549 9.76783V9.62696C40.9549 9.48609 40.968 9.34261 40.994 9.19652C41.0201 9.05043 41.0567 8.92261 41.1036 8.81304C41.2445 8.52087 41.4114 8.25217 41.6045 8.00696C41.8027 7.76174 42.0114 7.54261 42.2306 7.34957C42.4549 7.1513 42.6845 6.97652 42.9193 6.82522C43.1593 6.6687 43.3888 6.53304 43.608 6.41826C43.8323 6.29826 44.0436 6.19913 44.2419 6.12087C44.4401 6.03739 44.6123 5.96957 44.7584 5.91739C44.7167 5.52087 44.6854 5.2313 44.6645 5.0487C44.6488 4.86087 44.641 4.76435 44.641 4.75913L46.1749 4.43826V4.43043C46.1801 4.47217 46.1906 4.5687 46.2062 4.72C46.2219 4.86609 46.2401 5.04087 46.261 5.24435C46.2819 5.44261 46.3027 5.65652 46.3236 5.88609C46.3497 6.11043 46.3732 6.32174 46.394 6.52C46.4149 6.71826 46.4332 6.89043 46.4488 7.03652C46.4645 7.18261 46.4749 7.27391 46.4801 7.31043C46.5636 7.98348 46.6393 8.53391 46.7071 8.96174C46.7749 9.38957 46.8349 9.7313 46.8871 9.98696C46.9393 10.2426 46.981 10.4252 47.0123 10.5348C47.0436 10.6391 47.0671 10.707 47.0827 10.7383C47.208 11.02 47.3749 11.213 47.5836 11.3174C47.7923 11.4165 48.0793 11.4661 48.4445 11.4661H48.601ZM44.9384 7.50609C44.8132 7.55826 44.6645 7.62348 44.4923 7.70174C44.3201 7.77478 44.1401 7.86087 43.9523 7.96C43.7697 8.05391 43.5871 8.15826 43.4045 8.27304C43.2271 8.38783 43.0654 8.51304 42.9193 8.6487C42.7784 8.78435 42.6636 8.93043 42.5749 9.08696C42.4862 9.23826 42.4419 9.39739 42.4419 9.56435C42.4419 9.7313 42.494 9.86957 42.5984 9.97913C42.708 10.0887 42.8462 10.1748 43.0132 10.2374C43.1854 10.2948 43.3784 10.3339 43.5923 10.3548C43.7697 10.3757 43.9497 10.3861 44.1323 10.3861C44.1688 10.3861 44.2497 10.3861 44.3749 10.3861C44.5001 10.3809 44.6593 10.3678 44.8523 10.347C45.0506 10.3261 45.2175 10.3026 45.3532 10.2765C45.2906 9.97391 45.2254 9.60348 45.1575 9.16522C45.0949 8.72696 45.0219 8.17391 44.9384 7.50609ZM48.2907 11.4661H49.1986C49.5012 11.4661 49.7803 11.4609 50.036 11.4504C50.2916 11.4348 50.5238 11.3957 50.7325 11.333C50.9412 11.2704 51.1238 11.1791 51.2803 11.0591C51.4368 10.9339 51.5673 10.7617 51.6716 10.5426C51.7238 10.433 51.7629 10.2948 51.789 10.1278C51.8047 10.0183 51.8125 9.90087 51.8125 9.77565C51.8125 9.70783 51.8073 9.60609 51.7968 9.47043C51.7864 9.32957 51.7525 9.13913 51.6951 8.89913C51.6377 8.65391 51.5542 8.39826 51.4447 8.13217L50.7638 6.45739L52.1568 5.7687C52.1568 5.77391 52.1803 5.8287 52.2273 5.93304C52.2742 6.03217 52.3342 6.16783 52.4073 6.34C52.4855 6.51217 52.569 6.71304 52.6577 6.94261C52.7464 7.16696 52.8299 7.40696 52.9081 7.66261C53.1429 8.41913 53.2786 9.08696 53.3151 9.66609C53.3203 9.74957 53.3229 9.83304 53.3229 9.91652C53.3229 10.3913 53.2447 10.8087 53.0881 11.1687C52.9316 11.5235 52.7386 11.8183 52.509 12.053C52.2847 12.2878 52.0238 12.4757 51.7264 12.6165C51.429 12.7574 51.0951 12.8565 50.7247 12.9139C50.3594 12.9713 49.9629 13 49.5351 13H48.2907V11.4661ZM52.0629 3.18609L50.7873 4.46174L49.5038 3.17826L50.7794 1.90261L52.0629 3.18609ZM54.6475 16.9835C55.451 16.8217 56.171 16.5974 56.8075 16.3104C57.4441 16.0235 57.9893 15.7 58.4432 15.34C58.8971 14.98 59.2545 14.5965 59.5154 14.1896C59.7815 13.7878 59.9432 13.3913 60.0006 13H59.6406C59.5154 13 59.338 13 59.1084 13C58.8841 13 58.6284 12.987 58.3415 12.9609C57.2093 12.893 56.3719 12.5226 55.8293 11.8496C55.5893 11.547 55.438 11.1974 55.3754 10.8009C55.3388 10.5922 55.3206 10.3835 55.3206 10.1748C55.3206 9.97652 55.3415 9.72609 55.3832 9.42348C55.4302 9.11565 55.5345 8.7687 55.6962 8.38261C55.858 7.9913 56.0484 7.65478 56.2675 7.37304C56.5336 7.04435 56.8206 6.79652 57.1284 6.62957C57.4415 6.45739 57.7649 6.3713 58.0988 6.3713C58.8397 6.3713 59.5206 6.70522 60.1415 7.37304C60.3606 7.61826 60.5588 7.89478 60.7362 8.20261C60.9136 8.51043 61.0649 8.84174 61.1902 9.19652C61.3154 9.54609 61.4145 9.91391 61.4875 10.3C61.5606 10.6809 61.6023 11.0696 61.6128 11.4661H62.3562V13H61.4954C61.3388 13.7722 61.0545 14.4687 60.6423 15.0896C60.2354 15.7157 59.7397 16.2609 59.1554 16.7252C58.5762 17.1896 57.9293 17.5704 57.2145 17.8678C56.5049 18.1652 55.7693 18.3739 55.0075 18.4939L54.6475 16.9835ZM58.0988 7.91304C57.9475 7.91304 57.8041 7.97304 57.6684 8.09304C57.5328 8.20783 57.4102 8.35652 57.3006 8.53913C57.1962 8.72174 57.1075 8.92783 57.0345 9.15739C56.9615 9.38174 56.9119 9.60348 56.8858 9.82261C56.8702 9.94261 56.8623 10.06 56.8623 10.1748C56.8623 10.2687 56.8702 10.3861 56.8858 10.527C56.9067 10.6626 56.9615 10.7852 57.0502 10.8948C57.1284 10.9991 57.2249 11.0852 57.3397 11.153C57.4597 11.2157 57.5849 11.2678 57.7154 11.3096C57.851 11.3461 57.9815 11.3748 58.1067 11.3957C58.2371 11.4113 58.3493 11.4217 58.4432 11.427C58.7041 11.4426 58.9493 11.4504 59.1788 11.4504C59.2362 11.4504 59.3458 11.4504 59.5075 11.4504C59.6745 11.4452 59.8597 11.4348 60.0632 11.4191C60.0475 11.0852 60.0084 10.7696 59.9458 10.4722C59.8832 10.1748 59.8023 9.89826 59.7032 9.64261C59.6041 9.38696 59.4919 9.15739 59.3667 8.95391C59.2467 8.74522 59.1215 8.56522 58.991 8.41391C58.9388 8.36174 58.8788 8.30696 58.811 8.24957C58.7484 8.18696 58.678 8.13217 58.5997 8.08522C58.5267 8.03304 58.4484 7.9913 58.3649 7.96C58.2815 7.9287 58.1928 7.91304 58.0988 7.91304ZM71.569 11.4661V13H71.3812C70.9951 13 70.6508 12.9374 70.3481 12.8122C70.0508 12.6817 69.8029 12.4861 69.6047 12.2252C69.229 12.7209 68.7725 12.9687 68.2351 12.9687C68.1516 12.9687 68.0655 12.9635 67.9768 12.953C66.9334 12.8226 65.9238 12.4157 64.9481 11.7322C64.8125 11.9461 64.5934 12.1574 64.2908 12.3661C63.696 12.7887 62.9968 13 62.1934 13H62.0368V11.4661H62.2012C62.9316 11.4609 63.5786 11.0826 64.1421 10.3313C64.3247 10.0809 64.5151 9.76522 64.7134 9.38435C64.8751 9.06609 65.0029 8.81304 65.0968 8.62522C65.1908 8.43217 65.2638 8.28609 65.316 8.18696C65.3681 8.08261 65.4047 8.01217 65.4255 7.97565C65.4516 7.93391 65.4725 7.9 65.4881 7.87391C65.7125 7.48783 65.9864 7.17478 66.3099 6.93478C66.6386 6.68957 67.0325 6.56696 67.4916 6.56696C67.8099 6.56696 68.0968 6.61913 68.3525 6.72348C68.6134 6.82783 68.8455 6.9713 69.049 7.15391C69.2525 7.33652 69.4273 7.55043 69.5734 7.79565C69.7247 8.03565 69.8499 8.2913 69.949 8.56261C70.0534 8.83391 70.129 9.11565 70.176 9.40783C70.2281 9.7 70.2594 9.98435 70.2699 10.2609C70.2751 10.4226 70.3038 10.5765 70.356 10.7226C70.4081 10.8687 70.4812 10.9965 70.5751 11.1061C70.669 11.2157 70.7838 11.3043 70.9194 11.3722C71.0551 11.4348 71.209 11.4661 71.3812 11.4661H71.569ZM67.7968 11.4191C67.8908 11.4348 67.9768 11.4426 68.0551 11.4426C68.3421 11.4426 68.5534 11.3435 68.689 11.1452C68.7621 11.0409 68.8168 10.9157 68.8534 10.7696C68.8794 10.6548 68.8925 10.527 68.8925 10.3861V10.2609C68.8821 10.0104 68.8455 9.75739 68.7829 9.50174C68.7255 9.24609 68.6394 9.01652 68.5247 8.81304C68.4151 8.60435 68.2742 8.43478 68.1021 8.30435C67.9299 8.17391 67.7264 8.1087 67.4916 8.1087C67.2151 8.1087 66.9177 8.40087 66.5994 8.98522C66.4429 9.3087 66.3177 9.56696 66.2238 9.76C66.1299 9.94783 66.0568 10.0939 66.0047 10.1983C65.9577 10.2974 65.9238 10.3652 65.9029 10.4017C65.8873 10.4383 65.8742 10.467 65.8638 10.4878C66.2551 10.7539 66.6099 10.9626 66.9281 11.1139C67.2516 11.2652 67.5412 11.367 67.7968 11.4191ZM71.2478 11.4661H72.1556C72.4582 11.4661 72.7373 11.4609 72.993 11.4504C73.2486 11.4348 73.4808 11.3957 73.6895 11.333C73.8982 11.2704 74.0808 11.1791 74.2373 11.0591C74.3939 10.9339 74.5243 10.7617 74.6286 10.5426C74.6808 10.433 74.7199 10.2948 74.746 10.1278C74.7617 10.0183 74.7695 9.90087 74.7695 9.77565C74.7695 9.70783 74.7643 9.60609 74.7539 9.47043C74.7434 9.32957 74.7095 9.13913 74.6521 8.89913C74.5947 8.65391 74.5113 8.39826 74.4017 8.13217L73.7208 6.45739L75.1139 5.7687C75.1139 5.77391 75.1373 5.8287 75.1843 5.93304C75.2313 6.03217 75.2913 6.16783 75.3643 6.34C75.4426 6.51217 75.526 6.71304 75.6147 6.94261C75.7034 7.16696 75.7869 7.40696 75.8652 7.66261C76.0999 8.41913 76.2356 9.08696 76.2721 9.66609C76.2773 9.74957 76.2799 9.83304 76.2799 9.91652C76.2799 10.3913 76.2017 10.8087 76.0452 11.1687C75.8886 11.5235 75.6956 11.8183 75.466 12.053C75.2417 12.2878 74.9808 12.4757 74.6834 12.6165C74.386 12.7574 74.0521 12.8565 73.6817 12.9139C73.3165 12.9713 72.9199 13 72.4921 13H71.2478V11.4661ZM75.0199 3.18609L73.7443 4.46174L72.4608 3.17826L73.7365 1.90261L75.0199 3.18609Z" fill="white"/>
</svg>
