<svg width="66" height="19" viewBox="0 0 66 19" fill="none" xmlns="http://www.w3.org/2000/svg">
<path d="M5.8913 11.46C5.8913 12.1435 5.74522 12.7957 5.45304 13.4165C5.16087 14.0374 4.77217 14.6139 4.28696 15.1461C3.80696 15.6835 3.25652 16.1739 2.63565 16.6174C2.01478 17.0609 1.37565 17.447 0.718261 17.7757L0.0452173 16.3904C0.42087 16.1974 0.793913 15.9835 1.16435 15.7487C1.53478 15.5191 1.88435 15.2713 2.21304 15.0052C2.54174 14.7391 2.84435 14.4574 3.12087 14.16C3.39739 13.8678 3.62957 13.56 3.81739 13.2365C4.01043 12.913 4.15391 12.5765 4.24783 12.227C4.31565 11.9765 4.34957 11.7209 4.34957 11.46C4.34957 11.3557 4.34435 11.2591 4.33391 11.1704C4.29739 10.873 4.24 10.5548 4.16174 10.2157C4.0887 9.8713 4.00783 9.53478 3.91913 9.20609C3.83043 8.87739 3.74174 8.56957 3.65304 8.28261C3.56435 7.99043 3.4887 7.74783 3.42609 7.55478L4.89739 7.10087C5.09565 7.70609 5.2887 8.22261 5.47652 8.65043C5.66435 9.07304 5.85739 9.42 6.05565 9.6913C6.25391 9.95739 6.46 10.153 6.67391 10.2783C6.89304 10.4035 7.13304 10.4661 7.39391 10.4661H7.51913V12H7.38609C7.31304 12 7.21913 11.9974 7.10435 11.9922C6.98957 11.987 6.86174 11.9661 6.72087 11.9296C6.58522 11.893 6.44435 11.8357 6.29826 11.7574C6.15739 11.6791 6.02174 11.5696 5.8913 11.4287V11.46ZM5.36696 3.70435L4.0913 4.98L2.80783 3.69652L4.08348 2.42087L5.36696 3.70435ZM7.22434 10.4661H8.73477C9.03738 10.4661 9.33216 10.4609 9.61912 10.4504C9.90608 10.4348 10.1722 10.3957 10.4174 10.333C10.6626 10.2704 10.8791 10.1791 11.0669 10.0591C11.2548 9.93391 11.4009 9.76174 11.5052 9.54261C11.5574 9.43304 11.5965 9.29478 11.6226 9.12783C11.6383 9.01826 11.6461 8.90087 11.6461 8.77565C11.6461 8.70783 11.6409 8.60609 11.6304 8.47043C11.62 8.32957 11.5861 8.13913 11.5287 7.89913C11.4713 7.65391 11.3878 7.39826 11.2783 7.13217L10.5974 5.45739L11.9904 4.7687C11.9904 4.77391 12.0139 4.8287 12.0609 4.93304C12.1078 5.03217 12.1678 5.16783 12.2409 5.34C12.3191 5.51217 12.4026 5.71304 12.4913 5.94261C12.58 6.16696 12.6635 6.40696 12.7417 6.66261C12.9765 7.41913 13.1122 8.08696 13.1487 8.66609C13.1539 8.74957 13.1565 8.83304 13.1565 8.91652C13.1565 9.3913 13.0783 9.8087 12.9217 10.1687C12.7652 10.5235 12.5565 10.8183 12.2956 11.053C12.04 11.2878 11.7452 11.4757 11.4113 11.6165C11.0774 11.7574 10.7096 11.8565 10.3078 11.9139C9.91129 11.9713 9.49912 12 9.07129 12H7.22434V10.4661ZM10.5426 2.1L9.27477 3.36783L7.99129 2.09217L9.25912 0.816522L10.5426 2.1ZM13.7513 2.10783L12.4835 3.38348L11.2 2.1L12.4678 0.832173L13.7513 2.10783ZM18.0266 6.91304C17.8753 6.91304 17.7318 6.97304 17.5961 7.09304C17.4605 7.20783 17.3379 7.35652 17.2283 7.53913C17.124 7.72174 17.0353 7.92783 16.9622 8.15739C16.8892 8.38174 16.8396 8.60348 16.8135 8.82261C16.7979 8.94261 16.79 9.06 16.79 9.17478C16.79 9.2687 16.7979 9.38609 16.8135 9.52696C16.8344 9.66261 16.8892 9.78522 16.9779 9.89478C17.0561 9.99913 17.1527 10.0852 17.2674 10.153C17.3874 10.2157 17.5127 10.2678 17.6431 10.3096C17.7787 10.3461 17.9092 10.3748 18.0344 10.3957C18.1648 10.4113 18.277 10.4217 18.3709 10.427C18.6318 10.4426 18.877 10.4504 19.1066 10.4504C19.164 10.4504 19.2735 10.4504 19.4353 10.4504C19.6022 10.4452 19.7874 10.4348 19.9909 10.4191C19.9753 10.0852 19.9361 9.76957 19.8735 9.47217C19.8109 9.17478 19.73 8.89826 19.6309 8.64261C19.5318 8.38696 19.4196 8.15739 19.2944 7.95391C19.1744 7.74522 19.0492 7.56522 18.9187 7.41391C18.8666 7.36174 18.8066 7.30696 18.7387 7.24957C18.6761 7.18696 18.6057 7.13217 18.5274 7.08522C18.4544 7.03304 18.3761 6.9913 18.2927 6.96C18.2092 6.9287 18.1205 6.91304 18.0266 6.91304ZM14.5753 15.9835C15.3787 15.8217 16.0987 15.5974 16.7353 15.3104C17.3718 15.0235 17.917 14.7 18.3709 14.34C18.8248 13.98 19.1822 13.5965 19.4431 13.1896C19.7092 12.7878 19.8709 12.3913 19.9283 12H19.5683C19.4431 12 19.2657 12 19.0361 12C18.8118 12 18.5561 11.987 18.2692 11.9609C17.137 11.893 16.2996 11.5226 15.757 10.8496C15.517 10.547 15.3657 10.1974 15.3031 9.80087C15.2666 9.59217 15.2483 9.38348 15.2483 9.17478C15.2483 8.97652 15.2692 8.72609 15.3109 8.42348C15.3579 8.11565 15.4622 7.7687 15.624 7.38261C15.7857 6.9913 15.9761 6.65478 16.1953 6.37304C16.4614 6.04435 16.7483 5.79652 17.0561 5.62957C17.3692 5.45739 17.6927 5.3713 18.0266 5.3713C18.7674 5.3713 19.4483 5.70522 20.0692 6.37304C20.3353 6.66522 20.5674 7.00435 20.7657 7.39043C20.9692 7.7713 21.1335 8.18087 21.2587 8.61913C21.384 9.05739 21.47 9.51391 21.517 9.9887C21.5379 10.213 21.5483 10.4374 21.5483 10.6617C21.5483 10.9122 21.5353 11.1626 21.5092 11.413C21.4518 11.987 21.324 12.5217 21.1257 13.0174C20.9274 13.5183 20.6744 13.98 20.3666 14.4026C20.0587 14.8252 19.7014 15.2087 19.2944 15.553C18.8927 15.8974 18.457 16.1974 17.9874 16.453C17.5231 16.7139 17.0327 16.9304 16.5161 17.1026C15.9996 17.28 15.4727 17.4104 14.9353 17.4939L14.5753 15.9835ZM27.3015 11.46C27.3015 12.1435 27.1554 12.7957 26.8632 13.4165C26.571 14.0374 26.1823 14.6139 25.6971 15.1461C25.2171 15.6835 24.6667 16.1739 24.0458 16.6174C23.4249 17.0609 22.7858 17.447 22.1284 17.7757L21.4554 16.3904C21.831 16.1974 22.2041 15.9835 22.5745 15.7487C22.9449 15.5191 23.2945 15.2713 23.6232 15.0052C23.9519 14.7391 24.2545 14.4574 24.531 14.16C24.8075 13.8678 25.0397 13.56 25.2275 13.2365C25.4206 12.913 25.5641 12.5765 25.658 12.227C25.7258 11.9765 25.7597 11.7209 25.7597 11.46C25.7597 11.3557 25.7545 11.2591 25.7441 11.1704C25.7075 10.873 25.6502 10.5548 25.5719 10.2157C25.4989 9.8713 25.418 9.53478 25.3293 9.20609C25.2406 8.87739 25.1519 8.56957 25.0632 8.28261C24.9745 7.99043 24.8989 7.74783 24.8362 7.55478L26.3075 7.10087C26.5058 7.70609 26.6989 8.22261 26.8867 8.65043C27.0745 9.07304 27.2675 9.42 27.4658 9.6913C27.6641 9.95739 27.8702 10.153 28.0841 10.2783C28.3032 10.4035 28.5432 10.4661 28.8041 10.4661H28.9293V12H28.7962C28.7232 12 28.6293 11.9974 28.5145 11.9922C28.3997 11.987 28.2719 11.9661 28.131 11.9296C27.9954 11.893 27.8545 11.8357 27.7084 11.7574C27.5675 11.6791 27.4319 11.5696 27.3015 11.4287V11.46ZM28.6345 10.4661H30.1449C30.4475 10.4661 30.7423 10.4609 31.0293 10.4504C31.3162 10.4348 31.5823 10.3957 31.8275 10.333C32.0728 10.2704 32.2893 10.1791 32.4771 10.0591C32.6649 9.93391 32.811 9.76174 32.9154 9.54261C32.9675 9.43304 33.0067 9.29478 33.0328 9.12783C33.0484 9.01826 33.0562 8.90087 33.0562 8.77565C33.0562 8.70783 33.051 8.60609 33.0406 8.47043C33.0301 8.32957 32.9962 8.13913 32.9388 7.89913C32.8815 7.65391 32.798 7.39826 32.6884 7.13217L32.0075 5.45739L33.4006 4.7687C33.4006 4.77391 33.4241 4.8287 33.471 4.93304C33.518 5.03217 33.578 5.16783 33.651 5.34C33.7293 5.51217 33.8128 5.71304 33.9015 5.94261C33.9901 6.16696 34.0736 6.40696 34.1519 6.66261C34.3867 7.41913 34.5223 8.08696 34.5588 8.66609C34.5641 8.74957 34.5667 8.83304 34.5667 8.91652C34.5667 9.3913 34.4884 9.8087 34.3319 10.1687C34.1754 10.5235 33.9667 10.8183 33.7058 11.053C33.4501 11.2878 33.1554 11.4757 32.8215 11.6165C32.4875 11.7574 32.1197 11.8565 31.718 11.9139C31.3215 11.9713 30.9093 12 30.4815 12H28.6345V10.4661ZM33.4788 13.5261L34.7467 14.7939L33.4632 16.0774L32.1954 14.8096L33.4788 13.5261ZM30.0588 13.5339L31.3267 14.8096L30.0432 16.093L28.7754 14.8174L30.0588 13.5339ZM31.7962 16.007L32.9545 17.1652L31.7884 18.3313L30.6301 17.173L31.7962 16.007ZM47.312 17.5174C46.8059 17.5174 46.3051 17.4652 45.8094 17.3609C45.319 17.2565 44.8546 17.1 44.4164 16.8913C43.9833 16.6878 43.5868 16.4348 43.2268 16.1322C42.8668 15.8296 42.5616 15.48 42.3112 15.0835C42.0607 14.6922 41.8781 14.2539 41.7633 13.7687C41.6799 13.4348 41.6381 13.0774 41.6381 12.6965C41.6381 12.5348 41.6459 12.3678 41.6616 12.1957C41.719 11.5487 41.8625 10.9617 42.092 10.4348C42.3268 9.90783 42.6242 9.43826 42.9842 9.02609C43.3494 8.61391 43.7668 8.25652 44.2364 7.95391C44.7112 7.64609 45.2146 7.38783 45.7468 7.17913C45.3659 6.91304 45.0738 6.60783 44.8703 6.26348C44.672 5.91913 44.552 5.52261 44.5103 5.07391C44.4842 4.91217 44.4712 4.75565 44.4712 4.60435C44.4712 4.28087 44.539 3.93391 44.6746 3.56348C44.8103 3.19304 45.0372 2.83826 45.3555 2.49913C45.6738 2.16 46.0494 1.88609 46.4825 1.67739C46.9155 1.4687 47.3642 1.35391 47.8286 1.33304H47.9851C48.7364 1.33304 49.5059 1.58348 50.2938 2.08435C50.4399 2.17826 50.5703 2.27217 50.6851 2.36609C50.8051 2.45478 50.9042 2.53565 50.9825 2.6087C51.0659 2.68174 51.1312 2.74435 51.1781 2.79652C51.2303 2.84348 51.2642 2.86956 51.2799 2.87478L50.1529 3.94696C49.9964 3.81652 49.8346 3.68348 49.6677 3.54783C49.5007 3.41217 49.3233 3.29217 49.1355 3.18783C48.9529 3.08348 48.7599 3 48.5564 2.93739C48.4051 2.89043 48.2459 2.86696 48.079 2.86696C48.0216 2.86696 47.9642 2.86956 47.9068 2.87478C47.6407 2.89565 47.3851 2.95565 47.1399 3.05478C46.8999 3.1487 46.6912 3.28174 46.5138 3.45391C46.3416 3.62609 46.2112 3.83478 46.1225 4.08C46.0599 4.25217 46.0286 4.44 46.0286 4.64348C46.0286 4.73217 46.0338 4.82609 46.0442 4.92522C46.0807 5.22261 46.1877 5.47043 46.3651 5.6687C46.5477 5.86696 46.7799 6.02087 47.0616 6.13043C47.3433 6.24 47.6668 6.30522 48.032 6.32609C48.1468 6.33652 48.2616 6.34174 48.3764 6.34174C48.632 6.34174 48.9007 6.32087 49.1825 6.27913L50.9825 5.99739L51.3112 7.5C51.3007 7.5 51.2433 7.51043 51.139 7.5313C51.0399 7.54696 50.899 7.57043 50.7164 7.60174C50.539 7.62783 50.3277 7.66174 50.0825 7.70348C49.8425 7.74522 49.579 7.78957 49.292 7.83652C48.8381 7.90957 48.4416 7.98261 48.1025 8.05565C47.7686 8.1287 47.4659 8.20696 47.1946 8.29043C46.9286 8.37391 46.6833 8.46522 46.459 8.56435C46.2346 8.65826 46.0051 8.76261 45.7703 8.87739C45.6451 8.93478 45.4964 9.01304 45.3242 9.11217C45.1572 9.2113 44.9825 9.33391 44.7999 9.48C44.6172 9.62609 44.4346 9.79304 44.252 9.98087C44.0746 10.1687 43.9103 10.38 43.759 10.6148C43.6129 10.8443 43.4877 11.1 43.3833 11.3817C43.2842 11.6635 43.2242 11.9661 43.2033 12.2896C43.1981 12.373 43.1955 12.4539 43.1955 12.5322C43.1955 13.0643 43.3103 13.547 43.5399 13.98C43.7694 14.4183 44.0981 14.7887 44.5259 15.0913C44.959 15.3939 45.4572 15.6104 46.0207 15.7409C46.4486 15.84 46.8868 15.8896 47.3355 15.8896C47.4816 15.8896 47.7399 15.8765 48.1103 15.8504C48.4859 15.8296 48.9659 15.7096 49.5503 15.4904C50.1399 15.2765 50.6746 14.9713 51.1546 14.5748L52.0546 15.8739C51.6268 16.2287 51.2068 16.513 50.7946 16.727C50.3825 16.9409 49.9781 17.1052 49.5816 17.22C49.1851 17.34 48.7964 17.4183 48.4155 17.4548C48.0399 17.4965 47.672 17.5174 47.312 17.5174ZM53.4307 15.9835C54.2342 15.8217 54.9542 15.5974 55.5907 15.3104C56.2273 15.0235 56.7725 14.7 57.2264 14.34C57.6803 13.98 58.0377 13.5965 58.2986 13.1896C58.5647 12.7878 58.7264 12.3913 58.7838 12H58.4238C58.2986 12 58.1212 12 57.8916 12C57.6673 12 57.4116 11.987 57.1247 11.9609C55.9925 11.893 55.1551 11.5226 54.6125 10.8496C54.3725 10.547 54.2212 10.1974 54.1586 9.80087C54.1221 9.59217 54.1038 9.38348 54.1038 9.17478C54.1038 8.97652 54.1247 8.72609 54.1664 8.42348C54.2134 8.11565 54.3177 7.7687 54.4794 7.38261C54.6412 6.9913 54.8316 6.65478 55.0507 6.37304C55.3168 6.04435 55.6038 5.79652 55.9116 5.62957C56.2247 5.45739 56.5481 5.3713 56.8821 5.3713C57.6229 5.3713 58.3038 5.70522 58.9247 6.37304C59.1438 6.61826 59.3421 6.89478 59.5194 7.20261C59.6968 7.51043 59.8481 7.84174 59.9734 8.19652C60.0986 8.54609 60.1977 8.91391 60.2707 9.3C60.3438 9.68087 60.3855 10.0696 60.396 10.4661H61.1394V12H60.2786C60.1221 12.7722 59.8377 13.4687 59.4255 14.0896C59.0186 14.7157 58.5229 15.2609 57.9386 15.7252C57.3594 16.1896 56.7125 16.5704 55.9977 16.8678C55.2881 17.1652 54.5525 17.3739 53.7907 17.4939L53.4307 15.9835ZM56.8821 6.91304C56.7307 6.91304 56.5873 6.97304 56.4516 7.09304C56.316 7.20783 56.1934 7.35652 56.0838 7.53913C55.9794 7.72174 55.8907 7.92783 55.8177 8.15739C55.7447 8.38174 55.6951 8.60348 55.669 8.82261C55.6534 8.94261 55.6455 9.06 55.6455 9.17478C55.6455 9.2687 55.6534 9.38609 55.669 9.52696C55.6899 9.66261 55.7447 9.78522 55.8334 9.89478C55.9116 9.99913 56.0081 10.0852 56.1229 10.153C56.2429 10.2157 56.3681 10.2678 56.4986 10.3096C56.6342 10.3461 56.7647 10.3748 56.8899 10.3957C57.0203 10.4113 57.1325 10.4217 57.2264 10.427C57.4873 10.4426 57.7325 10.4504 57.9621 10.4504C58.0194 10.4504 58.129 10.4504 58.2907 10.4504C58.4577 10.4452 58.6429 10.4348 58.8464 10.4191C58.8307 10.0852 58.7916 9.76957 58.729 9.47217C58.6664 9.17478 58.5855 8.89826 58.4864 8.64261C58.3873 8.38696 58.2751 8.15739 58.1499 7.95391C58.0299 7.74522 57.9047 7.56522 57.7742 7.41391C57.7221 7.36174 57.6621 7.30696 57.5942 7.24957C57.5316 7.18696 57.4612 7.13217 57.3829 7.08522C57.3099 7.03304 57.2316 6.9913 57.1481 6.96C57.0647 6.9287 56.976 6.91304 56.8821 6.91304ZM60.82 10.4661H61.7279C62.0305 10.4661 62.3096 10.4609 62.5653 10.4504C62.8209 10.4348 63.0531 10.3957 63.2618 10.333C63.4705 10.2704 63.6531 10.1791 63.8096 10.0591C63.9661 9.93391 64.0966 9.76174 64.2009 9.54261C64.2531 9.43304 64.2922 9.29478 64.3183 9.12783C64.334 9.01826 64.3418 8.90087 64.3418 8.77565C64.3418 8.70783 64.3366 8.60609 64.3261 8.47043C64.3157 8.32957 64.2818 8.13913 64.2244 7.89913C64.167 7.65391 64.0835 7.39826 63.974 7.13217L63.2931 5.45739L64.6861 4.7687C64.6861 4.77391 64.7096 4.8287 64.7566 4.93304C64.8035 5.03217 64.8635 5.16783 64.9366 5.34C65.0148 5.51217 65.0983 5.71304 65.187 5.94261C65.2757 6.16696 65.3592 6.40696 65.4374 6.66261C65.6722 7.41913 65.8079 8.08696 65.8444 8.66609C65.8496 8.74957 65.8522 8.83304 65.8522 8.91652C65.8522 9.3913 65.774 9.8087 65.6174 10.1687C65.4609 10.5235 65.2679 10.8183 65.0383 11.053C64.814 11.2878 64.5531 11.4757 64.2557 11.6165C63.9583 11.7574 63.6244 11.8565 63.254 11.9139C62.8887 11.9713 62.4922 12 62.0644 12H60.82V10.4661ZM64.5922 2.18609L63.3166 3.46174L62.0331 2.17826L63.3087 0.902608L64.5922 2.18609Z" fill="white"/>
</svg>
