<svg xmlns="http://www.w3.org/2000/svg" width="218.964" height="50.017" viewBox="0 0 218.964 50.017"><g transform="translate(0 0.02)"><g transform="translate(0 -0.02)"><path d="M7.324,46.547c68.056,7.838,136.1-9.465,204.157-1.633,3.525.408,6.394-.68,6.394-2.525V7.163c-.158-1.966-2.749-3.649-6.394-4.153C143.425-4.828,75.379,12.475,7.324,4.637,3.788,4.229.93,5.318.93,7.163V42.394c.154,1.966,2.747,3.651,6.394,4.153Z" transform="translate(0 0.02)" fill="#1b99da"/><path d="M7.5,85.83c-.82-.18-.56,0-.69,0C8.19,86.12,7.47,85.78,7.5,85.83Z" transform="translate(0 -39.933)" fill="#1b99da"/><path d="M21.13,87.75l-.25.04,2.03.07Z" transform="translate(0 -39.933)" fill="#1b99da"/><path d="M33.93,88.88a17.9,17.9,0,0,0-3.06-.27c-1.29-.07-2.72-.13-3.86-.28l-.37-.09-1.05.14Z" transform="translate(8.883 -39.933)" fill="#1b99da"/><path d="M40.77,89.74c-.43-.11,1.48-.06-1.61-.06h.29Z" transform="translate(13.048 -39.933)" fill="#1b99da"/><path d="M39.45,89.71C38.1,89.71,40.34,89.82,39.45,89.71Z" transform="translate(12.906 -39.933)" fill="#1b99da"/><path d="M45.72,89.72l-1.79.11c.37.06,2,.06,1.37.12C47.14,89.88,46.76,89.82,45.72,89.72Z" transform="translate(1.895 -39.933)" fill="#1b99da"/><path d="M47.41,89.49l-.93.05a2.65,2.65,0,0,0,.93-.05Z" transform="translate(1.988 -39.933)" fill="#1b99da"/><path d="M44.52,89.65l2-.11a1.3,1.3,0,0,0-.9,0C45.74,89.5,45.36,89.58,44.52,89.65Z" transform="translate(1.914 -39.933)" fill="#1b99da"/><path d="M43.41,89.6c-1-.08-2.29-.14-.5-.21C39.5,89.37,40,89.58,43.41,89.6Z" transform="translate(1.752 -39.933)" fill="#1b99da"/><path d="M34.6,88.62l-1.33-.15H32.12C32.69,88.49,34.68,88.71,34.6,88.62Z" transform="translate(10.747 -39.933)" fill="#1b99da"/><path d="M56.84,89.58c.11-.07-.61-.13-.74-.2l-1.32.12A16.339,16.339,0,0,1,56.84,89.58Z" transform="translate(2.356 -39.933)" fill="#1b99da"/><path d="M56.1,89.38l2-.21C56.3,89.25,56,89.32,56.1,89.38Z" transform="translate(2.412 -39.933)" fill="#1b99da"/><path d="M47.72,89.17l-3.23.25,3.86-.25Z" transform="translate(1.93 -39.933)" fill="#1b99da"/><path d="M64.36,89.13l-1.11.22,1.97-.36Z" transform="translate(2.719 -39.933)" fill="#1b99da"/><path d="M69.33,88.72c-.81.19,1.15.09.29.24,1.34-.14,2.49-.35,3.52-.53A36.548,36.548,0,0,1,69.33,88.72Z" transform="translate(3.001 -39.933)" fill="#1b99da"/><path d="M74.87,88.13l-1.73.3C73.72,88.35,74.3,88.26,74.87,88.13Z" transform="translate(3.141 -39.933)" fill="#1b99da"/><path d="M61.41,89a5.53,5.53,0,0,0,1.56.08L62.19,89Z" transform="translate(2.635 -39.933)" fill="#1b99da"/><path d="M62.16,89h0l1.67-.11Z" transform="translate(2.668 -39.933)" fill="#1b99da"/><path d="M61.22,89h.19a.41.41,0,0,0-.19,0Z" transform="translate(2.61 -39.933)" fill="#1b99da"/><path d="M52.89,89.21c1.15-.13,3.56-.32,1.22-.38C53.28,89,54.62,89,52.89,89.21Z" transform="translate(2.276 -39.933)" fill="#1b99da"/><path d="M60.24,88.86l-2.09.08c.05,0,.43.09-.14.17Z" transform="translate(2.497 -39.933)" fill="#1b99da"/><path d="M61.26,88.75l-1.02.11.78-.03Z" transform="translate(2.578 -39.933)" fill="#1b99da"/><path d="M71.29,88.31c.89-.16,1.87-.26,3-.37-1.19.08-2.43.17-3.6.28C70.51,88.29,70,88.43,71.29,88.31Z" transform="translate(3.056 -39.933)" fill="#1b99da"/><path d="M66.85,88.64h.2C66.93,88.61,66.83,88.61,66.85,88.64Z" transform="translate(2.85 -39.933)" fill="#1b99da"/><path d="M85.19,86.74h0Z" transform="translate(3.623 -39.933)" fill="#1b99da"/><path d="M70.47,88.2a12.47,12.47,0,0,0-1.93.24l2.13-.22C70.75,88.19,70.76,88.17,70.47,88.2Z" transform="translate(2.95 -39.933)" fill="#1b99da"/><path d="M77.91,87.73l-1.56.07A9.57,9.57,0,0,0,77.91,87.73Z" transform="translate(3.276 -39.933)" fill="#1b99da"/><path d="M67.36,88.64h-.14C67.52,88.67,67.48,88.66,67.36,88.64Z" transform="translate(2.866 -39.933)" fill="#1b99da"/><path d="M67.36,88.64c.46-.06.82-.13,1.18-.2l-1.49.17Z" transform="translate(2.876 -39.933)" fill="#1b99da"/><path d="M88.35,85.26a15.7,15.7,0,0,1-4.5.67c-2,.35-.62.72,1.16.8,0-.07,0-.13,2.08-.47-.73,0-4.57.33-2.86,0A18.47,18.47,0,0,1,87.79,86c-1.14-.06,3.42-.72,2.79-.93l-2.36.39S89,85.22,88.35,85.26Z" transform="translate(3.665 -39.933)" fill="#1b99da"/><path d="M81.1,87.17l-.84.12c1-.08,1.66-.1,2.94-.13a7.29,7.29,0,0,0,1.8-.39l-4.16.46Z" transform="translate(3.497 -39.933)" fill="#1b99da"/><path d="M76.46,87.69c.64-.25,2.66-.53,1.4-.59a26.81,26.81,0,0,0-3.19.56c4-.46-1.14.22,1.76,0-.78.11-1.49.2-2.16.27l2.08-.14h-.02a.44.44,0,0,1,.17-.08c1.16-.09.19,0-.17.08h-.05l4-.51C79.41,87.35,78.34,87.47,76.46,87.69Z" transform="translate(3.256 -39.933)" fill="#1b99da"/><path d="M56.24,88.38h.13C56.63,88.38,56.73,88.36,56.24,88.38Z" transform="translate(2.399 -39.933)" fill="#1b99da"/><path d="M57.9,88.39a9.29,9.29,0,0,1-1.48.16c-.83,0,0-.08-.05-.14-.57.08-2,.2-.2.22h.29a24.88,24.88,0,0,1,3.43.11,9.791,9.791,0,0,0-1.99-.35Z" transform="translate(2.407 -39.933)" fill="#1b99da"/><path d="M67.29,88.11c1.12-.1,2.23-.25,3.34-.37H68.92l.09.08C67.11,88,67.52,88,67.29,88.11Z" transform="translate(2.912 -39.933)" fill="#1b99da"/><path d="M85.58,86.78l-.42.24,1.89-.48Z" transform="translate(3.66 -39.933)" fill="#1b99da"/><path d="M89.9,86.23l-.14.18,1.13-.24Z" transform="translate(3.843 -39.933)" fill="#1b99da"/><path d="M155.28,2.08l-1,.08C154.77,2.13,155.06,2.11,155.28,2.08Z" transform="translate(6.602 0.02)" fill="#1b99da"/><path d="M162.38,1.92l.17-.08C162.22,1.88,162.09,1.92,162.38,1.92Z" transform="translate(6.919 0.02)" fill="#1b99da"/><path d="M196,81.45c1.38.38,2.88.94,2.75.73l-.4-.26C197.37,81.77,196.63,81.57,196,81.45Z" transform="translate(8.944 -39.933)" fill="#1b99da"/><path d="M208.89,19.61v.42l.16,1Z" transform="translate(8.944 -8.837)" fill="#1b99da"/><path d="M208.17,18.6l.11-1.89C208.24,17.13,208.21,17.74,208.17,18.6Z" transform="translate(8.944 -7.569)" fill="#1b99da"/><path d="M116.64,5.86l-1.12.32C117.3,6,116.51,6,116.64,5.86Z" transform="translate(4.948 0.02)" fill="#1b99da"/><path d="M134.12,80.63c1.24-.06,2.22-.12,3.08-.19a13.57,13.57,0,0,0-3.08.19Z" transform="translate(5.797 -39.933)" fill="#1b99da"/><path d="M158,.15c-.6.05-.86.09-.84.13C157.8.23,158.15.19,158,.15Z" transform="translate(6.721 0.02)" fill="#1b99da"/><path d="M140.75,80.11h-.65c-.9.11-1.8.22-2.9.31A22.23,22.23,0,0,0,140.75,80.11Z" transform="translate(5.944 -39.933)" fill="#1b99da"/><path d="M1.92,34.53v0Z" transform="translate(0 -15.378)" fill="#1b99da"/><path d="M.17,75.66V73.97A14.829,14.829,0,0,0,.17,75.66Z" transform="translate(0 -39.823)" fill="#1b99da"/><path d="M107.29,84C106.38,84.13,107.15,84,107.29,84Z" transform="translate(4.56 -39.933)" fill="#1b99da"/><path d="M102.75,84a.78.78,0,0,0,.36-.13,1,1,0,0,1-.36.13Z" transform="translate(4.383 -39.933)" fill="#1b99da"/><path d="M149.83,78.38h.08C149.64,78.35,149.68,78.36,149.83,78.38Z" transform="translate(6.382 -39.847)" fill="#1b99da"/><path d="M105.91,84.15l1.17-.11Z" transform="translate(4.536 -39.933)" fill="#1b99da"/><path d="M106.1,84.2l-.8.09C105.19,84.34,105.29,84.34,106.1,84.2Z" transform="translate(4.501 -39.933)" fill="#1b99da"/><path d="M108.57,83.86l-1.49.18h.21Z" transform="translate(4.593 -39.933)" fill="#1b99da"/><path d="M51.35,12h-.2C50.22,12.11,50.63,12.08,51.35,12Z" transform="translate(2.163 -0.07)" fill="#1b99da"/><path d="M208.12,68.81Z" transform="translate(8.944 -30.546)" fill="#1b99da"/><path d="M208,65.5a14.669,14.669,0,0,1,.15,3.28l.5-1.1Z" transform="translate(8.944 -30.177)" fill="#1b99da"/><path d="M144.2,1.745h2.429c-2.888.273-5,.321-2.721.332a31.576,31.576,0,0,1,4.827-.38,34.355,34.355,0,0,0,4.838-.342h1.6l-.98.037c3.128.053,2.283-.273,6.256-.348,1.387,0,2.367.027,1.418.075L164.99,1c.907,0,.688.043-.209.053,1.574-.043,3.128-.059,4.733-.07h0c.678-.048,2.21-.128,2.961-.16,1.2.037-.6.032-.3.07.876-.032,1.752-.048,2.627-.059,1.043.091-1.105.118-2.919.128,2.44.273,2.179-.064,7.444.15h-2.471c.89.09,1.793.142,2.7.155,1.043.043,2.2.086,3.587.171-.688-.064-5.6-.374-2.773-.374,1.129.059,2.264.08,3.4.064a25.281,25.281,0,0,0,3.368.176l-.146.134c1.022.019,2.046.005,3.065-.043a13.9,13.9,0,0,1,3.2.364c3.576.241-2.44-.316,1.8-.086,1.48.123,2.752.182,4.1.273s2.752.171,4.546.273c2.085.214-.386.053.344.15.626,0,1.251.032,1.866.064.448.048.292.064.209.075,1.564.118.177-.123,2.617.091a6.592,6.592,0,0,1,1.116.08l.907.118c.354.044.7.1,1.043.166a14.019,14.019,0,0,1,3.649,1.31c.354.31-.334-.086-.292.037a4.319,4.319,0,0,1,1.7,1.567,3.473,3.473,0,0,1,.448,1.567l-.177,1.513c.209-1.112.438.3.636,1.551.094-.4.177-.733.219-.957l.146,1.984c0,.241-.136.037-.25-.283l.063.364c-.094.706-.25.342-.4-.171l.167-.711c-.167-.492-.344-.952-.5-.85a2.458,2.458,0,0,0,.073.652c0-.128-.083-.209-.115-.15a2.32,2.32,0,0,0,.1.6l-.3.449.125.112-.188,2.594a43.307,43.307,0,0,1,.855,6.418c-.209-.733-.354-.155-.6-.2.271-.8-.125-2.284-.063-3.808,0,.8-.156.62-.2.417l.25,2.727c-.209-.064-.156.578-.25,1.289.417-.535.282,2.032.407,3.139-.136.07-.281-.2-.25-1.551-.313,1.5.49,1.931.229,3.4a1.64,1.64,0,0,0-.052-.636c.125.77,0,2.674-.1,2.214v-.332c-.052,2.193,0,6.674.354,7.006a1.607,1.607,0,0,1-.5-.422l1.189,3.915c-.3-.348-1.043.979-1.2-.84a11.544,11.544,0,0,0,0,2.268c.052-.353.448-.888.469-.4a23.775,23.775,0,0,0-.469,2.567c0-.251.167-.246.292-.059a.775.775,0,0,1,0,.9c0-.123-.469,0-.386-.278-.107.628-.782,1.195-1.825,1.53.782-.278,0-.182-.782-.128a5.874,5.874,0,0,1-1.46.118c-.488-.011-.973-.045-1.449-.1l-1.23-.123,1.658.225c-1.5-.174-3.022-.276-4.556-.3s-3.048-.114-4.556-.241c.563,0,1.46-.187-.844-.406-.553,0-1.772.064-3.347.091-1.847.062-3.7.062-5.547,0l-.761-.118-3.128-.048q5.2-.227,10.426-.144a27.1,27.1,0,0,0-3.044-.273c-.907-.123,1.428,0,2.2,0l-6.026-.412c.24.15-4.65-.053-4.441.075,2.2.043,4.4.075,6.589.176a8.5,8.5,0,0,1-2.377.107q-2.882.025-5.755-.118c-1.043-.1.855-.219.772-.267-.563,0-4.077-.037-4.462-.08l1.825-.032c-2.388-.1-3.91.07-6.766-.1-1.036-.078-2.081-.121-3.128-.128,1.616.176,1.9.69.824.8l-2.846-.118c-1.4-.043-2.888-.091-3.451-.128-1.626-.123,2.44-.321,1.043-.422a12.544,12.544,0,0,1-1.335.107,9.317,9.317,0,0,0-1.825-.1c-.375.139-4.6.064-1.043.134-2.21.08-2.346,0-4.942.064.834.07-2.294.364-4.494.476.125-.037-.365-.075-.615-.086l-5.682.15c-1.7.043-3.357.091-5.453.193-.386,0-2.419.037-1.574-.064q-1.208.131-2.44.193c-2.523,0,2.888-.16.949-.219-.146.086-3.326.294-5.15.444.594.107,4.254-.214,6.089-.342,0,.171-3.128.535-7.486.845-3.461.246-1.533-.027-2.085.032-6.527.358-5.484.652-10.926.866-2.169,0-.146-.219-.646-.273,2.815-.225,4.358-.2,6.256-.332l-2.377.1c1.256-.132,2.527-.223,3.805-.273-1.825,0-11.02.679-16.066.936-.876.1-2.408.241-1.668.235l1.585-.123c1.48,0-2.961.332-.938.235q-3.714.414-7.5.631l-.594-.1a27.249,27.249,0,0,0,2.815-.15c-1.241.144-4.65.139-5.984.4l2.106-.043c-2.085.209-4.744.535-7.423.658,1.251.048.615-.053,2.544-.032-1.689-.075,6.819-.444,4.17-.465,1.991.043,3.378-.155,5.953-.176-.083-.037-.917,0,1.324-.155l.48-.07h0c-.385.012-.772.012-1.157,0,1.043-.176,4.64-.412,5.828-.535s-.542.086.2.08l1.772-.193c.2.08,3.555-.08.448.187l2.815-.187c1.668-.059,3.951-.182,5.338-.31s3.326-.321,2.189-.171l4.4-.326h0c4.348-.251,8.935-.668,13.95-.722,1.46-.1,2.971-.182,5.432-.246l.49.064c1.887-.118,5.672-.1,6.474-.209,2.085.144,9.164-.144,12.511-.1l.125-.107h7.3l-.167-.1c1.518-.016,3.036.016,4.546.1,1.741.064,3.67.15,5.588.241-.646,0-1.292-.02-1.929-.075,4.567.39,9.738.283,13.846.77.842.039,1.678.107,2.5.2H202.5l.427.037,1.418.166c-.427-.059-.834-.112-1.189-.15.792.059,2,.144,3.128.251l.459.15h.281c1.126.155.938.043.354-.091.594.043,1.147.075,1.574.1a12.833,12.833,0,0,0,2.033.262c.855.086,1.856.118,2.627.155.491-.057.972-.134,1.439-.23a7.08,7.08,0,0,0,2.054-.706,2.552,2.552,0,0,0,1.043-1.07.735.735,0,0,0,.052-.685s.1-.214,0,.144a4.226,4.226,0,0,0,.1-1.07,4.872,4.872,0,0,0-.063-.968l.25-.294-.344-1.5c.156-.915.25-1.289.448-.385-.3-2.187-.115-1.776-.417-3.637l.167.091a12.21,12.21,0,0,1-.094-2.139c.313-1.487,0-7.364.334-11.183-.48.743.219-1.776-.156-1.925.115-.225.177-.754.282-.134-.115-1.952.177-2.931-.136-4.278.115-.219.167.417.24.219a2.15,2.15,0,0,1,0-.824c.063-.2.094.289.146.6,0-1.995-.375-2.193-.709-2.337a4.406,4.406,0,0,0-.083-2.246c.115-.348.219-.936.261.3,0-.353,0-1.412.052-2.4a9.235,9.235,0,0,0-.063-1.358,1.058,1.058,0,0,0-.365-.631,1.815,1.815,0,0,0-.375-.6,3.3,3.3,0,0,0-.563-.535,7.879,7.879,0,0,0-2.148-1.321,11.7,11.7,0,0,0-2.93-.813c.292.043.553.118.824.171-1.293-.107-2.5-.289-4.879-.535h.073c-1.27-.187-2.567-.322-3.878-.406-.584-.037-1.157-.075-3.847-.358l.271.123a17.306,17.306,0,0,1-2.982-.193Q195.162.882,192.66.761l1.126.128c-1.72-.053-4.765-.535-6.506-.636a8.621,8.621,0,0,1,1.136,0c-4.535-.316-.6.086-4,0-.615-.086.834-.16-1.46-.235-.563-.037-2.231-.037-4.17,0-1.876.048-3.757.035-5.63-.037.688.064,1.376.123-.209.155-2.408.032-6.547-.2-8.716.032-.313,0-.427,0-.438-.037l-3.826.139c-1.408.064-2.721.134-3.263.193-1.762-.337-11.468.588-11.468.278-1.887.1-3.774.176-5.651.294l.136-.043c-2.061.072-4.108.229-6.12.471-.834,0-.229-.037-.167-.059-3.377.115-6.733.358-10.04.727l-.49-.075c-1.178.139-7.632.337-12.751.813a2.958,2.958,0,0,1,.553-.086c-5.755.535-13.929.652-15.962,1.166l-3.8.337C95.9,4,90.246,4.5,92.3,4.43c-1.939.155-5.067.193-2.679.032h.386c.824-.257-6.172.294-6.068.15-9.748.588-19.3.882-28.442,1.032l1.043.139-3.2.048c-.844-.027-1.136-.107,1.147-.139a36.577,36.577,0,0,0-3.889.16c-4.462-.048,1.741-.193.375-.187H49.533c-1.45.106-2.914.152-4.379.139a15.152,15.152,0,0,1-1.574-.118,8.107,8.107,0,0,0-1.043,0c-1.345,0-2.679,0-4.024-.064.532.059,1.043.107,1.606.15-1.793.043-3.785-.1-1.939.1-1.355-.15-5.109-.225-8.716-.406s-7.069-.38-7.9-.444q-4-.151-7.945-.535c.74.08,1.136.283-1.449,0,.521-.091-.646-.241-2.2-.422L7.548,3.782a22.36,22.36,0,0,0-2.335-.171c1.136.048-1.157,0-2.8.652A3.825,3.825,0,0,0,.9,5.258c-.146.246-.146.251.323-.1C.657,5.692.7,5.74.626,5.692s-.136-.1-.365.374a2.15,2.15,0,0,0,0,.572v1.6c0,.738,0,1.5-.052,2.284,0,1.562-.125,3.209-.083,4.872.073.048.188-.508.292.209L0,17.377c0,.658.427.61.167,1.808.063-.166.156-.422.177,0C0,25.731.667,32.539,0,39.165c.146-.9.156-.3.156.385,0-.444.188,0,.281-.075L.3,40.86v.727a2.266,2.266,0,0,0,.209.759,9.026,9.026,0,0,0,1.762,1.6,7.042,7.042,0,0,0,2.45,1.07,11.829,11.829,0,0,1-1.449-.535c1.043.348.427,0-.136-.449s-.98-1.07-.719-1.07a2.04,2.04,0,0,1-.792-.973,2.563,2.563,0,0,1,0-1.3,8.947,8.947,0,0,0,0-3.113c.083-.471.125.406.219.15a6.659,6.659,0,0,1-.24-2.444v.139c0-3.423.125-4.888.24-8.728l-.2.283A6.433,6.433,0,0,1,1.783,25.6c-.3-.952,0,2.316-.344,1.455.4-1.1,0-5.824.459-6.562,0-1.273-.229.369-.229-.9l.125-.337-.156-.321a1.853,1.853,0,0,1,.281-1.284c0,.2,0,.572,0,.792a26.068,26.068,0,0,0,0-3.417l-.083,1.219c-.052-1.733,0-3.658-.052-5.567V6.5a1.529,1.529,0,0,1,.469-1.07,1.683,1.683,0,0,0-.271.171,3,3,0,0,1,1.543-.92,6.628,6.628,0,0,1,1.418-.262,11.688,11.688,0,0,1,1.626,0c.626.048,1.637.166,2.971.289L9.383,4.7c1.043.064,2.544.187,4.024.342-.7-.043-.063.059.511.134s1.116.15.209.107c2.069.167,4.161.25,6.256.246l.8.128c1.359-.018,2.719.021,4.066.118-2.252-.07,1.71.225-.813.16.709.064,1.376.118,2,.166l1.783.08c1.105.043,2.085.07,2.951.086,1.479,0,2.955.076,4.41.214,2.669-.15-4.952-.257-3.472-.273-.615-.064-.063-.08.865-.07s2.231,0,3.128.043q1.418.067,2.815.214c1.626.122,3.267.184,4.911.187h-.98c1.731.08,3.388-.043,5.515.032,1.189-.139,2.752,0,3.128-.176L47.25,6.5c2.408-.059,4.65-.246,8.6-.23-.3.037-1.48.1-2.283.139,1.157.032,2.221-.07,3.43-.037-.334.166-5.15.144-7.726.262.626.032,1.845,0,2.742,0s1.491-.048.844.059c1.845-.278,4.567-.027,7.673-.3l-.2.107c.49-.032,1.512-.107,2.429-.128l-1.637.176c1.224-.078,2.457-.113,3.691-.107q1.813,0,3.618-.1c-5.077.2-1.157-.075-3.315-.07,6.256-.38,3.649.15,10.634-.225-.938.059-3.566.1-2.085,0S76.8,5.954,77.6,5.964c4.629-.267-.73-.064,1.23-.23a39.384,39.384,0,0,0,4.285-.321v.1c5.286-.241,1.355-.294,6.11-.5l-1.97.262,2.408-.209-.48.144q3.068-.288,6.183-.412c-.626-.037.3-.2,2.627-.364a10.917,10.917,0,0,0,2.429-.08,16.269,16.269,0,0,1-2.982.251c-.146.043-.719.112-.865.155,1.731-.043,4.3-.267,5.494-.348-.459.027-1.043.053-1.3.059l4.744-.465c.761,0,.177.059-.407.134.959-.08,1.616-.171,3.044-.278a6.3,6.3,0,0,1-2.242.364l4.525-.4a15.252,15.252,0,0,1,1.772,0c2.544-.123,6.151-.578,9.508-.738q.6-.08,1.22-.123c3.128-.182,5.953-.262,9.654-.594h2.148c2.909-.2-2.909-.032,1.95-.358,3.43-.23,1.314.059,2.523.037,2.567-.274,5.177-.428,7.8-.46C145.962,1.675,145.18,1.691,144.2,1.745Zm36.167-.685c-.868.03-1.739.03-2.606,0a12.445,12.445,0,0,1,2.606,0Zm37.085,12.177a3.153,3.153,0,0,1,0-1.15,8.944,8.944,0,0,1-.052,1.128ZM122.3,44.149h.083C123.943,44.08,123.38,44.1,122.3,44.149Zm-3.232.171c-.323.037-.3.048-.156.053.583-.069,1.176-.115,1.772-.139a13.305,13.305,0,0,0-1.616.086ZM43.257,5.75l.626.032C42.454,5.8,42.861,5.777,43.257,5.75Z" transform="translate(0 0.02)" fill="#1b99da"/><path d="M208.25,18.73a.59.59,0,0,1,.11-.29C208.33,18.18,208.29,18.17,208.25,18.73Z" transform="translate(8.944 -8.143)" fill="#1b99da"/><path d="M116.84,5.8h-.1l-.1.05Z" transform="translate(4.972 0.02)" fill="#1b99da"/><path d="M162.28,77.17a9.938,9.938,0,0,1,1.24.09C163.55,77.21,163.26,77.17,162.28,77.17Z" transform="translate(6.952 -39.838)" fill="#1b99da"/><path d="M97.83,85.38l2-.31c-1,.14-1.31.14-1.8.18C98.06,85.28,98.45,85.3,97.83,85.38Z" transform="translate(4.206 -39.933)" fill="#1b99da"/><path d="M80.43,86.32c-.29.06-.62.07-.9.12l.09.09C80.86,86.39,81.71,86.21,80.43,86.32Z" transform="translate(3.412 -39.933)" fill="#1b99da"/><path d="M95.91,85a10.44,10.44,0,0,0-2.81.28h.25C93,85.52,94.44,85.25,95.91,85Z" transform="translate(4.019 -39.933)" fill="#1b99da"/><path d="M92.78,85.32l-1.29.17C91.34,85.6,92,85.44,92.78,85.32Z" transform="translate(3.92 -39.933)" fill="#1b99da"/><path d="M110.28,83.51c-.66,0-.38.26-.76.25C108.81,84.06,113.88,82.93,110.28,83.51Z" transform="translate(4.709 -39.933)" fill="#1b99da"/><path d="M94.71,84.6l.52.14.76-.26Z" transform="translate(4.058 -39.933)" fill="#1b99da"/><path d="M105.7,83.3l-2.22.24a3.57,3.57,0,0,1-.59.15C104.26,83.51,105.77,83.35,105.7,83.3Z" transform="translate(4.441 -39.933)" fill="#1b99da"/><path d="M102.89,83.69c-.71.09-1.39.18-1.78.27C101.49,83.91,102.32,83.79,102.89,83.69Z" transform="translate(4.343 -39.933)" fill="#1b99da"/><path d="M97.74,84.15l.66-.04,1.57-.2Z" transform="translate(4.207 -39.933)" fill="#1b99da"/><path d="M129.6,80.34,132,80c.24-.09-.42-.07-1.33.06C130.12,80.19,129.22,80.32,129.6,80.34Z" transform="translate(5.583 -39.933)" fill="#1b99da"/><path d="M122.19,80.66a5.87,5.87,0,0,1,1.09,0V80.4Z" transform="translate(5.231 -39.933)" fill="#1b99da"/><path d="M129.27,79.77c.23-.1,3.51-.57.43-.23C129.46,79.63,127,80,129.27,79.77Z" transform="translate(5.536 -39.857)" fill="#1b99da"/><path d="M166.06,77.82l-.62.01.09.4Z" transform="translate(7.067 -39.845)" fill="#1b99da"/><path d="M198.55,79.82c-2.84-.66-.72.08-3.3-.46-.69,0,2.11.43,1.41.4C198.4,80,199.29,80.24,198.55,79.82Z" transform="translate(8.944 -39.858)" fill="#1b99da"/><path d="M196.66,79.76l-.9-.07C196.27,79.74,196.51,79.76,196.66,79.76Z" transform="translate(8.944 -39.857)" fill="#1b99da"/><path d="M2.06,82.65a9.73,9.73,0,0,0,1.42,1.52,12.12,12.12,0,0,1-.9-1C2.4,83,2.24,82.83,2.06,82.65Z" transform="translate(0 -39.933)" fill="#1b99da"/><path d="M5.3,84.85a3.649,3.649,0,0,0,.35.43,8.862,8.862,0,0,0,1.26.16,5.35,5.35,0,0,1-1.61-.59Z" transform="translate(0 -39.933)" fill="#1b99da"/><path d="M178.06,2.73h.15a9,9,0,0,0-1.59-.16Z" transform="translate(-1.641 0.02)" fill="#1b99da"/><path d="M152.96,2.44l.43-.02-.82-.19Z" transform="translate(6.523 0.02)" fill="#1b99da"/><path d="M131.92,4.42l2.73-.32C132.78,4.34,131.66,4.16,131.92,4.42Z" transform="translate(5.692 0.02)" fill="#1b99da"/></g></g></svg>