<svg xmlns="http://www.w3.org/2000/svg" width="128" height="128" viewBox="0 0 128 128"><g transform="translate(-4358 480)"><path d="M788.4,828.19v64.23a54.842,54.842,0,0,1-.71,6.13H776.44V840.28H717.73V828.19Z" transform="translate(3697.6 -1308.19)" fill="#ffcc37"/><path d="M717.73,898.55V834.32a54.842,54.842,0,0,1,.71-6.13h11.25v58.27H788.4v12.09Z" transform="translate(3640.27 -1250.55)" fill="#ffcc37"/><g transform="translate(-2 8.825)"><path d="M651.33,413.62c.3,2.94.59,5.88,1,10.23H687v12.29H652.36c-.38,4.51-.65,7.71-1,11.64H616.53V436.6h34.65c.18-4.12.32-7.21.52-11.44H616.83c-.34-4.15-.6-7.27-.94-11.32h35.64Z" transform="translate(3772.19 -837.385)" fill="#ffcc37"/><path d="M651.23,389.62c.39,3.2.79,6.41,1.3,10.62h34.28v13.38H651.33l.2.21V401.27H616.81c-.35-4-.61-7.16-1-11.45h35.6Z" transform="translate(3772.19 -837.385)" fill="#ffcc37"/><path d="M651.43,389.82c.3-3.87.59-7.75.93-12.26h34.45v12.05H651.23Z" transform="translate(3772.19 -837.385)" fill="#ffcc37"/></g><path d="M219,694h11v10.68H219Z" transform="translate(4256 -1056.68)" fill="#ffcc37"/><path d="M841.1,877.55V855.44H864v22.11Z" transform="translate(3516.9 -1335.44)" fill="#ffcc37"/></g></svg>