<svg xmlns="http://www.w3.org/2000/svg" width="608" height="664" viewBox="0 0 608 664"><g transform="translate(-225 -171)"><rect width="608" height="664" rx="49" transform="translate(225 171)" fill="none"/><g transform="translate(0 4)"><g transform="translate(-0.277 2.133)"><path d="M16900.277,278.867h494.74" transform="translate(-16618 -62)" fill="none" stroke="#7c8d99" stroke-width="1"/><path d="M16900.277,278.867h494.74" transform="translate(-16618 8)" fill="none" stroke="#7c8d99" stroke-width="1"/><path d="M16900.277,278.867h494.74" transform="translate(-16618 78)" fill="none" stroke="#7c8d99" stroke-width="1"/><path d="M16900.277,278.867h494.74" transform="translate(-16618 148)" fill="none" stroke="#7c8d99" stroke-width="1"/><path d="M16900.277,278.867h494.74" transform="translate(-16618 218)" fill="none" stroke="#7c8d99" stroke-width="1"/><path d="M16900.277,278.867h494.74" transform="translate(-16618 288)" fill="none" stroke="#7c8d99" stroke-width="1"/><path d="M16900.277,278.867h494.74" transform="translate(-16618 358)" fill="none" stroke="#7c8d99" stroke-width="1"/><path d="M16900.277,278.867h494.74" transform="translate(-16618 428)" fill="none" stroke="#7c8d99" stroke-width="1"/><path d="M16900.277,278.867h494.74" transform="translate(-16618 -27)" fill="none" stroke="#7c8d99" stroke-width="1"/><path d="M16900.277,278.867h494.74" transform="translate(-16618 43)" fill="none" stroke="#7c8d99" stroke-width="1"/><path d="M16900.277,278.867h494.74" transform="translate(-16618 113)" fill="none" stroke="#7c8d99" stroke-width="1"/><path d="M16900.277,278.867h494.74" transform="translate(-16618 183)" fill="none" stroke="#7c8d99" stroke-width="1"/><path d="M16900.277,278.867h494.74" transform="translate(-16618 253)" fill="none" stroke="#7c8d99" stroke-width="1"/><path d="M16900.277,278.867h494.74" transform="translate(-16618 323)" fill="none" stroke="#7c8d99" stroke-width="1"/><path d="M16900.277,278.867h494.74" transform="translate(-16618 393)" fill="none" stroke="#7c8d99" stroke-width="1"/><path d="M16900.277,278.867h494.74" transform="translate(-16618 463)" fill="none" stroke="#7c8d99" stroke-width="1"/><path d="M16900.277,278.867h494.74" transform="translate(-16618 498)" fill="none" stroke="#7c8d99" stroke-width="1"/></g><g transform="translate(4.723 -8.985)"><path d="M0,0H602.936" transform="translate(332.277 809.434) rotate(-90)" fill="none" stroke="#7c8d99" stroke-width="1"/><path d="M0,0H602.936" transform="translate(402.277 809.434) rotate(-90)" fill="none" stroke="#7c8d99" stroke-width="1"/><path d="M0,0H602.936" transform="translate(472.277 809.434) rotate(-90)" fill="none" stroke="#7c8d99" stroke-width="1"/><path d="M0,0H602.936" transform="translate(542.277 809.434) rotate(-90)" fill="none" stroke="#7c8d99" stroke-width="1"/><path d="M0,0H602.936" transform="translate(612.277 809.434) rotate(-90)" fill="none" stroke="#7c8d99" stroke-width="1"/><path d="M0,0H602.936" transform="translate(682.277 809.434) rotate(-90)" fill="none" stroke="#7c8d99" stroke-width="1"/><path d="M0,0H602.936" transform="translate(297.277 809.434) rotate(-90)" fill="none" stroke="#7c8d99" stroke-width="1"/><path d="M0,0H602.936" transform="translate(367.277 809.434) rotate(-90)" fill="none" stroke="#7c8d99" stroke-width="1"/><path d="M0,0H602.936" transform="translate(437.277 809.434) rotate(-90)" fill="none" stroke="#7c8d99" stroke-width="1"/><path d="M0,0H602.936" transform="translate(507.277 809.434) rotate(-90)" fill="none" stroke="#7c8d99" stroke-width="1"/><path d="M0,0H602.936" transform="translate(577.277 809.434) rotate(-90)" fill="none" stroke="#7c8d99" stroke-width="1"/><path d="M0,0H602.936" transform="translate(647.277 809.434) rotate(-90)" fill="none" stroke="#7c8d99" stroke-width="1"/><path d="M0,0H602.936" transform="translate(717.277 809.434) rotate(-90)" fill="none" stroke="#7c8d99" stroke-width="1"/><path d="M0,0H602.936" transform="translate(752.277 809.434) rotate(-90)" fill="none" stroke="#7c8d99" stroke-width="1"/></g></g><rect width="433" height="547" rx="21" transform="translate(312 230)" fill="#82aecd" opacity="0.8"/><g transform="translate(-6 48)"><text transform="translate(433 639)" fill="#fff" font-size="22" font-family="SegoeUI, Segoe UI"><tspan x="-71.543" y="0">https://</tspan></text><g transform="translate(435 623.416)"><g transform="translate(0 0.011)"><path d="M248.45,23.33c.46,0,.3-.34.37-.4C248,23,248.47,23.42,248.45,23.33Z" transform="translate(-9.189 -8.667)" fill="#fff"/><path d="M240.82,24.2l.14-.15-1.12.37Z" transform="translate(-9.189 -9.077)" fill="#fff"/><path d="M233.69,24.25c.68.61,2.58-.12,3.86.09l.21.14.57-.5a32.17,32.17,0,0,1-4.64.27Z" transform="translate(-9.189 -9.095)" fill="#fff"/><path d="M229.87,22.94c.24.24-.82.22.89.07a.68.68,0,0,1-.16-.06A6.25,6.25,0,0,1,229.87,22.94Z" transform="translate(-9.189 -8.605)" fill="#fff"/><path d="M230.6,23C231.35,23,230.11,22.81,230.6,23Z" transform="translate(-9.189 -8.569)" fill="#fff"/><path d="M227.13,23.12l1-.22c-.21-.14-1.09-.17-.77-.28C226.34,22.75,226.55,22.89,227.13,23.12Z" transform="translate(-9.189 -8.574)" fill="#fff"/><path d="M226.19,23.57l.52-.09C226.62,23.42,226.48,23.4,226.19,23.57Z" transform="translate(-9.189 -8.777)" fill="#fff"/><path d="M227.79,23.28l-1.08.2c.14.1.16.3.49-.07C227.12,23.59,227.33,23.41,227.79,23.28Z" transform="translate(-9.189 -8.779)" fill="#fff"/><path d="M228.41,23.37c.56.13,1.27.21.28.43C230.59,23.7,230.3,23.27,228.41,23.37Z" transform="translate(-9.189 -8.837)" fill="#fff"/><path d="M233.33,24.89l.74.17.64-.21C234.39,25,233.28,24.69,233.33,24.89Z" transform="translate(-9.189 -11.439)" fill="#fff"/><path d="M221,22.84c-.06.13.33.35.41.52l.73-.16C221.72,23.11,221,23,221,22.84Z" transform="translate(-9.189 -8.664)" fill="#fff"/><path d="M221.37,23.36l-1.09.23C221.25,23.61,221.43,23.5,221.37,23.36Z" transform="translate(-9.189 -8.777)" fill="#fff"/><path d="M226.02,24.26l1.8-.49-2.14.5Z" transform="translate(-9.189 -9.01)" fill="#fff"/><path d="M216.78,22.86l.62-.31-1.1.47Z" transform="translate(-9.189 -8.539)" fill="#fff"/><path d="M214,22.93c.46-.25-.63-.42-.15-.58a7.39,7.39,0,0,0-2,.47A5.07,5.07,0,0,1,214,22.93Z" transform="translate(-9.189 -8.495)" fill="#fff"/><path d="M210.92,23.11a7.909,7.909,0,0,0,1-.29,4.31,4.31,0,0,0-1,.29Z" transform="translate(-9.189 -8.59)" fill="#fff"/><path d="M218.41,23.54a1.24,1.24,0,0,0-.86-.37l.43.37Z" transform="translate(-9.189 -8.745)" fill="#fff"/><path d="M218,23.55Z" transform="translate(-9.189 -8.781)" fill="#fff"/><path d="M218.52,23.54h-.11S218.48,23.59,218.52,23.54Z" transform="translate(-9.189 -8.784)" fill="#fff"/><path d="M223.15,23.94c-.64.21-2,.45-.68.75C222.93,24.43,222.19,24.26,223.15,23.94Z" transform="translate(-9.189 -9.15)" fill="#fff"/><path d="M219.06,24l1.16.07c0-.1-.23-.24.08-.34Z" transform="translate(-9.189 -8.947)" fill="#fff"/><path d="M218.49,24.12l.57-.12-.43-.03Z" transform="translate(-9.189 -8.982)" fill="#fff"/><path d="M212.91,23.44a6.57,6.57,0,0,1-1.67.21,19.46,19.46,0,0,0,2,.1C213.34,23.63,213.62,23.42,212.91,23.44Z" transform="translate(-9.189 -8.829)" fill="#fff"/><path d="M215.38,23.52h-.11C215.34,23.58,215.4,23.59,215.38,23.52Z" transform="translate(-9.189 -8.784)" fill="#fff"/><path d="M205.13,23.69l.1.07.02-.06Z" transform="translate(-9.189 -8.854)" fill="#fff"/><path d="M213.36,23.82a2,2,0,0,0,1.08-.14c-.37,0-.77.06-1.19.07C213.21,23.8,213.2,23.83,213.36,23.82Z" transform="translate(-9.189 -8.876)" fill="#fff"/><path d="M209.22,23.29a8.431,8.431,0,0,0,.86.2C209.83,23.38,209.31,23.2,209.22,23.29Z" transform="translate(-9.189 -8.739)" fill="#fff"/><path d="M215.1,23.45h.08C215,23.35,215,23.39,215.1,23.45Z" transform="translate(-9.189 -8.739)" fill="#fff"/><path d="M215.1,23.45a3,3,0,0,0-.66.23,3.906,3.906,0,0,0,.83-.13Z" transform="translate(-9.189 -8.81)" fill="#fff"/><path d="M203.3,26.07c.09-.34,1.4-.66,2.53-.31,1.12-.26.38-1.38-.6-2,0,.15,0,.29-1.18.5.41.18,2.55.41,1.59.73-1.52.19-1.25-.11-2-.29.63.43-1.93.64-1.6,1.26l1.34-.23C203.41,25.83,202.93,26,203.3,26.07Z" transform="translate(-9.189 -9.58)" fill="#fff"/><path d="M207.42,23.78l.47-.05a6,6,0,0,1-1.63-.45c-.79.17-.95.3-1,.42h2.33Z" transform="translate(-9.189 -8.824)" fill="#fff"/><path d="M210,23.72c-.37.37-1.5.54-.81.93,1.39,0,1-.31,1.8-.48-2.24.11.64-.21-1-.41a11.309,11.309,0,0,1,1.21-.11,6.236,6.236,0,0,1-1.16-.16h0c.1,0,.13.07,0,.05h0a.36.36,0,0,1-.1.14c-.65-.07-.11-.09.1-.14v-.05h0l-2.24.22a14.92,14.92,0,0,0,2.2.01Z" transform="translate(-9.189 -9.103)" fill="#fff"/><path d="M221.28,25.5c-.07,0-.07-.06-.07-.09C221.06,25.46,221,25.49,221.28,25.5Z" transform="translate(-9.189 -11.439)" fill="#fff"/><path d="M220.36,25.28a1.41,1.41,0,0,1,.82-.17c.46.11,0,.18,0,.3.32-.1,1.11-.27.11-.45l-.16.06a4.46,4.46,0,0,1-1.91-.63,3,3,0,0,0,1.14.89Z" transform="translate(-9.189 -9.407)" fill="#fff"/><path d="M215.12,24.59l-1.86.2,1,.31-.05-.19C215.22,25,215,24.74,215.12,24.59Z" transform="translate(-9.189 -11.439)" fill="#fff"/><path d="M204.92,23.51l.24-.39-1.07.56Z" transform="translate(-9.189 -8.781)" fill="#fff"/><path d="M202.49,23.57l.09-.34-.64.21Z" transform="translate(-9.189 -8.759)" fill="#fff"/><path d="M70.29,27.82c-.24,0-.45.1-.74.13A3.61,3.61,0,0,0,70.29,27.82Z" transform="translate(-2.576 -11.439)" fill="#fff"/><path d="M75,25.32l-.07-.18C74.88,25.33,74.88,25.42,75,25.32Z" transform="translate(-2.767 -11.439)" fill="#fff"/><path d="M143.64,18.14c-.9-.05-2-.23-1.75.11l.37.27a4.18,4.18,0,0,1,1.38-.38Z" transform="translate(-5.277 -6.836)" fill="#fff"/><path d="M104.47,26.14l.23.12.55-.34Z" transform="translate(-3.87 -11.439)" fill="#fff"/><path d="M103.88,27.68l-1-.26A5.65,5.65,0,0,0,103.88,27.68Z" transform="translate(-3.815 -11.439)" fill="#fff"/><path d="M53.14,18.68a5.79,5.79,0,0,0-.31.54C53.53,18.92,53.15,18.87,53.14,18.68Z" transform="translate(-1.954 -7.092)" fill="#fff"/><path d="M177.64,23.89a10.481,10.481,0,0,0-1.72-.21C176.76,23.89,177.43,24.21,177.64,23.89Z" transform="translate(-6.542 -8.93)" fill="#fff"/><path d="M70.84,23.67c-.13.12-.17.23-.15.3C70.85,23.83,70.91,23.74,70.84,23.67Z" transform="translate(-2.612 -8.913)" fill="#fff"/><path d="M174,23.69a1,1,0,0,0,.32.09,10.13,10.13,0,0,1,1.62-.1,3.14,3.14,0,0,0-1.94.01Z" transform="translate(-6.476 -8.846)" fill="#fff"/><path d="M15.07,5.05a.156.156,0,0,0-.12.06C14.91,5.17,15,5.11,15.07,5.05Z" transform="translate(0 -0.011)" fill="#fff"/><path d="M2.68,23.73c.06-.22.2-.56.33-.88a4.22,4.22,0,0,0-.33.88Z" transform="translate(0 -8.772)" fill="#fff"/><path d="M192.73,23.48Z" transform="translate(-7.125 -8.755)" fill="#fff"/><path d="M195.24,24.94a.214.214,0,0,0-.2.19.37.37,0,0,1,.2-.19Z" transform="translate(-7.209 -11.439)" fill="#fff"/><path d="M169,24.8h0C169.05,24.91,169,24.89,169,24.8Z" transform="translate(-6.242 -11.439)" fill="#fff"/><path d="M193.51,23.65a5.671,5.671,0,0,0-.66-.11,5.938,5.938,0,0,0,.66.11Z" transform="translate(-7.141 -8.809)" fill="#fff"/><path d="M193.4,23.47h.45C193.91,23.44,193.86,23.4,193.4,23.47Z" transform="translate(-7.156 -8.748)" fill="#fff"/><path d="M192,23.51a7.58,7.58,0,0,1,.84,0c-.1,0-.15,0-.12-.06Z" transform="translate(-7.115 -8.761)" fill="#fff"/><path d="M33.93,25.87h0C33.8,26.59,33.85,26.36,33.93,25.87Z" transform="translate(0 -11.439)" fill="#fff"/><path d="M132.26,26.63h-.03Z" transform="translate(-4.885 -11.439)" fill="#fff"/><path d="M130.45,27.42a2.8,2.8,0,0,1,1.78-.82l-.91-.84C131.05,26.31,130.76,26.87,130.45,27.42Z" transform="translate(-4.852 -11.439)" fill="#fff"/><path d="M61,13.807l.63.747c-1.48-.508-2.06-1.067-1.62-.333.5-.207,1.34.351,2.27.954s2.05,1.2,2.52.96c.2.169.41.345.65.514-.23-.119-.33-.1-.54-.22a2.224,2.224,0,0,0,1.68.565q.5,0,1,.031c.41.031.9.113,1.69.176l.4.038h.31c.148.008.3.023.44.044.21.038.23.082-.1.144a9.682,9.682,0,0,0,2.2-.533c.63-.22.61-.038-.07.157a7.357,7.357,0,0,0,1.54-.64c.39-.245.71-.477,1-.627h0a2.772,2.772,0,0,1,.55-.8c.5-.075-.13.144.06.182a3.616,3.616,0,0,1,.79-.471c.5.082-.22.427-.71.627a2.709,2.709,0,0,0,.66.075,1.072,1.072,0,0,0,.32-.157c.2-.157.65-.383,1.84-.264-.35.056-.69.125-1,.194.75.339,1.45.1,2.78.383-.29-.169-2.57-.583-1.31-.822a5.58,5.58,0,0,0,1.64-.082c0,.251.73.22,1.65.251l-.11.339c1,0,.93-.213,1.53-.3,1,.163,1.13.483,1.25.734.74.169.53.031.37-.144s-.3-.351.64-.163c1.293.422,2.629.788,4,1.1,1,.489-.36.119,0,.339.38.044.84.069,1.25.094s.13.132.06.157c1,.125.27-.257,1.83-.1a1.1,1.1,0,0,1,.71,0l1.23.2a6.91,6.91,0,0,0,2.66.038c.4.094-.2.207-.07.345a33.126,33.126,0,0,0,3.77-.577l1.56.238c-1.15-.27.33-.565,1.64-.8-.41-.125-.76-.238-1-.295l2.08-.163c.24.063,0,.176-.31.32l.38-.082c.73.138.34.333-.19.521l-.74-.226c-.52.207-1,.433-.9.627a2.964,2.964,0,0,1,.68-.088c-.14.056-.22.107-.16.138a1.827,1.827,0,0,0,.62-.119l.46.4.12-.151,2.69.282a38.444,38.444,0,0,1,6.73-1.023c-.77.276-.17.464-.22.8-.83-.364-2.4.125-4,0,.83.05.64.207.43.257l2.86-.282c-.07.276.6.213,1.34.333-.55-.546,2.14-.339,3.3-.508.07.182-.21.37-1.63.32,1.56.414,2-.627,3.55-.282a1.557,1.557,0,0,0-.66.069c.8-.157,2.77-.038,2.31.119h-.34q1.049.037,2.1,0a21.708,21.708,0,0,0,2.41-.163,5.931,5.931,0,0,0,2.87-.722,1.233,1.233,0,0,1-.23.69,27.46,27.46,0,0,0,3.25-2.1c-.16.445,1.69,1.06-.08,1.65a7.746,7.746,0,0,0,2.32-.521c-.4,0-1.2-.326-.74-.477a17.023,17.023,0,0,0,2.9-.056c-.58.056-.37-.665.45-.86-.07.119.45.546.19.684l1.64-1.1c-.43.232.23.5.78.54a18.757,18.757,0,0,1,2.22-.627l-.93.069c2.29-.439,1.75-1.349,4.13-1.732a.343.343,0,0,0-.042.569,1.025,1.025,0,0,0,.862.178,7.508,7.508,0,0,1,1.36-1.1,7.414,7.414,0,0,1,2.81-1.079l.45.163,1.71-.251c-.54.257-1.53.627-2.52,1.035l-1.44.627c-.45.2-.86.4-1.2.527a3.886,3.886,0,0,0,1.57,0c.48.125-.63.3-1,.37.487-.048.978-.077,1.47-.088q.733-.042,1.47-.038c-.09-.182.47-.289,1.05-.389s1-.151,1-.307c-.41,0-1,.132-1.56.2s-1.08.157-1.6.264c-.1-.163.32-.483,1.08-.7a6.96,6.96,0,0,1,2.89-.289c.49.207-.57.583-.53.722a4.357,4.357,0,0,1,1.08,0,4.428,4.428,0,0,1,1,.182l-1,.044c1,.314,2.09-.125,3.31.527.47.125,1.16.791,1.37.627-.54-.577,0-1.813.75-1.97a22.791,22.791,0,0,1,2.78,1.355c.6.508-1.67.4-1.16.841a2.1,2.1,0,0,1,.81-.075c.46.213-.4.232.74.477.41-.289,2.25.627.72-.151.827.2,1.633.426,2.41.69-.27-.326,1.64-.458,2.79-.314-.11.075.07.251.16.326,1.13.276,2,.489,2.86.678.45.082.89.169,1.37.226a14.276,14.276,0,0,0,1.58.063c.21.094,1.3.194.84.358a5.005,5.005,0,0,1,1.31-.207c1.35.314-1.54.056-.52.433a11.765,11.765,0,0,1,2.78-.439c-.31-.333-2.28-.056-3.27.082,0-.452,1.71-.941,4.06-1.161,1.87-.125.81.289,1.13.226,3.52.063,3-.816,5.91-.5,1.16.282.06.577.31.784A30.5,30.5,0,0,1,183.85,16l1.27.132a7.609,7.609,0,0,1-2,.094c1,.257,5.93,0,8.65.251.48-.1,1.31-.2.91-.32l-.86.05c-.79-.232,1.61-.333.53-.439a16.658,16.658,0,0,1,4.05-.307l.31.326a3.415,3.415,0,0,0-1.51-.088c.67-.151,2.48.439,3.22,0l-1.14-.226a18.545,18.545,0,0,1,4-.433c-.66-.326-.33.038-1.35-.339.89.471-3.67,0-2.25.489-1.05-.439-1.81-.176-3.18-.552,0,.113.48.207-.72.157a1.209,1.209,0,0,1-.26.1h-.02a2.056,2.056,0,0,1,.61.169,27.009,27.009,0,0,1-3.15.383c-.72-.044.29-.125-.1-.238l-1,.2c-.1-.245-1.91-.4-.22-.546h-1.52a11.8,11.8,0,0,0-2.88-.075c-.71-.05-1.8.276-1.18.082l-2.37.163v-.056c-2.34,0-4.82.42-7.5,0-.163.007-.327.007-.49,0s-.307.007-.46,0a8.384,8.384,0,0,1-1.39-.207l-.13-.238c-.9-.069-2.58-.759-3.09-.627-.65-.753-4.38-1.255-6-1.782l-.23.238a33.5,33.5,0,0,0-3.84-.765v.251a14.2,14.2,0,0,1-2.4-.527,14.915,14.915,0,0,0-3.33-.558,2.878,2.878,0,0,1,1.27.088,4.082,4.082,0,0,0-.52-.144q-.3-.054-.61-.088t-.63-.056h-.52c-.673.028-1.342.089-2,.182s-1.33.22-2,.295a9.419,9.419,0,0,1-1.87.132,4.963,4.963,0,0,1-1.41.22l.14-.038-.24.038c-.283-.012-.567-.012-.85,0h.73a13.786,13.786,0,0,0-1.71.427l-.4-.194-.15.038c-.68.044-.43.226,0,.339a4.4,4.4,0,0,0-.74.339c-.75-.289-1.54.514-2.46.27-.29.307-2.9.947-2.92,1.449-.06-.044-.25,0,.07-.113a6.829,6.829,0,0,0-1.89.508l-.47-.245-1.18.747c-1,0-1.39-.056-.66-.471a9.339,9.339,0,0,1-1.73.627q-.8.226-1.56.508v-.22c-.64.088-1.62.5-2.06.333-1.589-.093-3.186-.116-4.78-.069-2.24.03-4.479-.048-6.7-.232.75.627-1.83-.3-2,.182-.23-.151-.78-.245-.13-.364-2,.119-3-.282-4.45.107-.23-.157.44-.213.24-.3-.16,0-.65.119-.86,0s.3-.119.63-.182c-2.08,0-2.31.452-2.48.878a3.7,3.7,0,0,0-2.34.075c-.36-.144-1-.3.32-.333-.72-.038-4.44-.245-4.52.1a3.9,3.9,0,0,0-1.21,0c-1.63,0-1.78-.05-3.38,0l.45.056c-.66.408-1.27.119-2.36,0l.05-.038c-.59-.176-.91-.32-1.15-.4a4.369,4.369,0,0,0-.52-.144A6.048,6.048,0,0,1,89.6,14.3l-.07.276c-.35.194-.83-.088-1.52-.439a6.505,6.505,0,0,0-2.54-.791l.56.251a4.425,4.425,0,0,1-1.69-.59,6.644,6.644,0,0,0-1.76-.684c-.21-.069.36-.05.68-.056-2.61-.508-.41.3-2.34.289-.36-.194.51-.464-.84-.508a3.627,3.627,0,0,0-.93,0c-.45.069-1,.151-1.55.251-1.16.213-2.47.546-3.58.753h.62c.08,0,0,.138-.43.358q-1.149.473-2.21,1.023c-.68.333-.92.389-1.13.671-.11,0-.16-.038-.18-.075a3.042,3.042,0,0,1-.58.151l-.41.063-.35.038c-.45,0-1-.05-1.33-.031a.951.951,0,0,0-.66-.665c-.4-.22-1-.464-1.5-.722-1.08-.514-2.1-1.054-1.61-1.324-.7-.458-1.4-.929-2.17-1.387h.15a6.048,6.048,0,0,0-3.08-1.186c-.37-.22,0-.163.08-.182a7.86,7.86,0,0,0-3.29-.872,6.12,6.12,0,0,0-1.46.119,10.36,10.36,0,0,0-1.53.464l-.38-.207c-.31.138-1.44.282-2.77.659a9.7,9.7,0,0,0-3.64,1.807.224.224,0,0,1,.1-.232c-.52.439-1.15.866-1.77,1.311-.3.226-.63.445-.92.671l-.44.339-.15.119-.11.075a1.05,1.05,0,0,0-.48.489,1.9,1.9,0,0,0,0,.935,1.545,1.545,0,0,1-.64,1.092c.43-.082.5-.188.56-.138a.452.452,0,0,1,0,.358c-.06.345-.4.809,0,.728a.861.861,0,0,1-.67.232.969.969,0,0,1-.65-.27.422.422,0,0,1-.17-.351c0-.082.12-.082.37-.05a1.24,1.24,0,0,0,.15.119.393.393,0,0,0-.16-.546,1.983,1.983,0,0,1-.49-.508,1.055,1.055,0,0,1-.17-.979l-.17-.314-.32-.627L40,14.014a.411.411,0,0,0-.05-.088l-.13-.182L39.3,13c-.36-.5-.71-1-1.07-1.5l-.54-.765a.844.844,0,0,0-.25-.251,1.649,1.649,0,0,0-.31-.176,3.041,3.041,0,0,0-1.92-.119,1.4,1.4,0,0,0-1,.659c-.34.521-.67,1.042-1,1.556l.37.389-.47.841c-.17.056-.36-.3,0-.841-.15-.05-.27.264-.33.627a3.234,3.234,0,0,0-.06.91c-.37.439-.4.056-.34-.351s.19-.86.08-.709l-.26.514h.1c-.06.358-.06.627-.1.929a2.371,2.371,0,0,1-.1.433.551.551,0,0,1-.19.345.31.31,0,0,1-.33-.257c-.04-.125,0-.257-.12-.257s-.06-.088-.25,0a.7.7,0,0,1-.53-.533v.985c-.26.038-.37-.791-.39.37a4.622,4.622,0,0,0-.33-1.681,13.677,13.677,0,0,0-.65-1.368,6.886,6.886,0,0,1-.72-1.456A7.81,7.81,0,0,1,27,8.788c0,.264-.44.514-.79-.345,1.26.094-.29-1.644.16-2.51-.22.715-1.32-2.378-1.59-1.255-.13-.358-.06-.408.08-.414s.3,0,.25-.339A10.914,10.914,0,0,0,22,1.165,8.968,8.968,0,0,0,19.27.155a10.313,10.313,0,0,0-3.43,0c0,.107.74.151-.1.414-.39,0-.8,0-1.21.038L13.32.776a1.212,1.212,0,0,0-.47.565,1.832,1.832,0,0,1-1,.627c.24-.05.58-.113.27.157a7.594,7.594,0,0,0-.94.715,9.228,9.228,0,0,0-.73.8,12.445,12.445,0,0,0-1,1.493C8.72,6.1,8.1,7.119,7.46,8.161a27.528,27.528,0,0,1-4.6,5.891c.63-.471.42-.1.15.314.25-.251.34.094.57.094L1.94,15.972c.32.439-1.16,1.8-.77,2.108l.26-.552c.13.86,2-.627,2.67-.339-.1-.966,2.38-1.82,2.28-3.382.34-.245.08.307.36.2a1.769,1.769,0,0,1,.72-1.525v.107a47.946,47.946,0,0,1,4-5.145L11,7.533a3.54,3.54,0,0,1,.82-.765c-.2-.722-1,1.393-1.25.7.6-.226,1.19-1.1,1.77-1.951a9.71,9.71,0,0,1,.87-1.154,1.382,1.382,0,0,1,.84-.445c.58-.54-.58,0,0-.552a2.345,2.345,0,0,1,.37-.038l-.07-.257a1.934,1.934,0,0,1,.36-.182A1.743,1.743,0,0,1,15,2.834a.744.744,0,0,1,.42.069,1.491,1.491,0,0,0-.38.27,3.188,3.188,0,0,0,.57-.213c.19-.088.38-.151.55-.245a3.749,3.749,0,0,1,.51-.176A1.566,1.566,0,0,1,17,2.514a4.941,4.941,0,0,0-.79.044,4.758,4.758,0,0,1,3.54.27,5.894,5.894,0,0,1,1.5,1.029,12.106,12.106,0,0,1,1.14,1.318l.1-.194C23.65,6.492,23,6.278,24,8l-.07-.056a3.871,3.871,0,0,1,.9,1.255c-.44-.4,0,.916-.54.383,1.23,1.656.72.8,2,1.807l-.18.326a2.639,2.639,0,0,1,1.15,1.2c-.62-.665-.19.627-.93-.088a1.747,1.747,0,0,0,.09.464,1.692,1.692,0,0,0,.09.282l.13.3a9.6,9.6,0,0,0,.56,1.06c.38.627.73,1.054,1,1.493a3.813,3.813,0,0,1,.57,1.4c.4,0,.35-.251.2-.54s-.45-.7-.62-1.06-.25-.508-.11-.351c0-.351.17-.27.4-.038a3.7,3.7,0,0,1,.77.96,12.008,12.008,0,0,1,.44,1.3,1.286,1.286,0,0,0,.44.728,2.287,2.287,0,0,0,1.64.276,2.644,2.644,0,0,1-.59.082,2.028,2.028,0,0,0,1.4-.32,1.779,1.779,0,0,0,.37-.339.688.688,0,0,1,.26-.282c0-.772.42-.671.27-1.412l-.57,1.311a15.044,15.044,0,0,0,.39-1.493,3.452,3.452,0,0,1,.64-1.525,5.607,5.607,0,0,1-.17,1.117c.23-.107.26-.778.51-.878a1.767,1.767,0,0,1-.29,1.255,5.874,5.874,0,0,0-.63,1.462c.29,0,.59-1.713.63-.627a1.608,1.608,0,0,1,.38-1.255,1.969,1.969,0,0,0,.56-1.387l.14.59a3.986,3.986,0,0,1,.26-.966V15.57a1.388,1.388,0,0,1,.23-.627c.08-.113.12-.063.22,0s.4.32.55.2c-.16-.075-.3-.094-.36-.163a.446.446,0,0,1-.11-.307c0-.264,0-.627-.26-.778.3-.427.73-.333.85-.125a1.384,1.384,0,0,1,.16.8.971.971,0,0,1-.19.527c-.07.082-.18,0-.23-.182,0,.063.09.113.17.069a.616.616,0,0,0,.19-.264c-.06.056-.22.075-.46.038,1.26,2.252.15-.552.9.37,0,.841.6,1.06,1.13,1.594a3.09,3.09,0,0,1,.24.251l-.28.3a2.044,2.044,0,0,0,.85.891.379.379,0,0,0,.36,0,.238.238,0,0,1,.28,0,5.655,5.655,0,0,0,.91.5,8.353,8.353,0,0,1-1-.031A3.408,3.408,0,0,0,40.89,19c-.12.082-.25.157-.38.238a4.768,4.768,0,0,0,2-.238,4.508,4.508,0,0,0,.54-.232c.18-.107.39-.213.64-.339-.16-.05-.18-.22-.08-.458a3.541,3.541,0,0,1,.74-1.092c.68-.546-.07.7,1-.9a2.9,2.9,0,0,1-.21.8,1.189,1.189,0,0,1-.74.722c0,.163-.17.489-.18.659a4.128,4.128,0,0,0,.69-.471,6.26,6.26,0,0,0,.61-.841l.27-.427.26-.339.43-.533a4.949,4.949,0,0,1-.59.552l.62-1.048a6.127,6.127,0,0,1,.43-.709c.34-.132.27.069.2.257a4.611,4.611,0,0,1,.7-.841c.15.226.42.333,0,.866a10.421,10.421,0,0,1,1.1-1.173c.2,0,1.06-.282.94-.113a8.776,8.776,0,0,0,1.43-.885,4.469,4.469,0,0,1,1.87-.74.949.949,0,0,1,.45-.22,6.452,6.452,0,0,1,1.69-.088c.38.038.8.088,1.55.182a4.5,4.5,0,0,1,.38.627c.52.194.41,0,.36-.194s0-.351,1,.05c1.38.627.11.5.42.828a5.893,5.893,0,0,1,3.12,1.681A9.031,9.031,0,0,1,61,13.807Zm17.87.941c-.16.038-.4.1-.62.144a.86.86,0,0,1-.53,0C78,14.573,78.3,14.679,78.87,14.748Zm28.43,2.2a2.681,2.681,0,0,1-1.19-.075,5.773,5.773,0,0,1,1.19.075Zm79.79-1.976h0c-.88-.075-.58-.038,0,.006Zm1.74.107c.18-.038.17-.075.09-.107a3.134,3.134,0,0,1-1,.056,1.59,1.59,0,0,0,.91.038ZM31.32,15.25a1.907,1.907,0,0,0,.18.151c-.17.157-.27.138-.27.1a.655.655,0,0,1,.09-.245Z" transform="translate(0 -0.011)" fill="#fff"/><path d="M104,27.5a.35.35,0,0,1-.16-.22C103.65,27.34,103.65,27.42,104,27.5Z" transform="translate(-3.835 -11.439)" fill="#fff"/><path d="M53.2,18.57h-.05a.28.28,0,0,0,0,.09Z" transform="translate(-1.963 -6.946)" fill="#fff"/><path d="M161.89,23.74a1.88,1.88,0,0,1-.55-.46C161.28,23.36,161.4,23.5,161.89,23.74Z" transform="translate(-5.971 -8.813)" fill="#fff"/><path d="M198.05,23.26l-1.11.11a3,3,0,0,1,1,.13C197.92,23.41,197.71,23.27,198.05,23.26Z" transform="translate(-7.306 -8.742)" fill="#fff"/><path d="M207.75,25.76c.17-.05.35,0,.51-.06v-.19C207.52,25.52,207,25.68,207.75,25.76Z" transform="translate(-9.189 -11.439)" fill="#fff"/><path d="M199.1,24.63c.09.35.79.23,1.57.16h-.14C200.76,24.3,199.92,24.46,199.1,24.63Z" transform="translate(-9.189 -9.243)" fill="#fff"/><path d="M200.85,24.77a5.77,5.77,0,0,1,.72,0C201.66,24.56,201.28,24.72,200.85,24.77Z" transform="translate(-9.189 -11.439)" fill="#fff"/><path d="M191,23.78c.37.09.23-.45.44-.31C191.89,23,189,24,191,23.78Z" transform="translate(-7.062 -8.839)" fill="#fff"/><path d="M199.74,25.78l-.28-.43-.44.35Z" transform="translate(-7.371 -11.439)" fill="#fff"/><path d="M193.57,25.51l1.25.11c0-.07.14-.12.33-.15C194.38,25.46,193.54,25.38,193.57,25.51Z" transform="translate(-7.194 -11.439)" fill="#fff"/><path d="M195.15,25.47a3.94,3.94,0,0,0,1-.08,8.119,8.119,0,0,0-1,.08Z" transform="translate(-7.236 -11.439)" fill="#fff"/><path d="M198.03,25.92l-.37-.09-.88-.02Z" transform="translate(-7.304 -11.439)" fill="#fff"/><path d="M180.15,25.52l-1.36.14c-.14.15.23.23.74.17C179.85,25.72,180.36,25.66,180.15,25.52Z" transform="translate(-6.64 -11.439)" fill="#fff"/><path d="M184.28,26.68a1.34,1.34,0,0,1-.61-.33v.54Z" transform="translate(-6.8 -11.439)" fill="#fff"/><path d="M180.31,26.83c-.14.15-2,.44-.25.39C180.2,27.08,181.56,26.94,180.31,26.83Z" transform="translate(-6.663 -11.439)" fill="#fff"/><path d="M160.51,21.58l.32.13.29-.84Z" transform="translate(-5.942 -8.002)" fill="#fff"/><path d="M143.81,22.78c1.5-.25.18-.65,1.57-.77.28-.31-1.14.1-.84-.17C143.72,22.33,143.22,22.36,143.81,22.78Z" transform="translate(-5.342 -8.401)" fill="#fff"/><path d="M144.54,21.84l.41-.26a1.94,1.94,0,0,0-.41.26Z" transform="translate(-5.347 -8.116)" fill="#fff"/><path d="M.78,27.06l-.57.89.53-.51Z" transform="translate(0 -11.439)" fill="#fff"/><path d="M.61,29.15H0l.23.77C.29,29.7.43,29.26.61,29.15Z" transform="translate(0 -11.439)" fill="#fff"/><path d="M81.41,24.65l.07-.13c-.13-.16-.34-.18-.77-.24Z" transform="translate(-2.99 -9.164)" fill="#fff"/><path d="M68.24,28.25l.41.09a4.58,4.58,0,0,1-.61-.65,4.182,4.182,0,0,0,.2.56Z" transform="translate(-2.519 -11.439)" fill="#fff"/><path d="M57.88,20.42c.28.28.71.54,1,.87C58.16,20.69,58.22,19.88,57.88,20.42Z" transform="translate(-2.146 -7.816)" fill="#fff"/></g></g><rect width="352" height="15" rx="7.5" transform="translate(359 653)" fill="#3082bd"/><rect width="197" height="9" rx="4.5" transform="translate(359 671)" fill="#1c6091"/><rect width="99" height="9" rx="4.5" transform="translate(359 683)" fill="#1c6091"/></g><g transform="translate(-6 -58)"><text transform="translate(433 639)" fill="#fff" font-size="22" font-family="SegoeUI, Segoe UI"><tspan x="-71.543" y="0">https://</tspan></text><g transform="translate(435 623.416)"><g transform="translate(0 0.011)"><path d="M248.45,23.33c.46,0,.3-.34.37-.4C248,23,248.47,23.42,248.45,23.33Z" transform="translate(-9.189 -8.667)" fill="#fff"/><path d="M240.82,24.2l.14-.15-1.12.37Z" transform="translate(-9.189 -9.077)" fill="#fff"/><path d="M233.69,24.25c.68.61,2.58-.12,3.86.09l.21.14.57-.5a32.17,32.17,0,0,1-4.64.27Z" transform="translate(-9.189 -9.095)" fill="#fff"/><path d="M229.87,22.94c.24.24-.82.22.89.07a.68.68,0,0,1-.16-.06A6.25,6.25,0,0,1,229.87,22.94Z" transform="translate(-9.189 -8.605)" fill="#fff"/><path d="M230.6,23C231.35,23,230.11,22.81,230.6,23Z" transform="translate(-9.189 -8.569)" fill="#fff"/><path d="M227.13,23.12l1-.22c-.21-.14-1.09-.17-.77-.28C226.34,22.75,226.55,22.89,227.13,23.12Z" transform="translate(-9.189 -8.574)" fill="#fff"/><path d="M226.19,23.57l.52-.09C226.62,23.42,226.48,23.4,226.19,23.57Z" transform="translate(-9.189 -8.777)" fill="#fff"/><path d="M227.79,23.28l-1.08.2c.14.1.16.3.49-.07C227.12,23.59,227.33,23.41,227.79,23.28Z" transform="translate(-9.189 -8.779)" fill="#fff"/><path d="M228.41,23.37c.56.13,1.27.21.28.43C230.59,23.7,230.3,23.27,228.41,23.37Z" transform="translate(-9.189 -8.837)" fill="#fff"/><path d="M233.33,24.89l.74.17.64-.21C234.39,25,233.28,24.69,233.33,24.89Z" transform="translate(-9.189 -11.439)" fill="#fff"/><path d="M221,22.84c-.06.13.33.35.41.52l.73-.16C221.72,23.11,221,23,221,22.84Z" transform="translate(-9.189 -8.664)" fill="#fff"/><path d="M221.37,23.36l-1.09.23C221.25,23.61,221.43,23.5,221.37,23.36Z" transform="translate(-9.189 -8.777)" fill="#fff"/><path d="M226.02,24.26l1.8-.49-2.14.5Z" transform="translate(-9.189 -9.01)" fill="#fff"/><path d="M216.78,22.86l.62-.31-1.1.47Z" transform="translate(-9.189 -8.539)" fill="#fff"/><path d="M214,22.93c.46-.25-.63-.42-.15-.58a7.39,7.39,0,0,0-2,.47A5.07,5.07,0,0,1,214,22.93Z" transform="translate(-9.189 -8.495)" fill="#fff"/><path d="M210.92,23.11a7.909,7.909,0,0,0,1-.29,4.31,4.31,0,0,0-1,.29Z" transform="translate(-9.189 -8.59)" fill="#fff"/><path d="M218.41,23.54a1.24,1.24,0,0,0-.86-.37l.43.37Z" transform="translate(-9.189 -8.745)" fill="#fff"/><path d="M218,23.55Z" transform="translate(-9.189 -8.781)" fill="#fff"/><path d="M218.52,23.54h-.11S218.48,23.59,218.52,23.54Z" transform="translate(-9.189 -8.784)" fill="#fff"/><path d="M223.15,23.94c-.64.21-2,.45-.68.75C222.93,24.43,222.19,24.26,223.15,23.94Z" transform="translate(-9.189 -9.15)" fill="#fff"/><path d="M219.06,24l1.16.07c0-.1-.23-.24.08-.34Z" transform="translate(-9.189 -8.947)" fill="#fff"/><path d="M218.49,24.12l.57-.12-.43-.03Z" transform="translate(-9.189 -8.982)" fill="#fff"/><path d="M212.91,23.44a6.57,6.57,0,0,1-1.67.21,19.46,19.46,0,0,0,2,.1C213.34,23.63,213.62,23.42,212.91,23.44Z" transform="translate(-9.189 -8.829)" fill="#fff"/><path d="M215.38,23.52h-.11C215.34,23.58,215.4,23.59,215.38,23.52Z" transform="translate(-9.189 -8.784)" fill="#fff"/><path d="M205.13,23.69l.1.07.02-.06Z" transform="translate(-9.189 -8.854)" fill="#fff"/><path d="M213.36,23.82a2,2,0,0,0,1.08-.14c-.37,0-.77.06-1.19.07C213.21,23.8,213.2,23.83,213.36,23.82Z" transform="translate(-9.189 -8.876)" fill="#fff"/><path d="M209.22,23.29a8.431,8.431,0,0,0,.86.2C209.83,23.38,209.31,23.2,209.22,23.29Z" transform="translate(-9.189 -8.739)" fill="#fff"/><path d="M215.1,23.45h.08C215,23.35,215,23.39,215.1,23.45Z" transform="translate(-9.189 -8.739)" fill="#fff"/><path d="M215.1,23.45a3,3,0,0,0-.66.23,3.906,3.906,0,0,0,.83-.13Z" transform="translate(-9.189 -8.81)" fill="#fff"/><path d="M203.3,26.07c.09-.34,1.4-.66,2.53-.31,1.12-.26.38-1.38-.6-2,0,.15,0,.29-1.18.5.41.18,2.55.41,1.59.73-1.52.19-1.25-.11-2-.29.63.43-1.93.64-1.6,1.26l1.34-.23C203.41,25.83,202.93,26,203.3,26.07Z" transform="translate(-9.189 -9.58)" fill="#fff"/><path d="M207.42,23.78l.47-.05a6,6,0,0,1-1.63-.45c-.79.17-.95.3-1,.42h2.33Z" transform="translate(-9.189 -8.824)" fill="#fff"/><path d="M210,23.72c-.37.37-1.5.54-.81.93,1.39,0,1-.31,1.8-.48-2.24.11.64-.21-1-.41a11.309,11.309,0,0,1,1.21-.11,6.236,6.236,0,0,1-1.16-.16h0c.1,0,.13.07,0,.05h0a.36.36,0,0,1-.1.14c-.65-.07-.11-.09.1-.14v-.05h0l-2.24.22a14.92,14.92,0,0,0,2.2.01Z" transform="translate(-9.189 -9.103)" fill="#fff"/><path d="M221.28,25.5c-.07,0-.07-.06-.07-.09C221.06,25.46,221,25.49,221.28,25.5Z" transform="translate(-9.189 -11.439)" fill="#fff"/><path d="M220.36,25.28a1.41,1.41,0,0,1,.82-.17c.46.11,0,.18,0,.3.32-.1,1.11-.27.11-.45l-.16.06a4.46,4.46,0,0,1-1.91-.63,3,3,0,0,0,1.14.89Z" transform="translate(-9.189 -9.407)" fill="#fff"/><path d="M215.12,24.59l-1.86.2,1,.31-.05-.19C215.22,25,215,24.74,215.12,24.59Z" transform="translate(-9.189 -11.439)" fill="#fff"/><path d="M204.92,23.51l.24-.39-1.07.56Z" transform="translate(-9.189 -8.781)" fill="#fff"/><path d="M202.49,23.57l.09-.34-.64.21Z" transform="translate(-9.189 -8.759)" fill="#fff"/><path d="M70.29,27.82c-.24,0-.45.1-.74.13A3.61,3.61,0,0,0,70.29,27.82Z" transform="translate(-2.576 -11.439)" fill="#fff"/><path d="M75,25.32l-.07-.18C74.88,25.33,74.88,25.42,75,25.32Z" transform="translate(-2.767 -11.439)" fill="#fff"/><path d="M143.64,18.14c-.9-.05-2-.23-1.75.11l.37.27a4.18,4.18,0,0,1,1.38-.38Z" transform="translate(-5.277 -6.836)" fill="#fff"/><path d="M104.47,26.14l.23.12.55-.34Z" transform="translate(-3.87 -11.439)" fill="#fff"/><path d="M103.88,27.68l-1-.26A5.65,5.65,0,0,0,103.88,27.68Z" transform="translate(-3.815 -11.439)" fill="#fff"/><path d="M53.14,18.68a5.79,5.79,0,0,0-.31.54C53.53,18.92,53.15,18.87,53.14,18.68Z" transform="translate(-1.954 -7.092)" fill="#fff"/><path d="M177.64,23.89a10.481,10.481,0,0,0-1.72-.21C176.76,23.89,177.43,24.21,177.64,23.89Z" transform="translate(-6.542 -8.93)" fill="#fff"/><path d="M70.84,23.67c-.13.12-.17.23-.15.3C70.85,23.83,70.91,23.74,70.84,23.67Z" transform="translate(-2.612 -8.913)" fill="#fff"/><path d="M174,23.69a1,1,0,0,0,.32.09,10.13,10.13,0,0,1,1.62-.1,3.14,3.14,0,0,0-1.94.01Z" transform="translate(-6.476 -8.846)" fill="#fff"/><path d="M15.07,5.05a.156.156,0,0,0-.12.06C14.91,5.17,15,5.11,15.07,5.05Z" transform="translate(0 -0.011)" fill="#fff"/><path d="M2.68,23.73c.06-.22.2-.56.33-.88a4.22,4.22,0,0,0-.33.88Z" transform="translate(0 -8.772)" fill="#fff"/><path d="M192.73,23.48Z" transform="translate(-7.125 -8.755)" fill="#fff"/><path d="M195.24,24.94a.214.214,0,0,0-.2.19.37.37,0,0,1,.2-.19Z" transform="translate(-7.209 -11.439)" fill="#fff"/><path d="M169,24.8h0C169.05,24.91,169,24.89,169,24.8Z" transform="translate(-6.242 -11.439)" fill="#fff"/><path d="M193.51,23.65a5.671,5.671,0,0,0-.66-.11,5.938,5.938,0,0,0,.66.11Z" transform="translate(-7.141 -8.809)" fill="#fff"/><path d="M193.4,23.47h.45C193.91,23.44,193.86,23.4,193.4,23.47Z" transform="translate(-7.156 -8.748)" fill="#fff"/><path d="M192,23.51a7.58,7.58,0,0,1,.84,0c-.1,0-.15,0-.12-.06Z" transform="translate(-7.115 -8.761)" fill="#fff"/><path d="M33.93,25.87h0C33.8,26.59,33.85,26.36,33.93,25.87Z" transform="translate(0 -11.439)" fill="#fff"/><path d="M132.26,26.63h-.03Z" transform="translate(-4.885 -11.439)" fill="#fff"/><path d="M130.45,27.42a2.8,2.8,0,0,1,1.78-.82l-.91-.84C131.05,26.31,130.76,26.87,130.45,27.42Z" transform="translate(-4.852 -11.439)" fill="#fff"/><path d="M61,13.807l.63.747c-1.48-.508-2.06-1.067-1.62-.333.5-.207,1.34.351,2.27.954s2.05,1.2,2.52.96c.2.169.41.345.65.514-.23-.119-.33-.1-.54-.22a2.224,2.224,0,0,0,1.68.565q.5,0,1,.031c.41.031.9.113,1.69.176l.4.038h.31c.148.008.3.023.44.044.21.038.23.082-.1.144a9.682,9.682,0,0,0,2.2-.533c.63-.22.61-.038-.07.157a7.357,7.357,0,0,0,1.54-.64c.39-.245.71-.477,1-.627h0a2.772,2.772,0,0,1,.55-.8c.5-.075-.13.144.06.182a3.616,3.616,0,0,1,.79-.471c.5.082-.22.427-.71.627a2.709,2.709,0,0,0,.66.075,1.072,1.072,0,0,0,.32-.157c.2-.157.65-.383,1.84-.264-.35.056-.69.125-1,.194.75.339,1.45.1,2.78.383-.29-.169-2.57-.583-1.31-.822a5.58,5.58,0,0,0,1.64-.082c0,.251.73.22,1.65.251l-.11.339c1,0,.93-.213,1.53-.3,1,.163,1.13.483,1.25.734.74.169.53.031.37-.144s-.3-.351.64-.163c1.293.422,2.629.788,4,1.1,1,.489-.36.119,0,.339.38.044.84.069,1.25.094s.13.132.06.157c1,.125.27-.257,1.83-.1a1.1,1.1,0,0,1,.71,0l1.23.2a6.91,6.91,0,0,0,2.66.038c.4.094-.2.207-.07.345a33.126,33.126,0,0,0,3.77-.577l1.56.238c-1.15-.27.33-.565,1.64-.8-.41-.125-.76-.238-1-.295l2.08-.163c.24.063,0,.176-.31.32l.38-.082c.73.138.34.333-.19.521l-.74-.226c-.52.207-1,.433-.9.627a2.964,2.964,0,0,1,.68-.088c-.14.056-.22.107-.16.138a1.827,1.827,0,0,0,.62-.119l.46.4.12-.151,2.69.282a38.444,38.444,0,0,1,6.73-1.023c-.77.276-.17.464-.22.8-.83-.364-2.4.125-4,0,.83.05.64.207.43.257l2.86-.282c-.07.276.6.213,1.34.333-.55-.546,2.14-.339,3.3-.508.07.182-.21.37-1.63.32,1.56.414,2-.627,3.55-.282a1.557,1.557,0,0,0-.66.069c.8-.157,2.77-.038,2.31.119h-.34q1.049.037,2.1,0a21.708,21.708,0,0,0,2.41-.163,5.931,5.931,0,0,0,2.87-.722,1.233,1.233,0,0,1-.23.69,27.46,27.46,0,0,0,3.25-2.1c-.16.445,1.69,1.06-.08,1.65a7.746,7.746,0,0,0,2.32-.521c-.4,0-1.2-.326-.74-.477a17.023,17.023,0,0,0,2.9-.056c-.58.056-.37-.665.45-.86-.07.119.45.546.19.684l1.64-1.1c-.43.232.23.5.78.54a18.757,18.757,0,0,1,2.22-.627l-.93.069c2.29-.439,1.75-1.349,4.13-1.732a.343.343,0,0,0-.042.569,1.025,1.025,0,0,0,.862.178,7.508,7.508,0,0,1,1.36-1.1,7.414,7.414,0,0,1,2.81-1.079l.45.163,1.71-.251c-.54.257-1.53.627-2.52,1.035l-1.44.627c-.45.2-.86.4-1.2.527a3.886,3.886,0,0,0,1.57,0c.48.125-.63.3-1,.37.487-.048.978-.077,1.47-.088q.733-.042,1.47-.038c-.09-.182.47-.289,1.05-.389s1-.151,1-.307c-.41,0-1,.132-1.56.2s-1.08.157-1.6.264c-.1-.163.32-.483,1.08-.7a6.96,6.96,0,0,1,2.89-.289c.49.207-.57.583-.53.722a4.357,4.357,0,0,1,1.08,0,4.428,4.428,0,0,1,1,.182l-1,.044c1,.314,2.09-.125,3.31.527.47.125,1.16.791,1.37.627-.54-.577,0-1.813.75-1.97a22.791,22.791,0,0,1,2.78,1.355c.6.508-1.67.4-1.16.841a2.1,2.1,0,0,1,.81-.075c.46.213-.4.232.74.477.41-.289,2.25.627.72-.151.827.2,1.633.426,2.41.69-.27-.326,1.64-.458,2.79-.314-.11.075.07.251.16.326,1.13.276,2,.489,2.86.678.45.082.89.169,1.37.226a14.276,14.276,0,0,0,1.58.063c.21.094,1.3.194.84.358a5.005,5.005,0,0,1,1.31-.207c1.35.314-1.54.056-.52.433a11.765,11.765,0,0,1,2.78-.439c-.31-.333-2.28-.056-3.27.082,0-.452,1.71-.941,4.06-1.161,1.87-.125.81.289,1.13.226,3.52.063,3-.816,5.91-.5,1.16.282.06.577.31.784A30.5,30.5,0,0,1,183.85,16l1.27.132a7.609,7.609,0,0,1-2,.094c1,.257,5.93,0,8.65.251.48-.1,1.31-.2.91-.32l-.86.05c-.79-.232,1.61-.333.53-.439a16.658,16.658,0,0,1,4.05-.307l.31.326a3.415,3.415,0,0,0-1.51-.088c.67-.151,2.48.439,3.22,0l-1.14-.226a18.545,18.545,0,0,1,4-.433c-.66-.326-.33.038-1.35-.339.89.471-3.67,0-2.25.489-1.05-.439-1.81-.176-3.18-.552,0,.113.48.207-.72.157a1.209,1.209,0,0,1-.26.1h-.02a2.056,2.056,0,0,1,.61.169,27.009,27.009,0,0,1-3.15.383c-.72-.044.29-.125-.1-.238l-1,.2c-.1-.245-1.91-.4-.22-.546h-1.52a11.8,11.8,0,0,0-2.88-.075c-.71-.05-1.8.276-1.18.082l-2.37.163v-.056c-2.34,0-4.82.42-7.5,0-.163.007-.327.007-.49,0s-.307.007-.46,0a8.384,8.384,0,0,1-1.39-.207l-.13-.238c-.9-.069-2.58-.759-3.09-.627-.65-.753-4.38-1.255-6-1.782l-.23.238a33.5,33.5,0,0,0-3.84-.765v.251a14.2,14.2,0,0,1-2.4-.527,14.915,14.915,0,0,0-3.33-.558,2.878,2.878,0,0,1,1.27.088,4.082,4.082,0,0,0-.52-.144q-.3-.054-.61-.088t-.63-.056h-.52c-.673.028-1.342.089-2,.182s-1.33.22-2,.295a9.419,9.419,0,0,1-1.87.132,4.963,4.963,0,0,1-1.41.22l.14-.038-.24.038c-.283-.012-.567-.012-.85,0h.73a13.786,13.786,0,0,0-1.71.427l-.4-.194-.15.038c-.68.044-.43.226,0,.339a4.4,4.4,0,0,0-.74.339c-.75-.289-1.54.514-2.46.27-.29.307-2.9.947-2.92,1.449-.06-.044-.25,0,.07-.113a6.829,6.829,0,0,0-1.89.508l-.47-.245-1.18.747c-1,0-1.39-.056-.66-.471a9.339,9.339,0,0,1-1.73.627q-.8.226-1.56.508v-.22c-.64.088-1.62.5-2.06.333-1.589-.093-3.186-.116-4.78-.069-2.24.03-4.479-.048-6.7-.232.75.627-1.83-.3-2,.182-.23-.151-.78-.245-.13-.364-2,.119-3-.282-4.45.107-.23-.157.44-.213.24-.3-.16,0-.65.119-.86,0s.3-.119.63-.182c-2.08,0-2.31.452-2.48.878a3.7,3.7,0,0,0-2.34.075c-.36-.144-1-.3.32-.333-.72-.038-4.44-.245-4.52.1a3.9,3.9,0,0,0-1.21,0c-1.63,0-1.78-.05-3.38,0l.45.056c-.66.408-1.27.119-2.36,0l.05-.038c-.59-.176-.91-.32-1.15-.4a4.369,4.369,0,0,0-.52-.144A6.048,6.048,0,0,1,89.6,14.3l-.07.276c-.35.194-.83-.088-1.52-.439a6.505,6.505,0,0,0-2.54-.791l.56.251a4.425,4.425,0,0,1-1.69-.59,6.644,6.644,0,0,0-1.76-.684c-.21-.069.36-.05.68-.056-2.61-.508-.41.3-2.34.289-.36-.194.51-.464-.84-.508a3.627,3.627,0,0,0-.93,0c-.45.069-1,.151-1.55.251-1.16.213-2.47.546-3.58.753h.62c.08,0,0,.138-.43.358q-1.149.473-2.21,1.023c-.68.333-.92.389-1.13.671-.11,0-.16-.038-.18-.075a3.042,3.042,0,0,1-.58.151l-.41.063-.35.038c-.45,0-1-.05-1.33-.031a.951.951,0,0,0-.66-.665c-.4-.22-1-.464-1.5-.722-1.08-.514-2.1-1.054-1.61-1.324-.7-.458-1.4-.929-2.17-1.387h.15a6.048,6.048,0,0,0-3.08-1.186c-.37-.22,0-.163.08-.182a7.86,7.86,0,0,0-3.29-.872,6.12,6.12,0,0,0-1.46.119,10.36,10.36,0,0,0-1.53.464l-.38-.207c-.31.138-1.44.282-2.77.659a9.7,9.7,0,0,0-3.64,1.807.224.224,0,0,1,.1-.232c-.52.439-1.15.866-1.77,1.311-.3.226-.63.445-.92.671l-.44.339-.15.119-.11.075a1.05,1.05,0,0,0-.48.489,1.9,1.9,0,0,0,0,.935,1.545,1.545,0,0,1-.64,1.092c.43-.082.5-.188.56-.138a.452.452,0,0,1,0,.358c-.06.345-.4.809,0,.728a.861.861,0,0,1-.67.232.969.969,0,0,1-.65-.27.422.422,0,0,1-.17-.351c0-.082.12-.082.37-.05a1.24,1.24,0,0,0,.15.119.393.393,0,0,0-.16-.546,1.983,1.983,0,0,1-.49-.508,1.055,1.055,0,0,1-.17-.979l-.17-.314-.32-.627L40,14.014a.411.411,0,0,0-.05-.088l-.13-.182L39.3,13c-.36-.5-.71-1-1.07-1.5l-.54-.765a.844.844,0,0,0-.25-.251,1.649,1.649,0,0,0-.31-.176,3.041,3.041,0,0,0-1.92-.119,1.4,1.4,0,0,0-1,.659c-.34.521-.67,1.042-1,1.556l.37.389-.47.841c-.17.056-.36-.3,0-.841-.15-.05-.27.264-.33.627a3.234,3.234,0,0,0-.06.91c-.37.439-.4.056-.34-.351s.19-.86.08-.709l-.26.514h.1c-.06.358-.06.627-.1.929a2.371,2.371,0,0,1-.1.433.551.551,0,0,1-.19.345.31.31,0,0,1-.33-.257c-.04-.125,0-.257-.12-.257s-.06-.088-.25,0a.7.7,0,0,1-.53-.533v.985c-.26.038-.37-.791-.39.37a4.622,4.622,0,0,0-.33-1.681,13.677,13.677,0,0,0-.65-1.368,6.886,6.886,0,0,1-.72-1.456A7.81,7.81,0,0,1,27,8.788c0,.264-.44.514-.79-.345,1.26.094-.29-1.644.16-2.51-.22.715-1.32-2.378-1.59-1.255-.13-.358-.06-.408.08-.414s.3,0,.25-.339A10.914,10.914,0,0,0,22,1.165,8.968,8.968,0,0,0,19.27.155a10.313,10.313,0,0,0-3.43,0c0,.107.74.151-.1.414-.39,0-.8,0-1.21.038L13.32.776a1.212,1.212,0,0,0-.47.565,1.832,1.832,0,0,1-1,.627c.24-.05.58-.113.27.157a7.594,7.594,0,0,0-.94.715,9.228,9.228,0,0,0-.73.8,12.445,12.445,0,0,0-1,1.493C8.72,6.1,8.1,7.119,7.46,8.161a27.528,27.528,0,0,1-4.6,5.891c.63-.471.42-.1.15.314.25-.251.34.094.57.094L1.94,15.972c.32.439-1.16,1.8-.77,2.108l.26-.552c.13.86,2-.627,2.67-.339-.1-.966,2.38-1.82,2.28-3.382.34-.245.08.307.36.2a1.769,1.769,0,0,1,.72-1.525v.107a47.946,47.946,0,0,1,4-5.145L11,7.533a3.54,3.54,0,0,1,.82-.765c-.2-.722-1,1.393-1.25.7.6-.226,1.19-1.1,1.77-1.951a9.71,9.71,0,0,1,.87-1.154,1.382,1.382,0,0,1,.84-.445c.58-.54-.58,0,0-.552a2.345,2.345,0,0,1,.37-.038l-.07-.257a1.934,1.934,0,0,1,.36-.182A1.743,1.743,0,0,1,15,2.834a.744.744,0,0,1,.42.069,1.491,1.491,0,0,0-.38.27,3.188,3.188,0,0,0,.57-.213c.19-.088.38-.151.55-.245a3.749,3.749,0,0,1,.51-.176A1.566,1.566,0,0,1,17,2.514a4.941,4.941,0,0,0-.79.044,4.758,4.758,0,0,1,3.54.27,5.894,5.894,0,0,1,1.5,1.029,12.106,12.106,0,0,1,1.14,1.318l.1-.194C23.65,6.492,23,6.278,24,8l-.07-.056a3.871,3.871,0,0,1,.9,1.255c-.44-.4,0,.916-.54.383,1.23,1.656.72.8,2,1.807l-.18.326a2.639,2.639,0,0,1,1.15,1.2c-.62-.665-.19.627-.93-.088a1.747,1.747,0,0,0,.09.464,1.692,1.692,0,0,0,.09.282l.13.3a9.6,9.6,0,0,0,.56,1.06c.38.627.73,1.054,1,1.493a3.813,3.813,0,0,1,.57,1.4c.4,0,.35-.251.2-.54s-.45-.7-.62-1.06-.25-.508-.11-.351c0-.351.17-.27.4-.038a3.7,3.7,0,0,1,.77.96,12.008,12.008,0,0,1,.44,1.3,1.286,1.286,0,0,0,.44.728,2.287,2.287,0,0,0,1.64.276,2.644,2.644,0,0,1-.59.082,2.028,2.028,0,0,0,1.4-.32,1.779,1.779,0,0,0,.37-.339.688.688,0,0,1,.26-.282c0-.772.42-.671.27-1.412l-.57,1.311a15.044,15.044,0,0,0,.39-1.493,3.452,3.452,0,0,1,.64-1.525,5.607,5.607,0,0,1-.17,1.117c.23-.107.26-.778.51-.878a1.767,1.767,0,0,1-.29,1.255,5.874,5.874,0,0,0-.63,1.462c.29,0,.59-1.713.63-.627a1.608,1.608,0,0,1,.38-1.255,1.969,1.969,0,0,0,.56-1.387l.14.59a3.986,3.986,0,0,1,.26-.966V15.57a1.388,1.388,0,0,1,.23-.627c.08-.113.12-.063.22,0s.4.32.55.2c-.16-.075-.3-.094-.36-.163a.446.446,0,0,1-.11-.307c0-.264,0-.627-.26-.778.3-.427.73-.333.85-.125a1.384,1.384,0,0,1,.16.8.971.971,0,0,1-.19.527c-.07.082-.18,0-.23-.182,0,.063.09.113.17.069a.616.616,0,0,0,.19-.264c-.06.056-.22.075-.46.038,1.26,2.252.15-.552.9.37,0,.841.6,1.06,1.13,1.594a3.09,3.09,0,0,1,.24.251l-.28.3a2.044,2.044,0,0,0,.85.891.379.379,0,0,0,.36,0,.238.238,0,0,1,.28,0,5.655,5.655,0,0,0,.91.5,8.353,8.353,0,0,1-1-.031A3.408,3.408,0,0,0,40.89,19c-.12.082-.25.157-.38.238a4.768,4.768,0,0,0,2-.238,4.508,4.508,0,0,0,.54-.232c.18-.107.39-.213.64-.339-.16-.05-.18-.22-.08-.458a3.541,3.541,0,0,1,.74-1.092c.68-.546-.07.7,1-.9a2.9,2.9,0,0,1-.21.8,1.189,1.189,0,0,1-.74.722c0,.163-.17.489-.18.659a4.128,4.128,0,0,0,.69-.471,6.26,6.26,0,0,0,.61-.841l.27-.427.26-.339.43-.533a4.949,4.949,0,0,1-.59.552l.62-1.048a6.127,6.127,0,0,1,.43-.709c.34-.132.27.069.2.257a4.611,4.611,0,0,1,.7-.841c.15.226.42.333,0,.866a10.421,10.421,0,0,1,1.1-1.173c.2,0,1.06-.282.94-.113a8.776,8.776,0,0,0,1.43-.885,4.469,4.469,0,0,1,1.87-.74.949.949,0,0,1,.45-.22,6.452,6.452,0,0,1,1.69-.088c.38.038.8.088,1.55.182a4.5,4.5,0,0,1,.38.627c.52.194.41,0,.36-.194s0-.351,1,.05c1.38.627.11.5.42.828a5.893,5.893,0,0,1,3.12,1.681A9.031,9.031,0,0,1,61,13.807Zm17.87.941c-.16.038-.4.1-.62.144a.86.86,0,0,1-.53,0C78,14.573,78.3,14.679,78.87,14.748Zm28.43,2.2a2.681,2.681,0,0,1-1.19-.075,5.773,5.773,0,0,1,1.19.075Zm79.79-1.976h0c-.88-.075-.58-.038,0,.006Zm1.74.107c.18-.038.17-.075.09-.107a3.134,3.134,0,0,1-1,.056,1.59,1.59,0,0,0,.91.038ZM31.32,15.25a1.907,1.907,0,0,0,.18.151c-.17.157-.27.138-.27.1a.655.655,0,0,1,.09-.245Z" transform="translate(0 -0.011)" fill="#fff"/><path d="M104,27.5a.35.35,0,0,1-.16-.22C103.65,27.34,103.65,27.42,104,27.5Z" transform="translate(-3.835 -11.439)" fill="#fff"/><path d="M53.2,18.57h-.05a.28.28,0,0,0,0,.09Z" transform="translate(-1.963 -6.946)" fill="#fff"/><path d="M161.89,23.74a1.88,1.88,0,0,1-.55-.46C161.28,23.36,161.4,23.5,161.89,23.74Z" transform="translate(-5.971 -8.813)" fill="#fff"/><path d="M198.05,23.26l-1.11.11a3,3,0,0,1,1,.13C197.92,23.41,197.71,23.27,198.05,23.26Z" transform="translate(-7.306 -8.742)" fill="#fff"/><path d="M207.75,25.76c.17-.05.35,0,.51-.06v-.19C207.52,25.52,207,25.68,207.75,25.76Z" transform="translate(-9.189 -11.439)" fill="#fff"/><path d="M199.1,24.63c.09.35.79.23,1.57.16h-.14C200.76,24.3,199.92,24.46,199.1,24.63Z" transform="translate(-9.189 -9.243)" fill="#fff"/><path d="M200.85,24.77a5.77,5.77,0,0,1,.72,0C201.66,24.56,201.28,24.72,200.85,24.77Z" transform="translate(-9.189 -11.439)" fill="#fff"/><path d="M191,23.78c.37.09.23-.45.44-.31C191.89,23,189,24,191,23.78Z" transform="translate(-7.062 -8.839)" fill="#fff"/><path d="M199.74,25.78l-.28-.43-.44.35Z" transform="translate(-7.371 -11.439)" fill="#fff"/><path d="M193.57,25.51l1.25.11c0-.07.14-.12.33-.15C194.38,25.46,193.54,25.38,193.57,25.51Z" transform="translate(-7.194 -11.439)" fill="#fff"/><path d="M195.15,25.47a3.94,3.94,0,0,0,1-.08,8.119,8.119,0,0,0-1,.08Z" transform="translate(-7.236 -11.439)" fill="#fff"/><path d="M198.03,25.92l-.37-.09-.88-.02Z" transform="translate(-7.304 -11.439)" fill="#fff"/><path d="M180.15,25.52l-1.36.14c-.14.15.23.23.74.17C179.85,25.72,180.36,25.66,180.15,25.52Z" transform="translate(-6.64 -11.439)" fill="#fff"/><path d="M184.28,26.68a1.34,1.34,0,0,1-.61-.33v.54Z" transform="translate(-6.8 -11.439)" fill="#fff"/><path d="M180.31,26.83c-.14.15-2,.44-.25.39C180.2,27.08,181.56,26.94,180.31,26.83Z" transform="translate(-6.663 -11.439)" fill="#fff"/><path d="M160.51,21.58l.32.13.29-.84Z" transform="translate(-5.942 -8.002)" fill="#fff"/><path d="M143.81,22.78c1.5-.25.18-.65,1.57-.77.28-.31-1.14.1-.84-.17C143.72,22.33,143.22,22.36,143.81,22.78Z" transform="translate(-5.342 -8.401)" fill="#fff"/><path d="M144.54,21.84l.41-.26a1.94,1.94,0,0,0-.41.26Z" transform="translate(-5.347 -8.116)" fill="#fff"/><path d="M.78,27.06l-.57.89.53-.51Z" transform="translate(0 -11.439)" fill="#fff"/><path d="M.61,29.15H0l.23.77C.29,29.7.43,29.26.61,29.15Z" transform="translate(0 -11.439)" fill="#fff"/><path d="M81.41,24.65l.07-.13c-.13-.16-.34-.18-.77-.24Z" transform="translate(-2.99 -9.164)" fill="#fff"/><path d="M68.24,28.25l.41.09a4.58,4.58,0,0,1-.61-.65,4.182,4.182,0,0,0,.2.56Z" transform="translate(-2.519 -11.439)" fill="#fff"/><path d="M57.88,20.42c.28.28.71.54,1,.87C58.16,20.69,58.22,19.88,57.88,20.42Z" transform="translate(-2.146 -7.816)" fill="#fff"/></g></g><rect width="352" height="15" rx="7.5" transform="translate(359 653)" fill="#3082bd"/><rect width="197" height="9" rx="4.5" transform="translate(359 671)" fill="#1c6091"/><rect width="99" height="9" rx="4.5" transform="translate(359 683)" fill="#1c6091"/></g><g transform="translate(-6 -164)"><text transform="translate(433 639)" fill="#fff" font-size="22" font-family="SegoeUI, Segoe UI"><tspan x="-71.543" y="0">https://</tspan></text><g transform="translate(435 623.416)"><g transform="translate(0 0.011)"><path d="M248.45,23.33c.46,0,.3-.34.37-.4C248,23,248.47,23.42,248.45,23.33Z" transform="translate(-9.189 -8.667)" fill="#fff"/><path d="M240.82,24.2l.14-.15-1.12.37Z" transform="translate(-9.189 -9.077)" fill="#fff"/><path d="M233.69,24.25c.68.61,2.58-.12,3.86.09l.21.14.57-.5a32.17,32.17,0,0,1-4.64.27Z" transform="translate(-9.189 -9.095)" fill="#fff"/><path d="M229.87,22.94c.24.24-.82.22.89.07a.68.68,0,0,1-.16-.06A6.25,6.25,0,0,1,229.87,22.94Z" transform="translate(-9.189 -8.605)" fill="#fff"/><path d="M230.6,23C231.35,23,230.11,22.81,230.6,23Z" transform="translate(-9.189 -8.569)" fill="#fff"/><path d="M227.13,23.12l1-.22c-.21-.14-1.09-.17-.77-.28C226.34,22.75,226.55,22.89,227.13,23.12Z" transform="translate(-9.189 -8.574)" fill="#fff"/><path d="M226.19,23.57l.52-.09C226.62,23.42,226.48,23.4,226.19,23.57Z" transform="translate(-9.189 -8.777)" fill="#fff"/><path d="M227.79,23.28l-1.08.2c.14.1.16.3.49-.07C227.12,23.59,227.33,23.41,227.79,23.28Z" transform="translate(-9.189 -8.779)" fill="#fff"/><path d="M228.41,23.37c.56.13,1.27.21.28.43C230.59,23.7,230.3,23.27,228.41,23.37Z" transform="translate(-9.189 -8.837)" fill="#fff"/><path d="M233.33,24.89l.74.17.64-.21C234.39,25,233.28,24.69,233.33,24.89Z" transform="translate(-9.189 -11.439)" fill="#fff"/><path d="M221,22.84c-.06.13.33.35.41.52l.73-.16C221.72,23.11,221,23,221,22.84Z" transform="translate(-9.189 -8.664)" fill="#fff"/><path d="M221.37,23.36l-1.09.23C221.25,23.61,221.43,23.5,221.37,23.36Z" transform="translate(-9.189 -8.777)" fill="#fff"/><path d="M226.02,24.26l1.8-.49-2.14.5Z" transform="translate(-9.189 -9.01)" fill="#fff"/><path d="M216.78,22.86l.62-.31-1.1.47Z" transform="translate(-9.189 -8.539)" fill="#fff"/><path d="M214,22.93c.46-.25-.63-.42-.15-.58a7.39,7.39,0,0,0-2,.47A5.07,5.07,0,0,1,214,22.93Z" transform="translate(-9.189 -8.495)" fill="#fff"/><path d="M210.92,23.11a7.909,7.909,0,0,0,1-.29,4.31,4.31,0,0,0-1,.29Z" transform="translate(-9.189 -8.59)" fill="#fff"/><path d="M218.41,23.54a1.24,1.24,0,0,0-.86-.37l.43.37Z" transform="translate(-9.189 -8.745)" fill="#fff"/><path d="M218,23.55Z" transform="translate(-9.189 -8.781)" fill="#fff"/><path d="M218.52,23.54h-.11S218.48,23.59,218.52,23.54Z" transform="translate(-9.189 -8.784)" fill="#fff"/><path d="M223.15,23.94c-.64.21-2,.45-.68.75C222.93,24.43,222.19,24.26,223.15,23.94Z" transform="translate(-9.189 -9.15)" fill="#fff"/><path d="M219.06,24l1.16.07c0-.1-.23-.24.08-.34Z" transform="translate(-9.189 -8.947)" fill="#fff"/><path d="M218.49,24.12l.57-.12-.43-.03Z" transform="translate(-9.189 -8.982)" fill="#fff"/><path d="M212.91,23.44a6.57,6.57,0,0,1-1.67.21,19.46,19.46,0,0,0,2,.1C213.34,23.63,213.62,23.42,212.91,23.44Z" transform="translate(-9.189 -8.829)" fill="#fff"/><path d="M215.38,23.52h-.11C215.34,23.58,215.4,23.59,215.38,23.52Z" transform="translate(-9.189 -8.784)" fill="#fff"/><path d="M205.13,23.69l.1.07.02-.06Z" transform="translate(-9.189 -8.854)" fill="#fff"/><path d="M213.36,23.82a2,2,0,0,0,1.08-.14c-.37,0-.77.06-1.19.07C213.21,23.8,213.2,23.83,213.36,23.82Z" transform="translate(-9.189 -8.876)" fill="#fff"/><path d="M209.22,23.29a8.431,8.431,0,0,0,.86.2C209.83,23.38,209.31,23.2,209.22,23.29Z" transform="translate(-9.189 -8.739)" fill="#fff"/><path d="M215.1,23.45h.08C215,23.35,215,23.39,215.1,23.45Z" transform="translate(-9.189 -8.739)" fill="#fff"/><path d="M215.1,23.45a3,3,0,0,0-.66.23,3.906,3.906,0,0,0,.83-.13Z" transform="translate(-9.189 -8.81)" fill="#fff"/><path d="M203.3,26.07c.09-.34,1.4-.66,2.53-.31,1.12-.26.38-1.38-.6-2,0,.15,0,.29-1.18.5.41.18,2.55.41,1.59.73-1.52.19-1.25-.11-2-.29.63.43-1.93.64-1.6,1.26l1.34-.23C203.41,25.83,202.93,26,203.3,26.07Z" transform="translate(-9.189 -9.58)" fill="#fff"/><path d="M207.42,23.78l.47-.05a6,6,0,0,1-1.63-.45c-.79.17-.95.3-1,.42h2.33Z" transform="translate(-9.189 -8.824)" fill="#fff"/><path d="M210,23.72c-.37.37-1.5.54-.81.93,1.39,0,1-.31,1.8-.48-2.24.11.64-.21-1-.41a11.309,11.309,0,0,1,1.21-.11,6.236,6.236,0,0,1-1.16-.16h0c.1,0,.13.07,0,.05h0a.36.36,0,0,1-.1.14c-.65-.07-.11-.09.1-.14v-.05h0l-2.24.22a14.92,14.92,0,0,0,2.2.01Z" transform="translate(-9.189 -9.103)" fill="#fff"/><path d="M221.28,25.5c-.07,0-.07-.06-.07-.09C221.06,25.46,221,25.49,221.28,25.5Z" transform="translate(-9.189 -11.439)" fill="#fff"/><path d="M220.36,25.28a1.41,1.41,0,0,1,.82-.17c.46.11,0,.18,0,.3.32-.1,1.11-.27.11-.45l-.16.06a4.46,4.46,0,0,1-1.91-.63,3,3,0,0,0,1.14.89Z" transform="translate(-9.189 -9.407)" fill="#fff"/><path d="M215.12,24.59l-1.86.2,1,.31-.05-.19C215.22,25,215,24.74,215.12,24.59Z" transform="translate(-9.189 -11.439)" fill="#fff"/><path d="M204.92,23.51l.24-.39-1.07.56Z" transform="translate(-9.189 -8.781)" fill="#fff"/><path d="M202.49,23.57l.09-.34-.64.21Z" transform="translate(-9.189 -8.759)" fill="#fff"/><path d="M70.29,27.82c-.24,0-.45.1-.74.13A3.61,3.61,0,0,0,70.29,27.82Z" transform="translate(-2.576 -11.439)" fill="#fff"/><path d="M75,25.32l-.07-.18C74.88,25.33,74.88,25.42,75,25.32Z" transform="translate(-2.767 -11.439)" fill="#fff"/><path d="M143.64,18.14c-.9-.05-2-.23-1.75.11l.37.27a4.18,4.18,0,0,1,1.38-.38Z" transform="translate(-5.277 -6.836)" fill="#fff"/><path d="M104.47,26.14l.23.12.55-.34Z" transform="translate(-3.87 -11.439)" fill="#fff"/><path d="M103.88,27.68l-1-.26A5.65,5.65,0,0,0,103.88,27.68Z" transform="translate(-3.815 -11.439)" fill="#fff"/><path d="M53.14,18.68a5.79,5.79,0,0,0-.31.54C53.53,18.92,53.15,18.87,53.14,18.68Z" transform="translate(-1.954 -7.092)" fill="#fff"/><path d="M177.64,23.89a10.481,10.481,0,0,0-1.72-.21C176.76,23.89,177.43,24.21,177.64,23.89Z" transform="translate(-6.542 -8.93)" fill="#fff"/><path d="M70.84,23.67c-.13.12-.17.23-.15.3C70.85,23.83,70.91,23.74,70.84,23.67Z" transform="translate(-2.612 -8.913)" fill="#fff"/><path d="M174,23.69a1,1,0,0,0,.32.09,10.13,10.13,0,0,1,1.62-.1,3.14,3.14,0,0,0-1.94.01Z" transform="translate(-6.476 -8.846)" fill="#fff"/><path d="M15.07,5.05a.156.156,0,0,0-.12.06C14.91,5.17,15,5.11,15.07,5.05Z" transform="translate(0 -0.011)" fill="#fff"/><path d="M2.68,23.73c.06-.22.2-.56.33-.88a4.22,4.22,0,0,0-.33.88Z" transform="translate(0 -8.772)" fill="#fff"/><path d="M192.73,23.48Z" transform="translate(-7.125 -8.755)" fill="#fff"/><path d="M195.24,24.94a.214.214,0,0,0-.2.19.37.37,0,0,1,.2-.19Z" transform="translate(-7.209 -11.439)" fill="#fff"/><path d="M169,24.8h0C169.05,24.91,169,24.89,169,24.8Z" transform="translate(-6.242 -11.439)" fill="#fff"/><path d="M193.51,23.65a5.671,5.671,0,0,0-.66-.11,5.938,5.938,0,0,0,.66.11Z" transform="translate(-7.141 -8.809)" fill="#fff"/><path d="M193.4,23.47h.45C193.91,23.44,193.86,23.4,193.4,23.47Z" transform="translate(-7.156 -8.748)" fill="#fff"/><path d="M192,23.51a7.58,7.58,0,0,1,.84,0c-.1,0-.15,0-.12-.06Z" transform="translate(-7.115 -8.761)" fill="#fff"/><path d="M33.93,25.87h0C33.8,26.59,33.85,26.36,33.93,25.87Z" transform="translate(0 -11.439)" fill="#fff"/><path d="M132.26,26.63h-.03Z" transform="translate(-4.885 -11.439)" fill="#fff"/><path d="M130.45,27.42a2.8,2.8,0,0,1,1.78-.82l-.91-.84C131.05,26.31,130.76,26.87,130.45,27.42Z" transform="translate(-4.852 -11.439)" fill="#fff"/><path d="M61,13.807l.63.747c-1.48-.508-2.06-1.067-1.62-.333.5-.207,1.34.351,2.27.954s2.05,1.2,2.52.96c.2.169.41.345.65.514-.23-.119-.33-.1-.54-.22a2.224,2.224,0,0,0,1.68.565q.5,0,1,.031c.41.031.9.113,1.69.176l.4.038h.31c.148.008.3.023.44.044.21.038.23.082-.1.144a9.682,9.682,0,0,0,2.2-.533c.63-.22.61-.038-.07.157a7.357,7.357,0,0,0,1.54-.64c.39-.245.71-.477,1-.627h0a2.772,2.772,0,0,1,.55-.8c.5-.075-.13.144.06.182a3.616,3.616,0,0,1,.79-.471c.5.082-.22.427-.71.627a2.709,2.709,0,0,0,.66.075,1.072,1.072,0,0,0,.32-.157c.2-.157.65-.383,1.84-.264-.35.056-.69.125-1,.194.75.339,1.45.1,2.78.383-.29-.169-2.57-.583-1.31-.822a5.58,5.58,0,0,0,1.64-.082c0,.251.73.22,1.65.251l-.11.339c1,0,.93-.213,1.53-.3,1,.163,1.13.483,1.25.734.74.169.53.031.37-.144s-.3-.351.64-.163c1.293.422,2.629.788,4,1.1,1,.489-.36.119,0,.339.38.044.84.069,1.25.094s.13.132.06.157c1,.125.27-.257,1.83-.1a1.1,1.1,0,0,1,.71,0l1.23.2a6.91,6.91,0,0,0,2.66.038c.4.094-.2.207-.07.345a33.126,33.126,0,0,0,3.77-.577l1.56.238c-1.15-.27.33-.565,1.64-.8-.41-.125-.76-.238-1-.295l2.08-.163c.24.063,0,.176-.31.32l.38-.082c.73.138.34.333-.19.521l-.74-.226c-.52.207-1,.433-.9.627a2.964,2.964,0,0,1,.68-.088c-.14.056-.22.107-.16.138a1.827,1.827,0,0,0,.62-.119l.46.4.12-.151,2.69.282a38.444,38.444,0,0,1,6.73-1.023c-.77.276-.17.464-.22.8-.83-.364-2.4.125-4,0,.83.05.64.207.43.257l2.86-.282c-.07.276.6.213,1.34.333-.55-.546,2.14-.339,3.3-.508.07.182-.21.37-1.63.32,1.56.414,2-.627,3.55-.282a1.557,1.557,0,0,0-.66.069c.8-.157,2.77-.038,2.31.119h-.34q1.049.037,2.1,0a21.708,21.708,0,0,0,2.41-.163,5.931,5.931,0,0,0,2.87-.722,1.233,1.233,0,0,1-.23.69,27.46,27.46,0,0,0,3.25-2.1c-.16.445,1.69,1.06-.08,1.65a7.746,7.746,0,0,0,2.32-.521c-.4,0-1.2-.326-.74-.477a17.023,17.023,0,0,0,2.9-.056c-.58.056-.37-.665.45-.86-.07.119.45.546.19.684l1.64-1.1c-.43.232.23.5.78.54a18.757,18.757,0,0,1,2.22-.627l-.93.069c2.29-.439,1.75-1.349,4.13-1.732a.343.343,0,0,0-.042.569,1.025,1.025,0,0,0,.862.178,7.508,7.508,0,0,1,1.36-1.1,7.414,7.414,0,0,1,2.81-1.079l.45.163,1.71-.251c-.54.257-1.53.627-2.52,1.035l-1.44.627c-.45.2-.86.4-1.2.527a3.886,3.886,0,0,0,1.57,0c.48.125-.63.3-1,.37.487-.048.978-.077,1.47-.088q.733-.042,1.47-.038c-.09-.182.47-.289,1.05-.389s1-.151,1-.307c-.41,0-1,.132-1.56.2s-1.08.157-1.6.264c-.1-.163.32-.483,1.08-.7a6.96,6.96,0,0,1,2.89-.289c.49.207-.57.583-.53.722a4.357,4.357,0,0,1,1.08,0,4.428,4.428,0,0,1,1,.182l-1,.044c1,.314,2.09-.125,3.31.527.47.125,1.16.791,1.37.627-.54-.577,0-1.813.75-1.97a22.791,22.791,0,0,1,2.78,1.355c.6.508-1.67.4-1.16.841a2.1,2.1,0,0,1,.81-.075c.46.213-.4.232.74.477.41-.289,2.25.627.72-.151.827.2,1.633.426,2.41.69-.27-.326,1.64-.458,2.79-.314-.11.075.07.251.16.326,1.13.276,2,.489,2.86.678.45.082.89.169,1.37.226a14.276,14.276,0,0,0,1.58.063c.21.094,1.3.194.84.358a5.005,5.005,0,0,1,1.31-.207c1.35.314-1.54.056-.52.433a11.765,11.765,0,0,1,2.78-.439c-.31-.333-2.28-.056-3.27.082,0-.452,1.71-.941,4.06-1.161,1.87-.125.81.289,1.13.226,3.52.063,3-.816,5.91-.5,1.16.282.06.577.31.784A30.5,30.5,0,0,1,183.85,16l1.27.132a7.609,7.609,0,0,1-2,.094c1,.257,5.93,0,8.65.251.48-.1,1.31-.2.91-.32l-.86.05c-.79-.232,1.61-.333.53-.439a16.658,16.658,0,0,1,4.05-.307l.31.326a3.415,3.415,0,0,0-1.51-.088c.67-.151,2.48.439,3.22,0l-1.14-.226a18.545,18.545,0,0,1,4-.433c-.66-.326-.33.038-1.35-.339.89.471-3.67,0-2.25.489-1.05-.439-1.81-.176-3.18-.552,0,.113.48.207-.72.157a1.209,1.209,0,0,1-.26.1h-.02a2.056,2.056,0,0,1,.61.169,27.009,27.009,0,0,1-3.15.383c-.72-.044.29-.125-.1-.238l-1,.2c-.1-.245-1.91-.4-.22-.546h-1.52a11.8,11.8,0,0,0-2.88-.075c-.71-.05-1.8.276-1.18.082l-2.37.163v-.056c-2.34,0-4.82.42-7.5,0-.163.007-.327.007-.49,0s-.307.007-.46,0a8.384,8.384,0,0,1-1.39-.207l-.13-.238c-.9-.069-2.58-.759-3.09-.627-.65-.753-4.38-1.255-6-1.782l-.23.238a33.5,33.5,0,0,0-3.84-.765v.251a14.2,14.2,0,0,1-2.4-.527,14.915,14.915,0,0,0-3.33-.558,2.878,2.878,0,0,1,1.27.088,4.082,4.082,0,0,0-.52-.144q-.3-.054-.61-.088t-.63-.056h-.52c-.673.028-1.342.089-2,.182s-1.33.22-2,.295a9.419,9.419,0,0,1-1.87.132,4.963,4.963,0,0,1-1.41.22l.14-.038-.24.038c-.283-.012-.567-.012-.85,0h.73a13.786,13.786,0,0,0-1.71.427l-.4-.194-.15.038c-.68.044-.43.226,0,.339a4.4,4.4,0,0,0-.74.339c-.75-.289-1.54.514-2.46.27-.29.307-2.9.947-2.92,1.449-.06-.044-.25,0,.07-.113a6.829,6.829,0,0,0-1.89.508l-.47-.245-1.18.747c-1,0-1.39-.056-.66-.471a9.339,9.339,0,0,1-1.73.627q-.8.226-1.56.508v-.22c-.64.088-1.62.5-2.06.333-1.589-.093-3.186-.116-4.78-.069-2.24.03-4.479-.048-6.7-.232.75.627-1.83-.3-2,.182-.23-.151-.78-.245-.13-.364-2,.119-3-.282-4.45.107-.23-.157.44-.213.24-.3-.16,0-.65.119-.86,0s.3-.119.63-.182c-2.08,0-2.31.452-2.48.878a3.7,3.7,0,0,0-2.34.075c-.36-.144-1-.3.32-.333-.72-.038-4.44-.245-4.52.1a3.9,3.9,0,0,0-1.21,0c-1.63,0-1.78-.05-3.38,0l.45.056c-.66.408-1.27.119-2.36,0l.05-.038c-.59-.176-.91-.32-1.15-.4a4.369,4.369,0,0,0-.52-.144A6.048,6.048,0,0,1,89.6,14.3l-.07.276c-.35.194-.83-.088-1.52-.439a6.505,6.505,0,0,0-2.54-.791l.56.251a4.425,4.425,0,0,1-1.69-.59,6.644,6.644,0,0,0-1.76-.684c-.21-.069.36-.05.68-.056-2.61-.508-.41.3-2.34.289-.36-.194.51-.464-.84-.508a3.627,3.627,0,0,0-.93,0c-.45.069-1,.151-1.55.251-1.16.213-2.47.546-3.58.753h.62c.08,0,0,.138-.43.358q-1.149.473-2.21,1.023c-.68.333-.92.389-1.13.671-.11,0-.16-.038-.18-.075a3.042,3.042,0,0,1-.58.151l-.41.063-.35.038c-.45,0-1-.05-1.33-.031a.951.951,0,0,0-.66-.665c-.4-.22-1-.464-1.5-.722-1.08-.514-2.1-1.054-1.61-1.324-.7-.458-1.4-.929-2.17-1.387h.15a6.048,6.048,0,0,0-3.08-1.186c-.37-.22,0-.163.08-.182a7.86,7.86,0,0,0-3.29-.872,6.12,6.12,0,0,0-1.46.119,10.36,10.36,0,0,0-1.53.464l-.38-.207c-.31.138-1.44.282-2.77.659a9.7,9.7,0,0,0-3.64,1.807.224.224,0,0,1,.1-.232c-.52.439-1.15.866-1.77,1.311-.3.226-.63.445-.92.671l-.44.339-.15.119-.11.075a1.05,1.05,0,0,0-.48.489,1.9,1.9,0,0,0,0,.935,1.545,1.545,0,0,1-.64,1.092c.43-.082.5-.188.56-.138a.452.452,0,0,1,0,.358c-.06.345-.4.809,0,.728a.861.861,0,0,1-.67.232.969.969,0,0,1-.65-.27.422.422,0,0,1-.17-.351c0-.082.12-.082.37-.05a1.24,1.24,0,0,0,.15.119.393.393,0,0,0-.16-.546,1.983,1.983,0,0,1-.49-.508,1.055,1.055,0,0,1-.17-.979l-.17-.314-.32-.627L40,14.014a.411.411,0,0,0-.05-.088l-.13-.182L39.3,13c-.36-.5-.71-1-1.07-1.5l-.54-.765a.844.844,0,0,0-.25-.251,1.649,1.649,0,0,0-.31-.176,3.041,3.041,0,0,0-1.92-.119,1.4,1.4,0,0,0-1,.659c-.34.521-.67,1.042-1,1.556l.37.389-.47.841c-.17.056-.36-.3,0-.841-.15-.05-.27.264-.33.627a3.234,3.234,0,0,0-.06.91c-.37.439-.4.056-.34-.351s.19-.86.08-.709l-.26.514h.1c-.06.358-.06.627-.1.929a2.371,2.371,0,0,1-.1.433.551.551,0,0,1-.19.345.31.31,0,0,1-.33-.257c-.04-.125,0-.257-.12-.257s-.06-.088-.25,0a.7.7,0,0,1-.53-.533v.985c-.26.038-.37-.791-.39.37a4.622,4.622,0,0,0-.33-1.681,13.677,13.677,0,0,0-.65-1.368,6.886,6.886,0,0,1-.72-1.456A7.81,7.81,0,0,1,27,8.788c0,.264-.44.514-.79-.345,1.26.094-.29-1.644.16-2.51-.22.715-1.32-2.378-1.59-1.255-.13-.358-.06-.408.08-.414s.3,0,.25-.339A10.914,10.914,0,0,0,22,1.165,8.968,8.968,0,0,0,19.27.155a10.313,10.313,0,0,0-3.43,0c0,.107.74.151-.1.414-.39,0-.8,0-1.21.038L13.32.776a1.212,1.212,0,0,0-.47.565,1.832,1.832,0,0,1-1,.627c.24-.05.58-.113.27.157a7.594,7.594,0,0,0-.94.715,9.228,9.228,0,0,0-.73.8,12.445,12.445,0,0,0-1,1.493C8.72,6.1,8.1,7.119,7.46,8.161a27.528,27.528,0,0,1-4.6,5.891c.63-.471.42-.1.15.314.25-.251.34.094.57.094L1.94,15.972c.32.439-1.16,1.8-.77,2.108l.26-.552c.13.86,2-.627,2.67-.339-.1-.966,2.38-1.82,2.28-3.382.34-.245.08.307.36.2a1.769,1.769,0,0,1,.72-1.525v.107a47.946,47.946,0,0,1,4-5.145L11,7.533a3.54,3.54,0,0,1,.82-.765c-.2-.722-1,1.393-1.25.7.6-.226,1.19-1.1,1.77-1.951a9.71,9.71,0,0,1,.87-1.154,1.382,1.382,0,0,1,.84-.445c.58-.54-.58,0,0-.552a2.345,2.345,0,0,1,.37-.038l-.07-.257a1.934,1.934,0,0,1,.36-.182A1.743,1.743,0,0,1,15,2.834a.744.744,0,0,1,.42.069,1.491,1.491,0,0,0-.38.27,3.188,3.188,0,0,0,.57-.213c.19-.088.38-.151.55-.245a3.749,3.749,0,0,1,.51-.176A1.566,1.566,0,0,1,17,2.514a4.941,4.941,0,0,0-.79.044,4.758,4.758,0,0,1,3.54.27,5.894,5.894,0,0,1,1.5,1.029,12.106,12.106,0,0,1,1.14,1.318l.1-.194C23.65,6.492,23,6.278,24,8l-.07-.056a3.871,3.871,0,0,1,.9,1.255c-.44-.4,0,.916-.54.383,1.23,1.656.72.8,2,1.807l-.18.326a2.639,2.639,0,0,1,1.15,1.2c-.62-.665-.19.627-.93-.088a1.747,1.747,0,0,0,.09.464,1.692,1.692,0,0,0,.09.282l.13.3a9.6,9.6,0,0,0,.56,1.06c.38.627.73,1.054,1,1.493a3.813,3.813,0,0,1,.57,1.4c.4,0,.35-.251.2-.54s-.45-.7-.62-1.06-.25-.508-.11-.351c0-.351.17-.27.4-.038a3.7,3.7,0,0,1,.77.96,12.008,12.008,0,0,1,.44,1.3,1.286,1.286,0,0,0,.44.728,2.287,2.287,0,0,0,1.64.276,2.644,2.644,0,0,1-.59.082,2.028,2.028,0,0,0,1.4-.32,1.779,1.779,0,0,0,.37-.339.688.688,0,0,1,.26-.282c0-.772.42-.671.27-1.412l-.57,1.311a15.044,15.044,0,0,0,.39-1.493,3.452,3.452,0,0,1,.64-1.525,5.607,5.607,0,0,1-.17,1.117c.23-.107.26-.778.51-.878a1.767,1.767,0,0,1-.29,1.255,5.874,5.874,0,0,0-.63,1.462c.29,0,.59-1.713.63-.627a1.608,1.608,0,0,1,.38-1.255,1.969,1.969,0,0,0,.56-1.387l.14.59a3.986,3.986,0,0,1,.26-.966V15.57a1.388,1.388,0,0,1,.23-.627c.08-.113.12-.063.22,0s.4.32.55.2c-.16-.075-.3-.094-.36-.163a.446.446,0,0,1-.11-.307c0-.264,0-.627-.26-.778.3-.427.73-.333.85-.125a1.384,1.384,0,0,1,.16.8.971.971,0,0,1-.19.527c-.07.082-.18,0-.23-.182,0,.063.09.113.17.069a.616.616,0,0,0,.19-.264c-.06.056-.22.075-.46.038,1.26,2.252.15-.552.9.37,0,.841.6,1.06,1.13,1.594a3.09,3.09,0,0,1,.24.251l-.28.3a2.044,2.044,0,0,0,.85.891.379.379,0,0,0,.36,0,.238.238,0,0,1,.28,0,5.655,5.655,0,0,0,.91.5,8.353,8.353,0,0,1-1-.031A3.408,3.408,0,0,0,40.89,19c-.12.082-.25.157-.38.238a4.768,4.768,0,0,0,2-.238,4.508,4.508,0,0,0,.54-.232c.18-.107.39-.213.64-.339-.16-.05-.18-.22-.08-.458a3.541,3.541,0,0,1,.74-1.092c.68-.546-.07.7,1-.9a2.9,2.9,0,0,1-.21.8,1.189,1.189,0,0,1-.74.722c0,.163-.17.489-.18.659a4.128,4.128,0,0,0,.69-.471,6.26,6.26,0,0,0,.61-.841l.27-.427.26-.339.43-.533a4.949,4.949,0,0,1-.59.552l.62-1.048a6.127,6.127,0,0,1,.43-.709c.34-.132.27.069.2.257a4.611,4.611,0,0,1,.7-.841c.15.226.42.333,0,.866a10.421,10.421,0,0,1,1.1-1.173c.2,0,1.06-.282.94-.113a8.776,8.776,0,0,0,1.43-.885,4.469,4.469,0,0,1,1.87-.74.949.949,0,0,1,.45-.22,6.452,6.452,0,0,1,1.69-.088c.38.038.8.088,1.55.182a4.5,4.5,0,0,1,.38.627c.52.194.41,0,.36-.194s0-.351,1,.05c1.38.627.11.5.42.828a5.893,5.893,0,0,1,3.12,1.681A9.031,9.031,0,0,1,61,13.807Zm17.87.941c-.16.038-.4.1-.62.144a.86.86,0,0,1-.53,0C78,14.573,78.3,14.679,78.87,14.748Zm28.43,2.2a2.681,2.681,0,0,1-1.19-.075,5.773,5.773,0,0,1,1.19.075Zm79.79-1.976h0c-.88-.075-.58-.038,0,.006Zm1.74.107c.18-.038.17-.075.09-.107a3.134,3.134,0,0,1-1,.056,1.59,1.59,0,0,0,.91.038ZM31.32,15.25a1.907,1.907,0,0,0,.18.151c-.17.157-.27.138-.27.1a.655.655,0,0,1,.09-.245Z" transform="translate(0 -0.011)" fill="#fff"/><path d="M104,27.5a.35.35,0,0,1-.16-.22C103.65,27.34,103.65,27.42,104,27.5Z" transform="translate(-3.835 -11.439)" fill="#fff"/><path d="M53.2,18.57h-.05a.28.28,0,0,0,0,.09Z" transform="translate(-1.963 -6.946)" fill="#fff"/><path d="M161.89,23.74a1.88,1.88,0,0,1-.55-.46C161.28,23.36,161.4,23.5,161.89,23.74Z" transform="translate(-5.971 -8.813)" fill="#fff"/><path d="M198.05,23.26l-1.11.11a3,3,0,0,1,1,.13C197.92,23.41,197.71,23.27,198.05,23.26Z" transform="translate(-7.306 -8.742)" fill="#fff"/><path d="M207.75,25.76c.17-.05.35,0,.51-.06v-.19C207.52,25.52,207,25.68,207.75,25.76Z" transform="translate(-9.189 -11.439)" fill="#fff"/><path d="M199.1,24.63c.09.35.79.23,1.57.16h-.14C200.76,24.3,199.92,24.46,199.1,24.63Z" transform="translate(-9.189 -9.243)" fill="#fff"/><path d="M200.85,24.77a5.77,5.77,0,0,1,.72,0C201.66,24.56,201.28,24.72,200.85,24.77Z" transform="translate(-9.189 -11.439)" fill="#fff"/><path d="M191,23.78c.37.09.23-.45.44-.31C191.89,23,189,24,191,23.78Z" transform="translate(-7.062 -8.839)" fill="#fff"/><path d="M199.74,25.78l-.28-.43-.44.35Z" transform="translate(-7.371 -11.439)" fill="#fff"/><path d="M193.57,25.51l1.25.11c0-.07.14-.12.33-.15C194.38,25.46,193.54,25.38,193.57,25.51Z" transform="translate(-7.194 -11.439)" fill="#fff"/><path d="M195.15,25.47a3.94,3.94,0,0,0,1-.08,8.119,8.119,0,0,0-1,.08Z" transform="translate(-7.236 -11.439)" fill="#fff"/><path d="M198.03,25.92l-.37-.09-.88-.02Z" transform="translate(-7.304 -11.439)" fill="#fff"/><path d="M180.15,25.52l-1.36.14c-.14.15.23.23.74.17C179.85,25.72,180.36,25.66,180.15,25.52Z" transform="translate(-6.64 -11.439)" fill="#fff"/><path d="M184.28,26.68a1.34,1.34,0,0,1-.61-.33v.54Z" transform="translate(-6.8 -11.439)" fill="#fff"/><path d="M180.31,26.83c-.14.15-2,.44-.25.39C180.2,27.08,181.56,26.94,180.31,26.83Z" transform="translate(-6.663 -11.439)" fill="#fff"/><path d="M160.51,21.58l.32.13.29-.84Z" transform="translate(-5.942 -8.002)" fill="#fff"/><path d="M143.81,22.78c1.5-.25.18-.65,1.57-.77.28-.31-1.14.1-.84-.17C143.72,22.33,143.22,22.36,143.81,22.78Z" transform="translate(-5.342 -8.401)" fill="#fff"/><path d="M144.54,21.84l.41-.26a1.94,1.94,0,0,0-.41.26Z" transform="translate(-5.347 -8.116)" fill="#fff"/><path d="M.78,27.06l-.57.89.53-.51Z" transform="translate(0 -11.439)" fill="#fff"/><path d="M.61,29.15H0l.23.77C.29,29.7.43,29.26.61,29.15Z" transform="translate(0 -11.439)" fill="#fff"/><path d="M81.41,24.65l.07-.13c-.13-.16-.34-.18-.77-.24Z" transform="translate(-2.99 -9.164)" fill="#fff"/><path d="M68.24,28.25l.41.09a4.58,4.58,0,0,1-.61-.65,4.182,4.182,0,0,0,.2.56Z" transform="translate(-2.519 -11.439)" fill="#fff"/><path d="M57.88,20.42c.28.28.71.54,1,.87C58.16,20.69,58.22,19.88,57.88,20.42Z" transform="translate(-2.146 -7.816)" fill="#fff"/></g></g><rect width="352" height="15" rx="7.5" transform="translate(359 653)" fill="#3082bd"/><rect width="197" height="9" rx="4.5" transform="translate(359 671)" fill="#1c6091"/><rect width="99" height="9" rx="4.5" transform="translate(359 683)" fill="#1c6091"/></g><g transform="translate(269 311)" fill="#456d8a" stroke="#262766" stroke-width="1"><rect width="519" height="124" rx="24" stroke="none"/><rect x="0.5" y="0.5" width="518" height="123" rx="23.5" fill="none"/></g><text transform="translate(472 379)" fill="#fff" font-size="30" font-family="SegoeUI-Bold, Segoe UI" font-weight="700"><tspan x="-180.571" y="0">Ad . https:// </tspan></text><text transform="translate(604 378)" fill="#fff" font-size="30" font-family="SegoeUIBlack, Segoe UI"><tspan x="-128.569" y="0"> </tspan><tspan y="0" font-family="SegoeUI-Bold, Segoe UI" font-weight="700"> </tspan></text><path d="M16986,281.837h352" transform="translate(-16633 15)" fill="none" stroke="#18537d" stroke-linecap="round" stroke-width="2"/><g transform="translate(353 258.364)"><g transform="translate(0)"><path d="M14.076,11.127a6.661,6.661,0,0,1-6.015,3.85,8.47,8.47,0,0,1-1.711-.116,7.719,7.719,0,0,1-5.221-3.408c-.027-.04-.05-.08-.073-.12s-.083-.139-.123-.213a6.892,6.892,0,0,1-.887-2.7A8.177,8.177,0,0,1,0,7.523V7.028a2.823,2.823,0,0,1,.023-.289s0-.017,0-.023a2.011,2.011,0,0,1,.043-.332V6.321q.023-.169.06-.332c.023-.12.05-.239.08-.355a6.348,6.348,0,0,1,.219-.7A5.829,5.829,0,0,1,.691,4.3c.08-.173.169-.332.266-.508.05-.09.1-.176.159-.262A7.832,7.832,0,0,1,4.836.545,5.69,5.69,0,0,1,7.211,0,7.971,7.971,0,0,1,10.17.6l1.564.681.94.5a.179.179,0,0,1,.043.279h0L11.625,3.228a.176.176,0,0,1-.2.037c-3.531-1.651-5.776-1.521-7.669.389A5.613,5.613,0,0,0,2.783,10a5.45,5.45,0,0,0,5.773,2.866,4.263,4.263,0,0,0,3.929-3.893.183.183,0,0,0-.176-.213H7.942a.179.179,0,0,1-.179-.176V6.925a.179.179,0,0,1,.179-.176h6.268a.179.179,0,0,1,.173.126,6.025,6.025,0,0,1-.306,4.251Z" transform="translate(0)" fill="#fff"/><path d="M119.637,16.547a.179.179,0,0,1,.183.179c0,3.092.09,6.181-.03,9.26A4.04,4.04,0,0,1,116.335,30a4.552,4.552,0,0,1-5.1-2.558.179.179,0,0,1,.08-.249l1.312-.614a.176.176,0,0,1,.219.06c.893,1.242,2.023,1.963,3.564,1.329,1.242-.5,1.435-1.591,1.438-2.78a.176.176,0,0,0-.242-.163c-2.627,1.03-4.4.741-5.8-.92a4.906,4.906,0,0,1-.415-5.779,4.548,4.548,0,0,1,5.573-1.82A8.4,8.4,0,0,0,119.637,16.547Zm-1.677,4.441a2.617,2.617,0,1,0-5.181-.04,2.731,2.731,0,0,0,2.494,2.916A2.678,2.678,0,0,0,117.96,20.988Z" transform="translate(-73.894 -10.818)" fill="#fff"/><path d="M52.076,15.906a4.829,4.829,0,1,1-4.982,4.65A4.829,4.829,0,0,1,52.076,15.906ZM54.7,20.759a2.8,2.8,0,0,0-2.657-2.969,2.764,2.764,0,0,0-2.787,2.83,2.734,2.734,0,1,0,5.444.139Z" transform="translate(-31.449 -10.622)" fill="#fff"/><path d="M88.742,20.663a4.889,4.889,0,1,1-4.879-4.753A4.889,4.889,0,0,1,88.742,20.663Zm-7.609,0a2.73,2.73,0,1,0,5.437.023,2.769,2.769,0,0,0-2.7-2.92,2.8,2.8,0,0,0-2.74,2.906Z" transform="translate(-52.737 -10.626)" fill="#fff"/><path d="M159.126,22.514l1.06.734a.176.176,0,0,1,.043.249,4.462,4.462,0,0,1-5.454,1.724,4.809,4.809,0,0,1-3.006-5.092,4.59,4.59,0,0,1,4.1-4.225c1.993-.206,3.627,1,4.554,3.444a.183.183,0,0,1-.1.229l-5.779,2.455a.173.173,0,0,0-.09.239c.867,1.784,2.252,1.853,4.467.246a.179.179,0,0,1,.206,0Zm-5.314-2.362,4.129-1.89h0a2.188,2.188,0,0,0-2.82-.744,2.165,2.165,0,0,0-1.289,2.634Z" transform="translate(-101.333 -10.607)" fill="#fff"/><rect width="1.767" height="14.01" rx="0.53" transform="translate(47.414 0.81)" fill="#fff"/></g></g><rect width="277" height="30" rx="14" transform="translate(428 253)" fill="#fff"/></g></svg>