<svg xmlns="http://www.w3.org/2000/svg" width="71.552" height="71.386" viewBox="0 0 71.552 71.386"><path d="M579.25,206.88,564.1,208c12,8,18.32,17.32,14,30.7-3.23,10.07-10.53,15.07-22,15.31-.26-4.2-.51-8.42-.87-14.41-8.15,12.73-18.56,18.71-32.27,13.58-8.94-3.35-14.09-10.5-14.7-21.39L522,230.3c-11.23-8.58-17.59-18.45-12.07-32,3.67-9,10.48-14.11,21.3-14.21.38,4.36.73,8.44,1.25,14.4,8.09-12.25,18-17.76,31-13.36C573.08,188.41,578.33,195.71,579.25,206.88Zm-24,1.48H532.72v21.95H555.2Z" transform="translate(-507.908 -183.628)" fill="#ffcc37"/></svg>