<svg xmlns="http://www.w3.org/2000/svg" width="71.521" height="71.338" viewBox="0 0 71.521 71.338"><path d="M35.414,71.338v0c-.885-2.952-1.731-5.777-3.66-12.235L23.79,69.852,17.6,61.761l-6.3,8.584-.557-2.175,0-.009c-.446-1.74-.951-3.711-1.527-5.969L.09,60.957l10.03-7.168L0,47.2l9.4-1.887c.11-6.676.11-6.676-8.675-8.684l9.367-6.6L1.124,24.084l8.9-5.692L.492,11.364,9.518,9.457Q10.26,5.441,11.083,1l7.2,10.32,2.748-1.365c.193-.935.387-1.869.587-2.831l0-.014c.449-2.164.914-4.4,1.466-7.113C24.57,1.083,25,3.179,25.406,5.206c.534,2.636,1.039,5.127,3.794,5.127a10.356,10.356,0,0,0,4.138-1.167l0-.013c.4-2.475.851-5.28,1.373-8.56l7.622,10.6,2.577-1.616L46.918.753l7.171,10.381,2.688-1.546c.666-2.962,1.318-5.958,1.935-8.9l1.615.11L61.9,9.437l9.388,1.716L60.257,18.422l1.274,2.771,9.5,1.937L61.36,30.378,69.755,35.9l-9.247,6.8,1.564,2.831,8.806,1.184-9.448,8.3,10.09,5.02L61.942,62.6c-.354,2.314-.74,4.86-1.113,7.322v0l-.151,1-1.464.372c-.925-3.018-1.869-6.068-3.771-12.2L47.5,69.551l-7.141-7.71-4.943,9.495Zm.4-54.37c-3.034,9.987-8.9,15.847-19.032,19a26.827,26.827,0,0,1,12.177,6.77,29.737,29.737,0,0,1,6.823,11.636,28.9,28.9,0,0,1,6.85-11.655,27.5,27.5,0,0,1,12.111-6.77V35.94a29.571,29.571,0,0,1-12.153-7.012A27.736,27.736,0,0,1,35.811,16.967Z" fill="#ffcc37"/></svg>