<svg xmlns="http://www.w3.org/2000/svg" width="84.705" height="80.988" viewBox="0 0 84.705 80.988"><path d="M99.851,119.007H19.54l27.452-28.88L56.348,99.3c.6-.675,1.163-1.311,1.711-1.95Q78.151,74.078,98.238,50.8c.52-.6,1.075-1.167,1.612-1.752ZM96.075,58.9l-.236-.164a3.228,3.228,0,0,1-.292.481c-2.924,3.373-5.847,6.747-8.739,10.14a1.99,1.99,0,0,0-.351,1.2q-.02,21.945-.02,43.885v.886h9.632ZM82.781,115.363V74.053c-.155.139-.238.2-.306.274-3.245,3.751-6.5,7.493-9.72,11.269a2.2,2.2,0,0,0-.45,1.329q-.04,13.766-.02,27.536v.9Zm-14.094,0V90.45l-.18-.13a2.364,2.364,0,0,1-.236.425c-3.313,3.823-6.637,7.658-9.931,11.505a1.716,1.716,0,0,0-.335,1.037c-.022,3.8-.016,7.6-.011,11.4,0,.211.027.423.045.675Zm-21.7-20.222c-.915.963-1.822,1.849-2.64,2.811a2.208,2.208,0,0,0-.513,1.3c-.034,5.094-.022,10.188-.022,15.281v.812h10.5a1.412,1.412,0,0,0,.067-.27V102.927a1.124,1.124,0,0,0-.308-.706C51.735,99.882,49.394,97.554,46.986,95.141Zm-6.758,7.129L27.859,115.339h12.38Z" transform="translate(-15.146 -38.019)" fill="#171a6e"/><path d="M31.311,40.444l8.843,8.3L78.7,3.6h-3V0h8.771V8.818H80.994V6.695l-.207-.1L40.336,53.931,31.485,45.45,2.683,77.081,0,74.765Z" fill="#171a6e"/></svg>