<svg xmlns="http://www.w3.org/2000/svg" width="103.347" height="71.338" viewBox="0 0 103.347 71.338"><path d="M508.783,108.274,493.452,97.343c-9.341,6.4-19.25,13.586-30.1,1.7-1.008-1.107-5.025-1.207-6.189-.156-10.732,9.738-20.783,8.787-29.556-2.4l-16.638,11.783-2.513-2.839L425.779,90.43c10.207,8.518,19.008,7.637,32.1,3.833,10.051-2.839,24.659,4.926,38.329-1.107,2.839-1.249,10.15,7.552,15.4,11.712Z" transform="translate(-408.261 -90.43)" fill="#ffcc37"/><path d="M426.576,137.29c10.207,9.639,17.447,8.731,28.875,5.153,11.953-3.748,26.972,6.062,41.168-1.576,2.144-1.15,9.611,7.652,14.622,11.854-.809.937-1.6,1.888-2.413,2.839-2.513-1.647-5.068-3.222-7.524-4.954-1.931-1.349-5.111-4.358-5.366-4.117-14.608,13.77-32.466-6.275-47.287,4.6-2.044,1.491-6.459,3.109-7.425,2.186-11.115-10.491-21.223-7.311-31.132,4-.6-1.42-1.178-2.967-1.775-4.458Z" transform="translate(-408.32 -103.731)" fill="#ffcc37"/><path d="M470.221,165.678c-5.925-6.942-10.328-7.879-18.312-3.521-6.41,3.492-15.734.114-23.995.809-10.484.909-10.622-3.677-18.165,3.166,3.373-14.2,8.027-16.865,15.881-10.519,2.206,1.774,5.484.128,8.252-.27a4.477,4.477,0,0,0,2.171-2.158c6.7-10.434,11.392,14.04,19.03,2.144C463.007,143.078,466.026,158.68,470.221,165.678Z" transform="translate(-368.947 -94.795)" fill="#ffcc37"/><path d="M409.11,117.856c7.907-9.114,12.549-17.9,29.159-10.619,10.775,4.727,31.231,4.543,42.2.114,16.382-6.615,21.408.795,28.818,10.718a41.826,41.826,0,0,1-6.048-2.626c-2.385-1.42-5.749-5.338-6.559-4.812-14.963,9.554-30.961-3.577-45.91,2.385-3.336,1.32-8.66,4.443-9.852,3.322C429.68,105.733,419.672,109.168,409.11,117.856Z" transform="translate(-407.988 -84.51)" fill="#ffcc37"/></svg>