<svg xmlns="http://www.w3.org/2000/svg" width="75.713" height="80.988" viewBox="0 0 75.713 80.988"><g transform="translate(0.019)"><g transform="translate(-0.019)"><path d="M55.782,11.356c0-2.663-.023-5.326.011-7.989,0-.74-.194-1.017-.981-1.01-4.06.034-8.12.015-12.18.017-.983,0-1,.015-1,1.036V37.737c0,1.526-.323,1.849-1.847,1.849-1.213,0-2.426-.017-3.639.017-.247,0-.655.066-.736.317s.184.486.353.655Q41.959,46.8,48.169,53c.423.423.721.364,1.114-.032Q55.452,46.782,61.63,40.6c.18-.18.423-.3.366-.712s-.507-.281-.763-.287c-1.319-.03-2.638,0-3.954-.017-1.057,0-1.492-.423-1.494-1.479q-.013-10.124,0-20.247ZM6.032,36.02c0-7.539.044-15.08-.03-22.615A3.029,3.029,0,0,1,9.289,10.1c2.551.106,5.11.025,7.744.025.015-.3.038-.556.038-.812V5.751a2.789,2.789,0,0,1,3.136-3.1q6.049-.017,12.1,0c2.19,0,3.257,1.057,3.259,3.244V23.568h3.6v-.953c0-6.355.027-12.709-.019-19.062A3.349,3.349,0,0,1,41.329,0H56.041a3.275,3.275,0,0,1,2.2,3.523c-.057,2.61-.013,5.22-.015,7.831V37.179c1.027,0,1.974.055,2.91,0a2.9,2.9,0,0,1,2.9,4.343,2.3,2.3,0,0,1-.2.239c.945,0,2.056-.011,2.993,0a2.69,2.69,0,0,1,2.836,2.824c.019,3.084,0,6.169,0,9.253v.987c1.095,0,2.143-.04,3.187,0a2.706,2.706,0,0,1,2.783,3.295,3.3,3.3,0,0,1-.845,1.553Q68.674,65.872,62.492,72a2.735,2.735,0,0,1-4.136-.021c-.543-.528-1.057-1.08-1.634-1.663-4.787,6.6-11.1,10.375-19.233,10.658s-14.651-2.982-19.823-9.145a.342.342,0,0,0-.154.021c-1.811,1.5-3.008,1.458-4.662-.2q-5.89-5.9-11.808-11.8A2.978,2.978,0,0,1,0,57.331a2.613,2.613,0,0,1,2.388-2.437c1.175-.082,2.361-.017,3.639-.017V42.822Zm2.386,8.524V55.617c0,1.243-.4,1.632-1.668,1.636-1.211,0-2.424-.013-3.637.011a2.428,2.428,0,0,0-.687.235,2.483,2.483,0,0,0,.342.657q5.945,5.969,11.907,11.918c.588.588.647.566,1.395-.281-6.152-11.971-4.358-22.519,5.373-31.815-3.071-3.077-6.205-6.212-9.346-9.331a2.94,2.94,0,0,1-1.057-2.517,2.81,2.81,0,0,1,2.946-2.519c1-.021,1.993,0,3.035,0V12.5H9.565c-1.148,0-1.148,0-1.148,1.116Zm28-7.366c.909.03,1.818,0,2.762,0,0-.526-.019-.921,0-1.315.03-.454-.182-.617-.609-.594a45.027,45.027,0,0,0-5.816.317A21.68,21.68,0,1,0,58.337,56.9a20.772,20.772,0,0,0-1.562-8.08c-.556.569-1.014,1.08-1.518,1.541A.873.873,0,0,0,55,51.4l-2.126,1.45A17.477,17.477,0,0,0,50,55.579c-.41.6-.12,1.68-.146,2.536a.769.769,0,0,1-.011.156A13.271,13.271,0,1,1,33.14,44.1c.7-.19,1.412-.319,2.114-.476-.818-.957-2.443-3.012-2.509-3,0,0-3.415-3.174,3.669-3.443ZM39.322,26.06H34.9c-1.391,0-1.771-.4-1.771-1.8q0-9.171.011-18.343c0-.634-.144-.883-.833-.877q-6.011.044-12.02,0c-.634,0-.824.192-.812.818.034,1.87.011,3.741.011,5.613V24.434c0,1.184-.423,1.613-1.625,1.621H14.38c-.283,0-.566.03-.845.046,0,.634,8.1,9.058,10.024,10.5a2.537,2.537,0,0,0,.275-.135,24.022,24.022,0,0,1,8.4-3.28,1.627,1.627,0,0,0,.793-.463q2.889-2.855,5.757-5.753a5.16,5.16,0,0,0,.539-.907ZM25.736,56.9c.1.78.135,1.577.309,2.34a10.86,10.86,0,0,0,21.26-.3c.372-1.864.3-3.43-1.412-4.9-2.7-2.3-5.072-4.986-7.609-7.475a1.932,1.932,0,0,0-1.16-.509A10.932,10.932,0,0,0,25.736,56.9Zm41.543-6.512c0-1.792-.021-3.593.011-5.379.013-.634-.173-.93-.845-.881-.577.042-1.158,0-1.739,0-1.057,0-2.23-.273-3.128.106S60.028,45.69,59.218,46.4a1.009,1.009,0,0,0-.275,1.357,23.477,23.477,0,0,1,1.564,12.529,23.91,23.91,0,0,1-2.3,7.347.659.659,0,0,0,.142.941c.569.511,1.1,1.057,1.627,1.617a.569.569,0,0,0,.938,0L72.99,58.1a1.989,1.989,0,0,0,.279-.6,2,2,0,0,0-.615-.228c-1.291-.021-2.585,0-3.876-.013-1.057,0-1.492-.44-1.5-1.479C67.275,53.975,67.279,52.182,67.279,50.388ZM39.085,32.9V30.434l-2.395,2.3Z" transform="translate(0.019)" fill="#171a6e"/><path d="M154.436,241.29c-.125,1.591-.463,2.143-1.268,2.13s-1.095-.524-1.2-2a19.1,19.1,0,0,1-2.249-1.1,3.9,3.9,0,0,1-1.951-3.487,1.08,1.08,0,0,1,1.088-1.124,1.128,1.128,0,0,1,1.268.945,2.765,2.765,0,0,0,3.215,2.3,4.931,4.931,0,0,0,2.232-.845,1.475,1.475,0,0,0-.336-2.661c-.812-.361-1.691-.562-2.536-.845a19.714,19.714,0,0,1-2.008-.691,3.259,3.259,0,0,1-.752-5.706,2.862,2.862,0,0,1,.993-.634,1.318,1.318,0,0,0,1.139-1.532c-.032-.672.535-1.008,1.194-.981a1.04,1.04,0,0,1,1.112,1.095c-.061.829.306,1.086,1,1.374a3.662,3.662,0,0,1,2.42,3.065,1.206,1.206,0,0,1-.962,1.479,1.148,1.148,0,0,1-1.41-1.044,1.684,1.684,0,0,0-1.6-1.479,2.5,2.5,0,0,0-2.589.769.845.845,0,0,0,.423,1.4c.845.334,1.752.545,2.621.845a14.944,14.944,0,0,1,2.2.829,3.875,3.875,0,0,1,1.008,6.267A6.013,6.013,0,0,1,154.436,241.29Z" transform="translate(-116.528 -177.488)" fill="#171a6e"/></g></g></svg>