<svg xmlns="http://www.w3.org/2000/svg" width="71.181" height="71.338" viewBox="0 0 71.181 71.338"><path d="M277.85,865.78a35.591,35.591,0,1,1-35.35-35.49A35.591,35.591,0,0,1,277.85,865.78Zm-55.35,20c12.57,11.87,28.89,11.9,40.33.08a28.57,28.57,0,0,0-.58-40.22c-10.81-10.79-31.17-11-39.53.78,14.7,4,20.72,9.77,20.58,19.74s-6.01,15.64-20.8,19.6Zm15.24-17.37v-4.87c-4.36-2.83-8.45-7.24-13.17-8.1-6.4-1.17-10.49,3.86-10.66,10.2-.19,6.83,4,12.19,10.75,11.2,4.67-.71,8.74-5.49,13.08-8.45Z" transform="translate(-206.67 -830.288)" fill="#ffcc37"/></svg>