<svg xmlns="http://www.w3.org/2000/svg" width="86.372" height="80.988" viewBox="0 0 86.372 80.988"><g transform="translate(-0.031)"><g transform="translate(0.031)"><path d="M86.4,62.935c-.757,1.471-1.981,1.877-3.594,1.872-12.392-.047-24.785-.025-37.177-.025H44.58c-.016.259-.041.451-.041.633v7.167a.876.876,0,0,0,.534.9A3.931,3.931,0,0,1,47.041,78.2a4.033,4.033,0,0,1-4.319,2.76,3.993,3.993,0,0,1-3.47-3.675,3.729,3.729,0,0,1,2.028-3.7,1.136,1.136,0,0,0,.658-1.185c-.027-2.5-.011-5-.011-7.607H40.892c-12.534,0-25.066-.027-37.6.029-1.785,0-3.463-1.036-3.24-3.236a16.763,16.763,0,0,0,0-1.683c0-1.917.694-2.76,2.632-3.136V10.721c-.16-.025-.345-.047-.527-.083a2.593,2.593,0,0,1-2.1-2.5c-.018-1.769,0-3.54,0-5.311A2.59,2.59,0,0,1,2.823.029h8.093q36,0,72-.029c1.6,0,2.774.424,3.49,1.881V8.787a2.939,2.939,0,0,1-2.645,1.9V56.73c1.577.37,1.8.539,2.645,1.99ZM14.19,8.127H83.812V2.607H2.642v5.52H14.19Zm64.5,48.682h2.4V10.673H5.326V56.807H78.693ZM72.179,59.38H2.613v2.769h81.2V59.38H72.179ZM43.242,75.587a1.383,1.383,0,1,0,1,.439,1.381,1.381,0,0,0-1-.439Z" transform="translate(-0.031)" fill="#171a6e"/><path d="M136.493,103.677c0-2.756-.018-5.509,0-8.265a4.8,4.8,0,0,1,4.2-5.072,5.272,5.272,0,0,1,2.843.451c5.721,2.78,11.4,5.649,17.079,8.506a4.883,4.883,0,0,1-.025,8.826c-5.658,2.841-11.311,5.705-17.011,8.49-3.429,1.676-7.037-.676-7.091-4.587C136.464,109.243,136.493,106.458,136.493,103.677Zm2.618.014c0,2.753.081,5.509-.027,8.258a2.4,2.4,0,0,0,3.623,2.267c5.491-2.805,11.016-5.538,16.538-8.28a2.369,2.369,0,0,0,.018-4.459c-5.525-2.744-11.059-5.471-16.545-8.289a2.408,2.408,0,0,0-3.639,2.253C139.194,98.182,139.111,100.94,139.111,103.691Z" transform="translate(-105.735 -69.957)" fill="#171a6e"/></g></g></svg>