<svg xmlns="http://www.w3.org/2000/svg" width="81" height="80.988" viewBox="0 0 81 80.988"><g transform="translate(-0.01)"><g transform="translate(0.01)"><path d="M77.936,73.217h2.008c.666,0,1.063.3,1.063,1v5.833a.831.831,0,0,1-.926.933H1.569C.1,80.988.01,80.9.01,79.445V74.484c0-1.047.236-1.273,1.311-1.281H3.074V56.429H1.309c-1.132,0-1.3-.165-1.3-1.269V49.944c0-1.12.206-1.314,1.361-1.314H27.389V35.937H25.353c-.971-.017-1.247-.293-1.255-1.283q-.014-2.6,0-5.216c0-1.016.3-1.311,1.316-1.314h7.709V24.292c0-1.181.191-1.33,1.33-1.5a2.022,2.022,0,0,0,1.127-.709,9.609,9.609,0,0,0,1.739-4.829,1.082,1.082,0,0,0-.236-.607c-.071-.118-.236-.175-.335-.281a10.036,10.036,0,0,0-2.1-2.226c-.808-.449-1.947-.258-2.889-.522C28.9,12.807,27.03,10.2,26.811,6.7a14.716,14.716,0,0,1,.1-2.991A2.067,2.067,0,0,1,28.984,1.9c.473-.033.945-.017,1.418-.017h1.363c.094-.262.17-.508.269-.744A1.642,1.642,0,0,1,33.643,0h13.7c1.181,0,1.607.806,1.878,1.89.893,0,1.8-.024,2.7,0a2.087,2.087,0,0,1,2.223,1.862,9.966,9.966,0,0,1-1.2,7.064,6.391,6.391,0,0,1-5.618,3.093,1.6,1.6,0,0,0-1.451.739c-.51.673-1.181,1.219-1.758,1.85-.2.215-.456.534-.425.775a9.529,9.529,0,0,0,1.54,4.631,1.8,1.8,0,0,0,1.67.931c.749-.054,1,.487,1,1.165v4.118h7.678c1.009,0,1.3.293,1.309,1.323q.021,2.6,0,5.216c0,.988-.286,1.255-1.259,1.273-.588,0-1.181,0-1.767.019a.9.9,0,0,0-.236.076v4.4H79.316c1.621,0,1.694.073,1.694,1.7s-.017,3.308,0,4.961c.012.82-.345,1.2-1.16,1.181H77.931ZM51.69,35.981H29.329v37.17H51.69Zm1.918,37.177H76V48.328H53.609Zm25.556,6.05V75.058H1.853v4.151ZM5,73.158H27.392V56.486H5ZM47.258,1.8H33.816A19.439,19.439,0,0,0,35.5,11.964a10.012,10.012,0,0,0,4.149,4.2,1.437,1.437,0,0,0,1.722-.033,17.379,17.379,0,0,0,3.1-2.689C47.069,10.022,47.367,5.984,47.258,1.8ZM55.01,29.969H26.021v4.116H55.012ZM79.19,42.327H53.656v4.092H79.193ZM27.4,50.473H1.824V54.6H27.4Zm18.664-22.4c0-.893-.043-1.741.012-2.585.047-.709-.208-.9-.9-.9-3.145.031-6.291,0-9.436.017-.236,0-.451.047-.709.073v3.393ZM49.4,3.7c-.558,2.849-1.091,5.58-1.637,8.356A4.56,4.56,0,0,0,51.7,9.422c.945-1.654.721-3.468.664-5.252,0-.161-.324-.437-.508-.447C50.979,3.676,50.093,3.7,49.4,3.7Zm-17.79,0c-.61,0-1.4.024-2.188,0-.567-.024-.815.2-.8.765.024.912-.052,1.833.045,2.738a5.306,5.306,0,0,0,2.466,4.177,11.178,11.178,0,0,0,2.126.791ZM37.588,22.77h5.8l-1.569-4.635H39.16c-.5,1.474-1.028,3.033-1.571,4.633Z" transform="translate(-0.01)" fill="#171a6e"/><path d="M156.172,197.456c1.136,0,2.19.017,3.241,0,.652-.014,1.16.2,1.158.893s-.522.9-1.167.893q-4.2-.017-8.392,0c-.645,0-1.158-.2-1.148-.9s.522-.9,1.181-.884c1.051.024,2.107,0,3.211,0V182.863c-1.309.473-2.6.945-3.924,1.4a2.547,2.547,0,0,1-.787.073c-.617,0-1.056-.279-1.077-.91s.413-.9.98-.912a7.129,7.129,0,0,0,4.907-2.474c.286-.279.919-.567,1.169-.432a1.546,1.546,0,0,1,.631,1.181c.043,5.181.028,10.364.028,15.545Z" transform="translate(-113.393 -137.15)" fill="#171a6e"/><path d="M256.635,241.708h5.649a1.614,1.614,0,0,1,.855.1c.276.2.6.565.593.851s-.371.6-.647.806a1.251,1.251,0,0,1-.685.087c-2.237,0-4.475.012-6.712,0-1.217,0-1.514-.411-1.292-1.585a4.025,4.025,0,0,1,2.034-2.75c.945-.581,1.966-1.056,2.93-1.614,1.143-.664,1.536-1.368,1.368-2.332a2.431,2.431,0,0,0-1.954-1.911,2.521,2.521,0,0,0-2.655,1.16c-.08.125-.139.26-.217.385-.3.473-.7.735-1.252.421a.883.883,0,0,1-.328-1.3,4.366,4.366,0,0,1,3.664-2.54c2.878-.331,5.4,2.715,4.354,5.379a4.889,4.889,0,0,1-1.654,1.98,32.749,32.749,0,0,1-3.05,1.753,11.626,11.626,0,0,0-1.136.865Z" transform="translate(-194.125 -176.781)" fill="#171a6e"/><path d="M58.547,254.987c1.321,1.625,1.529,2.8.761,4.132a4.127,4.127,0,0,1-4,1.89,3.759,3.759,0,0,1-3.367-2.913c-.142-.659-.052-1.231.669-1.4s1.018.328,1.113.945a1.7,1.7,0,0,0,1.611,1.493,2.164,2.164,0,0,0,2.346-.846c.643-.964-.156-2.214-1.5-2.344-.473-.045-.945,0-1.418-.031-.565-.028-.973-.267-.995-.891s.38-.884.945-.926c.527-.04,1.061-.031,1.585-.087a1.7,1.7,0,0,0,1.569-1.418,1.529,1.529,0,0,0-1.2-1.633,2.123,2.123,0,0,0-2.974,1.519c-.158.6-.5.962-1.139.8-.586-.144-.744-.61-.673-1.181a4.01,4.01,0,0,1,7.853.17A3.711,3.711,0,0,1,58.547,254.987Z" transform="translate(-39.62 -190.162)" fill="#171a6e"/></g></g></svg>