<svg xmlns="http://www.w3.org/2000/svg" width="27.751" height="27.753" viewBox="0 0 27.751 27.753"><g transform="translate(0.016 0.008)"><g transform="translate(-0.016 -0.008)"><path d="M-.015,13.89V9.837a3.942,3.942,0,0,1,1.185-2.9Q4.05,4.06,6.934,1.183A3.925,3.925,0,0,1,9.822-.007q3.992.012,7.985,0A4.122,4.122,0,0,1,20.861,1.25q2.793,2.813,5.6,5.6a4.118,4.118,0,0,1,1.271,3.078q-.027,3.869,0,7.739a4.267,4.267,0,0,1-1.288,3.115c-1.963,2.005-3.957,3.981-5.945,5.961a3.314,3.314,0,0,1-2.373.98c-2.857.021-5.715.029-8.574,0a3.894,3.894,0,0,1-2.689-1.247C4.887,24.534,2.929,22.566.971,20.6a3.463,3.463,0,0,1-.979-2.5C-.021,16.7-.015,15.3-.015,13.89ZM15.537,6.842a1.638,1.638,0,0,0-1.543-1.7,1.658,1.658,0,0,0-1.719,1.489,6.028,6.028,0,0,0,.048,1.047c.114,1.479.234,2.957.348,4.436.108,1.4.207,2.794.317,4.191a.708.708,0,0,0,.443.654.928.928,0,0,0,1.348-.691c.108-.627.136-1.268.188-1.9.1-1.241.194-2.486.288-3.728s.189-2.469.289-3.8ZM15.52,20.79c-.091-1.3-.662-1.677-1.91-1.712a1.615,1.615,0,0,0-1.489,1.763q-.021,1.65,1.889,1.688a1.606,1.606,0,0,0,1.516-1.741Z" transform="translate(0.016 0.008)" fill="#f66363"/><path d="M151.78,63.874c-.1,1.324-.189,2.564-.283,3.794s-.187,2.482-.288,3.728c-.051.635-.083,1.276-.188,1.9a.926.926,0,0,1-1.348.691.708.708,0,0,1-.443-.654c-.11-1.4-.209-2.794-.317-4.191-.114-1.479-.234-2.957-.348-4.436a6.031,6.031,0,0,1-.048-1.047,1.66,1.66,0,0,1,1.719-1.489A1.641,1.641,0,0,1,151.78,63.874Z" transform="translate(-136.22 -57.024)" fill="#efeeed"/><path d="M150.176,232.4a1.6,1.6,0,0,1-1.51,1.737q-1.91-.032-1.889-1.687a1.614,1.614,0,0,1,1.489-1.763C149.511,230.72,150.085,231.1,150.176,232.4Z" transform="translate(-134.634 -211.6)" fill="#efeeec"/></g></g></svg>