<svg xmlns="http://www.w3.org/2000/svg" width="72.556" height="54.078" viewBox="0 0 72.556 54.078"><g transform="translate(-0.02)"><g transform="translate(0.02 0)"><path d="M35.442,37.726c-1.459,2.2-2.931,4.4-4.378,6.6q-3.17,4.82-6.313,9.649a.708.708,0,0,1-.658.4Q12.242,54.358.385,54.367a2.611,2.611,0,0,1-.365-.023c.3-.473.559-.9.83-1.31l25.4-38.7q4.4-6.7,8.792-13.405c.122-.185.266-.358.4-.539,0,.151.016.3.016.451v36.43C35.46,37.422,35.449,37.571,35.442,37.726Z" transform="translate(-0.02 -0.302)" fill="#fabb04"/><path d="M157.14,37.424c0-.151.018-.3.018-.451V.543c0-.151-.011-.3-.016-.451A2.126,2.126,0,0,1,157.559,0h20.162c.054,0,.11.014.167.018-.05.027-.1.072-.147.077a11.545,11.545,0,0,0-4.6,1.535,11.809,11.809,0,0,0,3.8,21.817c.311.061.613.169.92.255a24.64,24.64,0,0,0-2.739.51,14.875,14.875,0,0,0-10.9,11.7,13.82,13.82,0,0,0,.347,7.352,14.882,14.882,0,0,0,9.367,9.866,32.028,32.028,0,0,0,3.851.918c-.507,0-1.012.018-1.52.02H157.16V38.1C157.158,37.875,157.147,37.65,157.14,37.424Z" transform="translate(-121.718 0)" fill="#1a73e7"/><path d="M200.956,135.386a29.278,29.278,0,0,1-3.851-.918,14.9,14.9,0,0,1-9.367-9.866,13.82,13.82,0,0,1-.347-7.352,14.891,14.891,0,0,1,10.9-11.7,24.639,24.639,0,0,1,2.739-.51l1.263-.02v30.368Z" transform="translate(-144.885 -81.343)" fill="#0d652d"/><path d="M254.65,135.233V104.861l.016-.041h1.353c.676.156,1.353.338,2.029.451a13.568,13.568,0,0,1,5.81,2.672,14.35,14.35,0,0,1,4.353,5.221,15.139,15.139,0,0,1,1.549,5.731,15.122,15.122,0,0,1-12.4,16.1A24.411,24.411,0,0,1,254.65,135.233Z" transform="translate(-197.244 -81.189)" fill="#34a753"/><path d="M7.272,10.123A10.087,10.087,0,0,1,17.413.06,9.967,9.967,0,0,1,27.524,10.137,9.976,9.976,0,0,1,18.182,20.3,10.106,10.106,0,0,1,7.272,10.123Z" transform="translate(-5.629 -0.046)" fill="#e94335"/><path d="M214,23.734l-1.262.02c-.307-.086-.609-.194-.92-.255a11.809,11.809,0,0,1-3.794-21.808,11.545,11.545,0,0,1,4.6-1.535c.05,0,.1-.05.147-.077H214V2.835q0,10.434.011,20.863Z" transform="translate(-156.595 -0.062)" fill="#174ea6"/><path d="M254.681,23.7q0-10.434-.011-20.863V.079a11.635,11.635,0,0,1,11.372,8.745,12.869,12.869,0,0,1,.426,3.186,11.746,11.746,0,0,1-9.489,11.5c-.32.065-.638.14-.956.21Z" transform="translate(-197.26 -0.061)" fill="#1a73e7"/></g></g></svg>