<svg xmlns="http://www.w3.org/2000/svg" width="30" height="26" viewBox="0 0 30 26"><g transform="translate(30 26) rotate(180)" fill="#707070"><path d="M 23.07436180114746 25.50000381469727 L 6.925641059875488 25.50000381469727 C 5.660561084747314 25.50000381469727 4.527551174163818 24.84598350524902 3.894840955734253 23.7504940032959 C 3.262120962142944 22.65500259399414 3.26180100440979 21.34677314758301 3.893990993499756 20.25097274780273 L 11.96835136413574 6.255413055419922 C 12.60089111328125 5.159013271331787 13.73422050476074 4.504443168640137 15.00000095367432 4.504443168640137 C 16.26578140258789 4.504443168640137 17.39911079406738 5.159013271331787 18.03165054321289 6.255413055419922 L 26.10601043701172 20.25097274780273 C 26.73820114135742 21.34676361083984 26.73789024353027 22.65499305725098 26.10517120361328 23.7504825592041 C 25.47246170043945 24.84597396850586 24.33944129943848 25.50000381469727 23.07436180114746 25.50000381469727 Z" stroke="none"/><path d="M 15.00000095367432 5.00444221496582 C 13.91504096984863 5.00444221496582 12.9436206817627 5.565502166748047 12.40145111083984 6.505273818969727 L 4.327081680297852 20.5008430480957 C 3.785211563110352 21.44008255004883 3.785470962524414 22.56142425537109 4.327800750732422 23.50041198730469 C 4.87013053894043 24.43941307067871 5.841281890869141 25.00000381469727 6.925640106201172 25.00000381469727 L 23.07435989379883 25.00000381469727 C 24.15871047973633 25.00000381469727 25.12985992431641 24.43941307067871 25.67219161987305 23.50042343139648 C 26.21452140808105 22.56142425537109 26.21479034423828 21.44008255004883 25.67291069030762 20.50083351135254 L 17.59855079650879 6.505273818969727 C 17.05638122558594 5.565502166748047 16.0849609375 5.00444221496582 15.00000095367432 5.00444221496582 M 14.99999713897705 4.004440307617188 C 16.34753799438477 4.004440307617188 17.6950798034668 4.671478271484375 18.46474075317383 6.005552291870117 L 26.53910064697266 20.00111389160156 C 28.07756042480469 22.66777420043945 26.15299034118652 26.00000381469727 23.07435989379883 26.00000381469727 L 6.925640106201172 26.00000381469727 C 3.847011566162109 26.00000381469727 1.922430038452148 22.66777420043945 3.460901260375977 20.00111389160156 L 11.5352611541748 6.005552291870117 C 12.30491638183594 4.671478271484375 13.65245628356934 4.004440307617188 14.99999713897705 4.004440307617188 Z" stroke="none" fill="#707070"/></g></svg>