<svg xmlns="http://www.w3.org/2000/svg" width="41.759" height="41.275" viewBox="0 0 41.759 41.275"><g transform="translate(-3407.629 239.308)"><path d="M446.337,595.154c4.2,0,7.862-.356,11.423.088a9.684,9.684,0,0,1,8.353,10.191,9.853,9.853,0,0,1-9.993,9.24,9.549,9.549,0,0,1-9.724-8.831C446.1,602.6,446.337,599.31,446.337,595.154Z" transform="translate(2983.249 -812.709)" fill="#fff"/><path d="M428.586,595.067c0,4.168.245,7.623-.058,11.032a9.407,9.407,0,0,1-9.3,8.563A9.97,9.97,0,0,1,408.91,606.4a9.716,9.716,0,0,1,6.823-10.734,10.009,10.009,0,0,1,2.813-.584C421.611,595.021,424.669,595.067,428.586,595.067Z" transform="translate(2998.846 -812.722)" fill="#fff"/><path d="M446.379,577.449c0-4.039-.222-7.3.047-10.507a9.545,9.545,0,0,1,10.18-8.878,9.771,9.771,0,0,1,9.52,9.053,9.52,9.52,0,0,1-8.755,10.273C453.961,577.724,450.5,577.449,446.379,577.449Z" transform="translate(2983.23 -797.322)" fill="#fff"/><path d="M428.4,577.284c-4.238,0-7.909.368-11.47-.093a9.532,9.532,0,0,1-8.055-10.273,10.08,10.08,0,0,1,9.724-8.925,9.573,9.573,0,0,1,9.958,8.458,36.457,36.457,0,0,1,.134,5.177C428.673,573.338,428.528,575.03,428.4,577.284Z" transform="translate(2998.823 -797.29)" fill="#fff"/></g></svg>