<svg xmlns="http://www.w3.org/2000/svg" width="104.464" height="104.508" viewBox="0 0 104.464 104.508"><g transform="translate(-43.133 -43.02)"><g transform="translate(0)"><path d="M138.94,187.12c-4.019.995-8.052,1.9-12.056,2.929-3.482.89-6.9,1.626-10.32-.114l-3.979-3.855-.418-.443.065.04-.388-.463h.1c-1.681-3.143-3.228-6.376-5.093-9.405A13.265,13.265,0,0,0,103,171.647c-3.357-2.149-6.963-3.914-10.445-5.839v.1l-.458-.393.04.07-.448-.423c-4.974-3.442-5.859-8.107-4.133-13.593.721-2.3,1.323-4.645,2.054-6.963a18.94,18.94,0,0,0,0-11.693c-.925-2.954-1.81-5.929-2.517-8.953-1.1-4.72.264-8.624,4.417-11.28a77.908,77.908,0,0,1,7.46-4.178,20.253,20.253,0,0,0,9.674-9.649,61.892,61.892,0,0,1,4.078-7.291c2.949-4.476,6.466-5.864,11.683-4.64,4.034.945,8.013,2.139,12.026,3.173a20.044,20.044,0,0,0,2.576.333v10.738c-20.994.318-37.461,16.6-37.526,37.407-.065,21.183,16.517,37.442,37.526,37.8Z" transform="translate(-43.59 -43.477)" fill="#01cf8a"/><path d="M191.71,187.119V176.381h0c21.3-.3,37.427-16.811,37.526-37.417.1-21.019-16.413-37.481-37.526-37.8h0V90.427l11.529-2.745c1.383-.328,2.75-.746,4.148-.995,4.635-.836,8.052,1.124,10.693,4.78l.418.448-.065-.04.378.463h-.09c1.751,3.243,3.357,6.585,5.317,9.7a13.767,13.767,0,0,0,4.078,4.188c3.208,2.044,6.66,3.7,10.012,5.516v-.09l.473.373-.045-.06.443.418,3.884,4.029.547.438-.164-.03-.08.149a13.274,13.274,0,0,1,.06,8.57q-1.044,3.755-2.208,7.46a18.979,18.979,0,0,0,0,11.509c.925,3.014,1.85,6.038,2.561,9.1,1.074,4.635-.249,8.52-4.322,11.136-2.7,1.736-5.536,3.283-8.4,4.75a18.84,18.84,0,0,0-8.4,8.371,88.284,88.284,0,0,1-4.427,7.958c-2.984,4.606-6.466,5.968-11.783,4.77-2.487-.557-4.864-1.422-7.326-1.989S194.132,187.607,191.71,187.119Z" transform="translate(-96.36 -43.476)" fill="#01b378"/><path d="M245.158,96.978l-.418-.448Z" transform="translate(-123.015 -48.52)" fill="#f9d32a"/><path d="M245.828,97.813l-.378-.463Z" transform="translate(-123.372 -48.932)" fill="#f9d32a"/><path d="M285.522,137.5l-.473-.373Z" transform="translate(-143.276 -68.927)" fill="#f9d32a"/><path d="M286.363,138.178l-.443-.418Z" transform="translate(-143.714 -69.243)" fill="#f9d32a"/><path d="M295.167,147.138l-.547-.438Z" transform="translate(-148.087 -73.737)" fill="#fed328"/><path d="M96.62,244.64l.448.423Z" transform="translate(-48.565 -122.965)" fill="#f9d32a"/><path d="M97.44,245.35l.458.393Z" transform="translate(-48.977 -123.322)" fill="#f9d32a"/><path d="M137.2,285l.388.463Z" transform="translate(-68.961 -143.251)" fill="#f9d32a"/><path d="M137.85,285.83l.418.443Z" transform="translate(-69.288 -143.669)" fill="#f9d32a"/><path d="M153.761,172.232q0,9.515.025,19.034c-21.009-.353-37.591-16.607-37.526-37.8.07-20.8,16.532-37.083,37.526-37.407v38.332l-.363.751-4.8,5.839-12.285-13.369-7.958,7.326,20.854,22.739Z" transform="translate(-58.436 -58.336)" fill="#00eb9d"/><path d="M192.177,155.514,166.04,188.34a2.3,2.3,0,0,0-.035.323l-4.531,5.471L140.62,171.38l7.958-7.326,12.285,13.369,4.814-5.839.363-.751,16.1-20.163c.463-.577.935-1.144,1.527-1.87Z" transform="translate(-70.681 -74.792)" fill="#fff"/><path d="M229.211,153.815c-.1,20.606-16.229,37.113-37.526,37.417q0-9.52-.025-19.034a2.3,2.3,0,0,1,.035-.323q13.041-16.413,26.136-32.826l-8.5-6.714c-.592.726-1.064,1.293-1.527,1.87l-16.1,20.158V116.03C212.818,116.328,229.315,132.791,229.211,153.815Z" transform="translate(-96.335 -58.321)" fill="#00cf8b"/></g></g></svg>