<svg width="121" height="87" viewBox="0 0 121 87" fill="none" xmlns="http://www.w3.org/2000/svg">
<path d="M0.600281 26.8444C0.725656 26.531 0.857299 26.1988 0.976406 25.8759C2.07344 22.845 5.01975 21.1461 8.25129 21.6853C9.70593 21.9543 11.0227 22.7184 11.9779 23.848C12.9332 24.9775 13.4681 26.4028 13.492 27.8819C13.5358 30.4208 13.492 32.9596 13.492 35.6583H14.94C19.9425 35.6583 24.946 35.6583 29.9506 35.6583C34.3199 35.6583 36.9496 38.3037 36.959 42.6699C36.959 43.4096 36.959 44.1493 36.959 44.9643H42.0555C42.1057 44.422 42.1182 43.9142 42.206 43.4221C42.435 41.9389 43.1797 40.584 44.3091 39.5957C45.4385 38.6073 46.8802 38.0488 48.3807 38.0185C49.9479 37.9621 51.5151 38.0185 53.0822 37.9997C53.4615 37.9997 53.8376 37.9652 54.4018 37.937C49.8194 31.9378 48.1331 25.3807 49.788 18.1183C50.9506 12.8253 54.0127 8.14188 58.395 4.95397C62.6564 1.79917 67.8784 0.216525 73.1742 0.474775C78.4701 0.733024 83.5133 2.81625 87.4475 6.37071C95.2584 13.445 98.2925 26.9165 89.6792 38.0028H91.6288C92.917 38.0028 94.2084 37.9777 95.4966 38.0028C99.1262 38.0937 101.74 40.6451 101.95 44.2716L102 45.0395C103.715 45.0395 105.417 45.0238 107.116 45.0395C109.88 45.0708 111.927 46.3183 113.071 48.8289C113.409 49.6982 113.608 50.6153 113.66 51.5464C113.717 52.5035 113.724 53.4629 113.682 54.4207C115.249 54.4207 116.757 54.4207 118.265 54.4207C120.189 54.4207 120.722 54.9472 120.722 56.8341C120.722 65.7859 120.722 74.7387 120.722 83.6926C120.722 85.5011 120.161 86.0779 118.343 86.0904C115.606 86.105 112.868 86.105 110.131 86.0904C108.391 86.0904 107.821 85.4855 107.821 83.749C107.821 78.734 107.821 73.7295 107.821 68.7354V67.4001H101.957V68.635C101.957 73.6375 101.957 78.641 101.957 83.6456C101.957 85.5262 101.405 86.0935 99.5117 86.0935C81.2174 86.0935 62.921 86.0935 44.6226 86.0935C42.6604 86.0935 42.1339 85.545 42.1307 83.586V67.4283H13.5045V68.6821C13.5045 73.6845 13.5045 78.688 13.5045 83.6926C13.5045 85.5042 12.9434 86.0779 11.1255 86.0904C8.50517 86.0904 5.88797 86.0622 3.26763 86.1092C2.19254 86.128 1.27731 85.9117 0.603415 85.0247L0.600281 26.8444ZM45.6475 82.489H98.3928C98.4116 82.2038 98.4335 82.0094 98.4335 81.8182C98.4335 69.4625 98.4335 57.1089 98.4335 44.7574C98.4335 42.7044 97.302 41.5541 95.2458 41.5321C92.3904 41.5008 89.5381 41.4976 86.6859 41.5321C86.152 41.5619 85.6367 41.7387 85.197 42.043C77.1072 47.5721 66.9706 47.5721 58.8902 42.043C58.4137 41.7281 57.8594 41.5513 57.2886 41.5321C54.6338 41.4788 51.9601 41.5008 49.3147 41.507C46.6693 41.5133 45.6506 42.5194 45.6506 45.2056V82.4733L45.6475 82.489ZM72.0264 42.6636C74.5919 42.6672 77.1326 42.1604 79.5003 41.1726C81.8681 40.1849 84.0157 38.7359 85.8181 36.9102C87.6206 35.0844 89.0417 32.9184 89.9989 30.5381C90.9562 28.1578 91.4303 25.6109 91.3937 23.0456C91.3122 12.4608 82.5109 3.88829 71.8227 3.98545C66.7265 4.04898 61.8609 6.11939 58.2815 9.74748C54.7021 13.3756 52.6976 18.2687 52.703 23.3653C52.7437 34.0504 61.4542 42.742 72.0264 42.6636ZM9.9846 82.5172V28.8504C9.99934 28.4605 9.98887 28.0699 9.95325 27.6813C9.8714 26.9545 9.51698 26.2857 8.96147 25.8099C8.40597 25.3341 7.69071 25.0866 6.95993 25.1174C5.189 25.1675 4.12018 26.4464 4.12018 28.5652C4.12018 46.1908 4.12018 63.8144 4.12018 81.4358C4.12018 81.7775 4.15153 82.1191 4.17347 82.5203L9.9846 82.5172ZM13.5672 54.3705H42.043V48.6346H13.5672V54.3705ZM42.0304 63.7486V58.0221H13.5578V63.7392L42.0304 63.7486ZM13.5452 44.9674H33.4485C33.4485 44.2245 33.4485 43.5632 33.4485 42.9018C33.4485 40.2063 32.4581 39.1907 29.8064 39.1876C24.8081 39.1876 19.8088 39.1876 14.8084 39.1876C14.3978 39.1876 13.9872 39.2284 13.5546 39.2534L13.5452 44.9674ZM101.994 63.7298H117.136V58.044H101.994V63.7298ZM111.397 67.4095V82.5141H117.118V67.4001L111.397 67.4095ZM101.994 54.3517H110.144C110.144 53.2923 110.184 52.3175 110.144 51.349C110.075 50.0545 109.219 48.8164 108.037 48.7255C106.044 48.5782 104.031 48.6848 101.991 48.6848L101.994 54.3517Z" fill="#FB6B90"/>
<path d="M66.7638 28.6182C65.1402 28.6182 63.6953 28.6182 62.2503 28.6182C60.26 28.6182 59.7272 28.0822 59.724 26.1358C59.7209 24.1893 59.724 22.1489 59.724 20.1554C59.724 18.7105 60.3509 18.093 61.7927 18.071C63.3881 18.046 64.9866 18.071 66.7576 18.071C66.7576 16.438 66.7576 14.8959 66.7576 13.3695C66.7576 11.6236 67.3217 11.0595 69.0676 11.0501C71.061 11.0375 73.0545 11.0375 75.048 11.0501C76.728 11.0501 77.3047 11.6393 77.3141 13.2974C77.3141 14.8489 77.3141 16.4036 77.3141 18.0867C78.9816 18.0867 80.5363 18.0867 82.0909 18.0867C83.7709 18.0867 84.3445 18.6728 84.3508 20.3372C84.3508 22.3307 84.3508 24.3241 84.3508 26.3176C84.3508 28.029 83.7647 28.6151 82.0125 28.637C80.4955 28.637 78.9753 28.637 77.311 28.637C77.311 30.2826 77.311 31.8341 77.311 33.3856C77.311 35.0437 76.7217 35.6486 75.0574 35.6674C73.0639 35.6925 71.0705 35.6894 69.077 35.6674C67.3311 35.6486 66.7638 35.0625 66.7544 33.3355C66.7576 31.8027 66.7638 30.2857 66.7638 28.6182ZM70.2837 14.5637C70.2837 16.1309 70.2837 17.5539 70.2837 18.9926C70.2837 21.0424 69.776 21.5533 67.7261 21.5659C66.2623 21.5659 64.7954 21.5659 63.3129 21.5659V25.0983C64.9365 25.0983 66.4911 25.0983 68.0489 25.0983C69.7133 25.0983 70.2743 25.6938 70.2837 27.377C70.2837 28.9254 70.2837 30.4738 70.2837 32.0378H73.7315C73.7631 31.9352 73.7872 31.8305 73.8036 31.7244C73.8036 30.3954 73.8036 29.0664 73.8036 27.7375C73.8036 25.5779 74.2675 25.1109 76.3958 25.1046C77.8595 25.1046 79.3264 25.1046 80.7651 25.1046V21.5784C79.1697 21.5784 77.6495 21.5941 76.1293 21.5784C74.3835 21.5565 73.813 20.9735 73.8068 19.2433C73.8068 17.6981 73.8068 16.1528 73.8068 14.5794L70.2837 14.5637Z" fill="#FB6B90"/>
</svg>
