<svg width="78" height="86" viewBox="0 0 78 86" fill="none" xmlns="http://www.w3.org/2000/svg">
<g clip-path="url(#clip0_91_1741)">
<path d="M55.3119 66.3677L56.6343 65.3463L58.4688 67.3801L56.2292 69.1878L55.0911 67.7077C54.6359 73.9332 52.6808 79.6232 51.1353 85.4826L48.5019 84.7663C49.6217 80.5045 50.7279 76.2991 51.8295 72.1119C51.0579 71.791 50.7848 71.3391 50.1316 69.4274C52.1186 69.0206 52.7217 67.7213 52.2961 65.8977C51.0488 66.3067 49.7924 66.84 48.4814 67.1292C44.1568 68.0873 40.1191 67.258 36.7414 64.3972C34.7657 62.7251 33.1406 60.6461 31.3311 58.7209C31.7522 58.3277 32.385 57.7311 33.0883 57.069C34.4858 58.461 35.9334 59.8891 37.3673 61.3308C38.6961 62.6982 40.3523 63.7089 42.1812 64.2684C45.0627 65.1362 47.7986 64.7204 50.5572 63.5905C52.4281 62.82 53.4637 61.5568 54.1261 59.749C56.0987 54.3348 55.4523 49.2685 52.1869 44.5502C44.8473 33.9507 37.494 23.3602 30.1271 12.7787C27.5392 9.0479 27.2274 5.11375 29.1529 1.00786C29.2349 0.836117 29.3487 0.680197 29.4898 0.449707L31.825 1.59764C31.4905 2.64163 31.083 3.60878 30.8759 4.61435C30.382 7.01191 31.0102 9.18575 32.3963 11.1675C36.0654 16.4402 39.7276 21.7128 43.383 26.9855C47.093 32.3274 50.8394 37.6445 54.5085 43.0159C58.7238 49.1871 59.1608 55.6702 55.9629 62.4132C55.214 63.9815 55.1276 64.3769 55.3119 66.3677Z" fill="#FB6B90"/>
<path d="M7.54155 0.761597C8.22437 0.906218 8.85257 1.03728 9.48532 1.17512C9.70155 1.22258 9.9155 1.28359 10.1909 1.35138C9.32599 5.36915 8.47019 9.35076 7.58252 13.477C11.4291 11.0297 15.4236 9.89309 19.8347 10.8964C22.4271 11.4862 24.4323 13.016 26.169 15.0159L24.2116 16.844C24.0569 16.7289 23.9108 16.6027 23.7746 16.4666C20.6472 13.0205 16.8029 12.546 12.64 14.0238C7.17737 15.9627 4.10011 20.0482 3.61076 25.6546C3.19651 30.4 3.34673 35.1905 3.51516 39.9518C3.71318 45.6123 4.40283 51.2616 4.5007 56.9199C4.58492 61.9071 4.15246 66.9033 3.94306 71.8973C3.76856 76.0717 3.59027 80.2454 3.40819 84.4183C3.40819 84.6443 3.37632 84.859 3.35584 85.1098H0.654128C0.654128 84.7912 0.654128 84.5245 0.654128 84.2556C0.913601 78.1092 1.18673 71.9606 1.4371 65.8119C1.66471 60.1626 2.19276 54.5133 1.45303 48.8957C0.519839 41.8002 0.672337 34.7002 0.642748 27.5911C0.601086 24.0152 1.65956 20.5118 3.67676 17.549C3.85383 17.2973 3.98268 17.0154 4.05687 16.7174C5.15394 11.6557 6.24494 6.59165 7.32987 1.52538C7.37084 1.27229 7.47099 1.03728 7.54155 0.761597Z" fill="#FB6B90"/>
<path d="M30.9874 36.6028L32.9631 38.6365C32.3963 39.3031 31.775 39.9923 31.1991 40.7132C28.5816 44.0079 27.3139 47.8222 26.581 51.9191C25.2881 59.1502 23.8497 66.3519 22.3998 73.5536C21.6578 77.2504 20.7656 80.9157 19.9394 84.5968C19.8779 84.8657 19.7937 85.1278 19.7117 85.4193L17.0487 84.8205C17.7703 81.5981 18.4645 78.4436 19.1837 75.2935C21.066 67.0298 22.7571 58.7321 24.0659 50.3554C24.8143 45.4723 27.0364 40.9293 30.4389 37.3259C30.6346 37.0947 30.8177 36.8533 30.9874 36.6028Z" fill="#FB6B90"/>
<path d="M63.0483 30.4655L61.1432 28.5763C61.6667 28.0295 62.1834 27.4939 62.8048 26.8499H58.066V24.1383H62.8457L61.1683 22.3667L63.1712 20.5792C64.4731 21.8605 65.9298 23.2299 67.3046 24.6738C67.7757 25.1687 67.7006 25.8669 67.2044 26.3686C65.8547 27.7425 64.4686 29.0735 63.0483 30.4655Z" fill="#FB6B90"/>
<path d="M72.3757 33.3217L70.6299 31.9162L72.6283 29.9932C74.0213 31.349 75.462 32.7048 76.8345 34.1284C76.9473 34.2405 77.0361 34.3741 77.0955 34.5211C77.1548 34.6682 77.1836 34.8256 77.1799 34.984C77.1763 35.1424 77.1404 35.2984 77.0744 35.4427C77.0084 35.5869 76.9136 35.7163 76.7958 35.8232C75.4302 37.2152 74.019 38.5575 72.6033 39.9381L70.6709 37.9586L72.3666 36.587L72.2391 36.343H67.6141V33.6313H72.2073C72.2619 33.5274 72.3188 33.4257 72.3757 33.3217Z" fill="#FB6B90"/>
<path d="M46.6901 52.1948L44.7623 50.2696L46.4102 48.5544H41.6805V45.8428H46.2326L46.3669 45.6484L44.5461 44.3152L46.8859 42.2159C47.4094 42.7605 48.058 43.452 48.7227 44.1277C49.3873 44.8033 50.061 45.4338 50.7051 46.1094C51.3493 46.7851 51.388 47.5014 50.7734 48.1432C49.4465 49.4832 48.0854 50.8028 46.6901 52.1948Z" fill="#FB6B90"/>
<path d="M43.9702 20.3962L42.1812 18.2991L44.2775 16.5162L46.071 18.5997L43.9702 20.3962Z" fill="#FB6B90"/>
<path d="M47.53 24.5088L45.7091 22.4299L47.8031 20.6425L49.6035 22.7078C48.9207 23.3067 48.2492 23.8851 47.53 24.5088Z" fill="#FB6B90"/>
<path d="M66.2553 55.5844L63.6196 54.728C63.8472 53.8648 64.0748 53.0852 64.3024 52.2288L66.9905 52.8005C66.7401 53.7473 66.5102 54.6263 66.2553 55.5844Z" fill="#FB6B90"/>
<path d="M47.7098 70.4059C47.9829 71.251 48.2492 72.0713 48.552 73.0113L45.7615 73.7616L45.1765 71.0906L47.7098 70.4059Z" fill="#FB6B90"/>
<path d="M37.6564 71.3029C37.4538 72.1865 37.2603 73.0248 37.0441 73.9739L34.1535 73.0203C34.5541 72.1435 34.9114 71.3639 35.2915 70.5143L37.6564 71.3029Z" fill="#FB6B90"/>
<path d="M56.7026 30.9694L54.6063 32.7613L52.806 30.6779L54.9022 28.8927L56.7026 30.9694Z" fill="#FB6B90"/>
<path d="M58.1479 36.8831L56.3521 34.8042C57.0554 34.2008 57.7177 33.6381 58.4393 33.0212L60.2601 35.0957L58.1479 36.8831Z" fill="#FB6B90"/>
<path d="M62.0013 37.1339L63.7812 39.2309L61.6895 41.0071L59.8959 38.9236L62.0013 37.1339Z" fill="#FB6B90"/>
<path d="M65.2356 45.14L63.4375 43.0475L65.5383 41.2759L67.3296 43.3458L65.2356 45.14Z" fill="#FB6B90"/>
<path d="M61.512 59.4259C61.9103 58.6463 62.2813 57.9254 62.6932 57.1165L65.2242 58.235C64.769 59.114 64.3457 59.9253 63.8905 60.802L61.512 59.4259Z" fill="#FB6B90"/>
<path d="M60.5037 65.4052L58.4552 63.559L60.1145 61.5479L62.3405 63.1681L60.5037 65.4052Z" fill="#FB6B90"/>
<path d="M36.8825 12.1256L35.0889 10.0512L37.192 8.25928L38.9833 10.3563L36.8825 12.1256Z" fill="#FB6B90"/>
<path d="M38.6214 14.1752C39.3566 13.5561 40.0189 12.9934 40.7291 12.3923L42.5226 14.469L40.44 16.2655L38.6214 14.1752Z" fill="#FB6B90"/>
<path d="M51.3652 24.762C51.9752 25.476 52.526 26.1178 53.1474 26.8409L51.067 28.6487L49.2598 26.5607L51.3652 24.762Z" fill="#FB6B90"/>
<path d="M67.5982 47.2235C67.5458 48.1839 67.4958 49.0697 67.4434 50.0256L64.678 49.7273C64.7417 48.8528 64.8009 48.0506 64.8601 47.2235H67.5982Z" fill="#FB6B90"/>
<path d="M31.4358 67.6829L33.2294 69.2873L31.5974 71.4882L29.4352 69.5946L31.4358 67.6829Z" fill="#FB6B90"/>
<path d="M40.094 74.2971V71.6012L42.6342 71.4182C42.7343 72.2814 42.8322 73.1288 42.9528 74.1638L40.094 74.2971Z" fill="#FB6B90"/>
</g>
<defs>
<clipPath id="clip0_91_1741">
<rect width="76.5377" height="85.0419" fill="white" transform="translate(0.642746 0.44751)"/>
</clipPath>
</defs>
</svg>
