<svg width="95" height="87" viewBox="0 0 95 87" fill="none" xmlns="http://www.w3.org/2000/svg">
<path d="M0.272217 44.0277C0.642258 43.3838 1.19979 43.1494 1.9374 43.068C4.34761 42.8065 6.75041 42.4686 9.10387 42.1676C9.35056 40.0164 9.48131 37.9195 9.87356 35.8769C12.5033 22.141 20.0275 11.9278 32.3227 5.32383C39.5429 1.39871 47.7936 -0.216637 55.961 0.695844C70.2692 2.21795 81.2545 9.20186 88.7713 21.4502C93.6682 29.4382 95.7281 38.2501 94.5637 47.5357C92.3434 65.2088 82.71 77.2697 66.0976 83.6838C61.7311 85.3712 57.1278 86.02 52.448 86.1088C51.8042 86.1088 51.1998 86.0619 50.8939 85.3835C50.4794 84.4683 51.0616 83.6566 52.1668 83.5728C53.9455 83.4494 55.7365 83.4272 57.4979 83.183C67.2324 81.8237 75.3906 77.4375 81.9699 70.1649C87.3084 64.264 90.5278 57.322 91.8377 49.4772C94.6994 32.1913 85.214 14.2961 69.2553 6.89033C53.2967 -0.515425 35.0561 2.80261 22.8472 15.5394C15.962 22.7232 12.338 31.392 11.7632 41.3313C11.7632 41.4497 11.7632 41.578 11.7632 41.7951C12.0963 41.7803 12.3898 41.7951 12.6785 41.7507C14.7828 41.4843 16.8723 41.1636 18.9938 40.9711C19.2543 40.9632 19.5132 41.0131 19.7521 41.1171C19.991 41.2212 20.2038 41.3769 20.3753 41.5731C20.5974 41.8864 20.5332 42.6166 20.3063 42.994C17.9207 46.9757 15.4858 50.9277 13.0485 54.8798C12.4318 55.8665 11.6621 55.9923 10.8431 55.2005C7.4798 51.949 4.12722 48.6861 0.785341 45.4116C0.600898 45.2072 0.429517 44.9913 0.272217 44.7653L0.272217 44.0277ZM4.28346 45.3278L11.5955 52.4326L16.9265 43.7613L4.28346 45.3278Z" fill="#FB6B90"/>
<path d="M82.3028 43.3278C82.2239 60.1153 68.5891 73.6712 51.8682 73.57C35.204 73.4713 21.6284 59.7823 21.7542 43.1995C21.88 26.4243 35.4532 12.9252 52.1346 13.0066C68.8161 13.088 82.3818 26.7203 82.3028 43.3278ZM51.9792 71.0217C59.3407 71.0243 66.4027 68.107 71.6161 62.9098C76.8296 57.7125 79.7688 50.6596 79.789 43.2982C79.8088 28.0525 67.3828 15.6043 52.0951 15.5574C36.8075 15.5105 24.2754 27.9267 24.2458 43.2291C24.2162 58.5315 36.657 71.0044 51.9792 71.0217Z" fill="#FB6B90"/>
<path d="M52.1075 19.3852C65.2982 19.4124 75.9529 30.1781 75.9233 43.4502C75.8937 56.5522 65.0688 67.2365 51.8682 67.1921C38.8353 67.1502 28.0671 56.3524 28.0918 43.3516C28.0895 40.1995 28.7095 37.0779 29.9162 34.1659C31.1229 31.254 32.8926 28.6088 35.1237 26.3822C37.3549 24.1557 40.0036 22.3914 42.9181 21.1907C45.8326 19.99 48.9554 19.3765 52.1075 19.3852ZM42.5185 24.1514C42.9946 25.0765 43.5052 25.9226 43.8703 26.8255C44.196 27.6149 43.7075 28.4636 42.9206 28.4414C42.4191 28.3806 41.9599 28.1299 41.6378 27.7408C41.0901 27.0623 40.6954 26.2606 40.2168 25.4761C37.8217 27.0446 35.7793 29.0945 34.2197 31.4954C35.0165 31.9888 35.7738 32.3885 36.472 32.8819C37.254 33.4295 37.3971 34.0685 36.9826 34.6877C36.5682 35.3069 35.9169 35.4105 35.1127 34.9714C34.3948 34.5767 33.6893 34.1597 32.9122 33.7182C31.5959 36.2637 30.839 39.0612 30.6919 41.9232C31.8119 42.0021 32.8308 41.9972 33.8151 42.1847C34.1555 42.2488 34.5675 42.7447 34.6514 43.1123C34.6672 43.316 34.6353 43.5207 34.5582 43.7099C34.4811 43.8992 34.361 44.0679 34.2073 44.2027C33.8768 44.4494 33.3562 44.5258 32.9097 44.5604C32.1869 44.6146 31.4542 44.5752 30.6623 44.5752C30.8745 47.5528 31.5504 50.2713 32.9122 52.8123C33.7411 52.3559 34.4491 51.9242 35.1941 51.564C35.8898 51.226 36.5904 51.1792 37.027 51.9859C37.439 52.7432 37.0542 53.2983 36.4473 53.7127C35.7393 54.1888 34.9943 54.6082 34.2073 55.0868C35.7723 57.4869 37.8187 59.5357 40.2168 61.1037C40.6806 60.334 41.095 59.5865 41.5712 58.8834C41.9955 58.2544 42.5456 57.8078 43.3523 58.2815C44.159 58.7551 44.0924 59.4385 43.7396 60.1268C43.3621 60.894 42.9181 61.6291 42.4691 62.4334C45.1063 63.6668 47.7903 64.5031 50.726 64.5821C50.726 64.0591 50.726 63.6644 50.726 63.2697C50.726 62.8749 50.7383 62.4704 50.7679 62.0707C50.8271 61.3109 51.0319 60.6547 51.9718 60.6276C52.7785 60.6054 53.1781 61.0247 53.2497 62.0905C53.3039 62.9021 53.2497 63.7211 53.2497 64.6092C56.1282 64.4664 58.945 63.7227 61.5188 62.426C61.0477 61.5305 60.5518 60.7164 60.1793 59.848C59.8068 58.9796 60.2706 58.1335 61.0995 58.1433C61.6012 58.196 62.0621 58.4442 62.3823 58.8341C62.9324 59.5125 63.3271 60.3143 63.8131 61.1061C66.2021 59.5277 68.245 57.4797 69.8176 55.0868C69.0208 54.6058 68.2684 54.1938 67.5604 53.7152C66.9141 53.281 66.5465 52.6889 67.0201 51.9119C67.4938 51.1348 68.1525 51.2556 68.8062 51.5714C69.5734 51.9415 70.3061 52.3806 71.1301 52.8296C72.424 50.264 73.1692 47.457 73.3182 44.5875C72.7262 44.5875 72.2377 44.6048 71.7517 44.5875C71.261 44.5934 70.771 44.5505 70.2888 44.4592C69.3317 44.2125 68.9147 43.1764 69.5635 42.5671C69.9705 42.2538 70.462 42.0699 70.9746 42.0392C71.7655 41.9881 72.5586 41.9807 73.3503 42.017C73.1036 39.0566 72.4573 36.3282 71.1054 33.765C70.2691 34.2263 69.5216 34.6531 68.7593 35.0503C68.0735 35.4105 67.442 35.3611 67.0004 34.6482C66.6081 34.0117 66.8351 33.3062 67.5703 32.8547C68.3054 32.4033 69.0504 31.9938 69.8423 31.53C68.2596 29.119 66.193 27.0633 63.7736 25.4934C63.295 26.2951 62.9028 27.0253 62.439 27.7136C62.0147 28.3378 61.467 28.7917 60.6554 28.3156C59.8438 27.8394 59.9153 27.161 60.2706 26.4703C60.6529 25.7055 61.0995 24.9728 61.5509 24.1711C58.9458 22.8982 56.2495 22.0915 53.3163 22.0002C53.3163 22.5232 53.3163 22.9179 53.3163 23.3126C53.3163 23.7073 53.3015 24.1119 53.2694 24.5115C53.2102 25.2738 52.9956 25.9226 52.0606 25.9547C51.2564 25.9818 50.8592 25.5624 50.7901 24.4918C50.7358 23.6777 50.7778 22.8611 50.7778 21.9829C47.9023 22.1132 45.0871 22.8523 42.5185 24.1514Z" fill="#FB6B90"/>
<path d="M53.3606 34.3476C53.3606 35.6083 53.3286 36.8713 53.3853 38.1295C53.4073 38.292 53.465 38.4477 53.5541 38.5855C53.6432 38.7232 53.7616 38.8396 53.9009 38.9263C56.7774 40.3941 57.6013 43.4926 55.8054 46.1618C55.7316 46.3052 55.6903 46.4631 55.6844 46.6242C55.6784 46.7854 55.7079 46.9459 55.7708 47.0943C56.3037 48.1329 56.9254 49.1246 57.4977 50.1484C57.9442 50.9551 57.7715 51.7125 57.1055 52.0603C56.4394 52.4081 55.8004 52.1565 55.3367 51.3819C54.7495 50.3951 54.2241 49.396 53.6098 48.4462C53.5025 48.3073 53.3655 48.194 53.2089 48.1146C53.0523 48.0353 52.88 47.9918 52.7044 47.9874C50.2375 48.2341 48.1283 46.8476 47.4869 44.5336C47.1638 43.4296 47.2626 42.2448 47.7641 41.2095C48.2656 40.1742 49.1339 39.3622 50.2005 38.9312C50.7358 38.7043 50.8542 38.4378 50.8493 37.9124C50.8296 35.512 50.8493 33.1117 50.8493 30.7114C50.8493 29.6703 51.2835 29.1128 52.0828 29.0906C52.8821 29.0684 53.373 29.6407 53.3828 30.7385C53.368 31.9473 53.3606 33.1462 53.3606 34.3476ZM52.0507 45.4982C53.3286 45.476 54.2093 44.541 54.1871 43.2262C54.1948 42.9331 54.141 42.6417 54.0291 42.3707C53.9172 42.0997 53.7497 41.8552 53.5374 41.653C53.3252 41.4507 53.0729 41.2952 52.7969 41.1965C52.5208 41.0978 52.2271 41.0581 51.9348 41.0799C50.7013 41.1194 49.8428 42.0248 49.8502 43.3002C49.8576 44.5756 50.7679 45.518 52.0507 45.4982Z" fill="#FB6B90"/>
</svg>
