<svg width="87" height="87" viewBox="0 0 87 87" fill="none" xmlns="http://www.w3.org/2000/svg">
<path d="M46.4725 0.44751C48.1048 0.667297 49.7459 0.828474 51.3665 1.11859C61.295 2.87689 69.6 7.58327 76.2757 15.1234C82.3564 22.0042 85.9023 30.069 86.7786 39.1916C87.8599 50.4564 84.9822 60.6926 78.0691 69.6688C71.666 77.9914 63.2936 83.3893 52.9958 85.5374C40.1339 88.2188 28.3357 85.5872 17.8592 77.6514C9.43692 71.2717 4.1298 62.7997 1.8821 52.4492C1.48356 50.6235 1.33117 48.745 1.06157 46.8812C1.01761 46.5882 0.958999 46.2951 0.90625 46.0021V40.9763C0.973651 40.3726 1.04398 39.766 1.11138 39.1623C2.13413 29.8961 5.67124 21.7258 11.9161 14.8069C18.5449 7.45139 26.7591 2.85931 36.5323 1.12738C38.1528 0.834335 39.7939 0.679019 41.4262 0.459232L46.4725 0.44751ZM83.2678 43.4994C83.2678 21.8665 65.5735 4.16924 43.9494 4.17803C22.3252 4.18682 4.62798 21.8636 4.62798 43.4994C4.62798 65.1353 22.2901 82.8091 43.9494 82.8179C65.6087 82.8267 83.2678 65.1323 83.2678 43.4994Z" fill="#FB6B90"/>
<path d="M62.6402 61.9148C62.6255 62.9991 62.2504 63.5998 61.5149 63.9046C60.7793 64.2094 60.0496 64.0365 59.4225 63.4885C57.9133 62.202 56.492 60.7396 54.8245 59.7316C48.4712 55.9073 41.8366 55.5937 35.0671 58.615C32.7487 59.6817 30.6588 61.1873 28.9131 63.0489C27.8054 64.2006 26.6859 64.3617 25.8449 63.5588C25.0038 62.7558 25.124 61.5836 26.2639 60.4232C31.7234 54.8757 38.3727 52.376 46.0946 52.9856C52.4069 53.4867 57.7404 56.1915 62.057 60.8422C62.2991 61.1717 62.4953 61.5325 62.6402 61.9148Z" fill="#FB6B90"/>
<path d="M55.6538 36.0209L61.1339 38.7667C63.0592 39.7309 64.9933 40.6862 66.9157 41.6591C67.9766 42.1954 68.381 42.928 68.2081 43.8482C68.1644 44.1113 68.063 44.3614 67.9112 44.5806C67.7595 44.7999 67.5611 44.9829 67.3303 45.1165C67.0995 45.2501 66.8421 45.331 66.5763 45.3534C66.3106 45.3758 66.0432 45.3391 65.7934 45.2461C65.557 45.1628 65.326 45.0649 65.1018 44.953L51.0617 37.9198L50.6866 37.7293C50.3504 37.5774 50.0667 37.3294 49.8711 37.0165C49.6756 36.7036 49.5769 36.3399 49.5877 35.971C49.585 35.617 49.686 35.27 49.8781 34.9726C50.0703 34.6753 50.3452 34.4407 50.6691 34.2977C55.5728 31.84 60.4804 29.3891 65.3919 26.9451C66.5113 26.3912 67.578 26.7253 68.0645 27.6865C68.551 28.6477 68.1553 29.7379 66.989 30.324C63.49 32.0823 59.9822 33.8406 56.4773 35.5989C56.2311 35.7102 55.9908 35.8421 55.6538 36.0209Z" fill="#FB6B90"/>
<path d="M32.2684 36.0091C29.3379 34.5438 26.5305 33.1372 23.729 31.7393C22.7795 31.2617 21.8183 30.8045 20.8776 30.3092C19.7581 29.7231 19.3537 28.7092 19.808 27.7392C20.2622 26.7692 21.3787 26.397 22.5363 26.9714C27.4204 29.392 32.3046 31.8282 37.1887 34.2801C37.5254 34.4279 37.8117 34.6705 38.0127 34.9783C38.2137 35.2861 38.3208 35.6458 38.3208 36.0135C38.3208 36.3811 38.2137 36.7408 38.0127 37.0486C37.8117 37.3564 37.5254 37.599 37.1887 37.7468C32.287 40.2006 27.3813 42.6515 22.4718 45.0995C21.4139 45.624 20.3325 45.2929 19.8636 44.3727C19.3596 43.391 19.6937 42.3536 20.7955 41.7675C23.1077 40.5748 25.4462 39.4231 27.7731 38.2655L32.2684 36.0091Z" fill="#FB6B90"/>
</svg>
