<svg width="40" height="40" viewBox="0 0 40 40" fill="none" xmlns="http://www.w3.org/2000/svg">
<path d="M40 9.84243V30.1534C39.9354 30.5203 39.8797 30.8902 39.8043 31.2551C39.3158 33.7263 37.982 35.9503 36.032 37.545C34.082 39.1397 31.6376 40.0056 29.1185 39.9939C23.0402 40.0011 16.9619 39.9988 10.8836 39.9871C10.1684 39.9896 9.45457 39.9241 8.75176 39.7914C6.28676 39.3103 4.06599 37.9864 2.47043 36.0468C0.87486 34.1072 0.00394128 31.6729 0.00706874 29.1614C-0.00401948 23.057 -0.00206274 16.9526 0.012939 10.8482C0.00101255 10.1332 0.0692725 9.41907 0.21644 8.71926C1.24177 4.33126 3.92447 1.50767 8.28606 0.314058C8.79677 0.17415 9.32607 0.102729 9.85145 0H30.1566C30.5391 0.0684861 30.9256 0.118383 31.3023 0.208393C35.6805 1.25819 38.4992 3.93306 39.6879 8.28975C39.8259 8.7985 39.8973 9.32487 40 9.84243ZM2.34831 19.9882C2.34831 22.9683 2.32288 25.9494 2.36397 28.9295C2.37349 29.7984 2.48948 30.6629 2.70933 31.5036C3.67792 35.1353 7.06016 37.639 10.9717 37.6478C16.9972 37.6602 23.0236 37.6585 29.051 37.6429C29.676 37.6466 30.2994 37.581 30.9099 37.4472C34.977 36.5119 37.6451 33.1844 37.6548 29.0264C37.6692 23.0009 37.6692 16.9744 37.6548 10.947C37.6548 9.41488 37.3183 7.95025 36.5209 6.6275C34.8048 3.78728 32.2562 2.3657 28.9542 2.34809C23.2268 2.32853 17.5004 2.34809 11.773 2.34809C11.2016 2.34809 10.6263 2.35592 10.0579 2.40875C7.65599 2.63182 5.70315 3.70901 4.19646 5.57672C2.90501 7.18419 2.34831 9.04408 2.34831 11.085V19.9882Z" fill="#EDC1BB"/>
<path d="M20.0331 9.06277C26.0647 9.07549 30.9556 13.9987 30.938 20.0382C30.9204 26.0777 25.9943 30.9558 19.9529 30.9343C13.9114 30.9128 9.04107 25.9808 9.06651 19.9384C9.09292 13.9263 14.0102 9.04908 20.0331 9.06277ZM19.991 11.4109C15.1706 11.4882 11.4303 15.2735 11.4244 20.0205C11.4185 24.7412 15.2919 28.5735 19.9949 28.5872C24.698 28.6009 28.5948 24.6991 28.5909 19.9971C28.587 15.295 24.6794 11.3884 19.991 11.4099V11.4109Z" fill="#EDC1BB"/>
<path d="M31.195 11.6427C30.3462 11.629 29.5367 11.2825 28.941 10.6777C28.3452 10.073 28.0108 9.25848 28.0098 8.40958C28.0087 7.56069 28.3412 6.74535 28.9355 6.13919C29.5298 5.53303 30.3384 5.18454 31.1871 5.16879C32.9423 5.1551 34.4608 6.67451 34.4432 8.42775C34.4316 9.28257 34.0847 10.0986 33.477 10.7C32.8694 11.3014 32.0499 11.6399 31.195 11.6427ZM31.2175 7.55504C30.9882 7.55099 30.7664 7.63653 30.5992 7.79347C30.432 7.95042 30.3327 8.16639 30.3223 8.39546C30.3076 8.84258 30.7205 9.276 31.1783 9.28872C31.4075 9.28882 31.6277 9.19954 31.7921 9.03987C31.9566 8.8802 32.0523 8.66272 32.0589 8.43362C32.0643 8.31975 32.0466 8.20597 32.0067 8.09915C31.9669 7.99234 31.9058 7.89473 31.8271 7.81222C31.7485 7.72971 31.6539 7.66403 31.5491 7.61915C31.4443 7.57427 31.3315 7.55113 31.2175 7.55113V7.55504Z" fill="#EDC1BB"/>
</svg>
