<svg width="40" height="40" viewBox="0 0 40 40" fill="none" xmlns="http://www.w3.org/2000/svg">
<path d="M40 9.84243V30.1534C39.9354 30.5203 39.8797 30.8902 39.8043 31.2551C39.3158 33.7263 37.982 35.9503 36.032 37.545C34.082 39.1397 31.6376 40.0056 29.1185 39.9939C23.0402 40.0011 16.9619 39.9988 10.8836 39.9871C10.1684 39.9896 9.45457 39.9241 8.75176 39.7914C6.28676 39.3103 4.06599 37.9864 2.47043 36.0468C0.87486 34.1072 0.00394128 31.6729 0.00706874 29.1614C-0.00401948 23.057 -0.00206274 16.9526 0.012939 10.8482C0.00101255 10.1332 0.0692725 9.41907 0.21644 8.71926C1.24177 4.33126 3.92447 1.50767 8.28606 0.314058C8.79677 0.17415 9.32607 0.102729 9.85145 0H30.1566C30.5391 0.0684861 30.9256 0.118383 31.3023 0.208393C35.6805 1.25819 38.4992 3.93306 39.6879 8.28975C39.8259 8.7985 39.8973 9.32487 40 9.84243ZM2.34831 19.9882C2.34831 22.9683 2.32288 25.9494 2.36397 28.9295C2.37349 29.7984 2.48948 30.6629 2.70933 31.5036C3.67792 35.1353 7.06016 37.639 10.9717 37.6478C16.9972 37.6602 23.0236 37.6585 29.051 37.6429C29.676 37.6466 30.2994 37.581 30.9099 37.4472C34.977 36.5119 37.6451 33.1844 37.6548 29.0264C37.6692 23.0009 37.6692 16.9744 37.6548 10.947C37.6548 9.41488 37.3183 7.95025 36.5209 6.6275C34.8048 3.78728 32.2562 2.3657 28.9542 2.34809C23.2268 2.32853 17.5004 2.34809 11.773 2.34809C11.2016 2.34809 10.6263 2.35592 10.0579 2.40875C7.65599 2.63182 5.70315 3.70901 4.19646 5.57672C2.90501 7.18419 2.34831 9.04408 2.34831 11.085V19.9882Z" fill="white"/>
<path d="M20.0323 9.06265C26.064 9.07537 30.9549 13.9985 30.9373 20.038C30.9197 26.0775 25.9936 30.9557 19.9521 30.9342C13.9107 30.9126 9.04034 25.9807 9.06577 19.9382C9.09219 13.9261 14.0095 9.04895 20.0323 9.06265ZM19.9903 11.4107C15.1698 11.488 11.4295 15.2734 11.4237 20.0204C11.4178 24.7411 15.2912 28.5734 19.9942 28.5871C24.6972 28.6008 28.5941 24.699 28.5902 19.9969C28.5863 15.2949 24.6786 11.3882 19.9903 11.4098V11.4107Z" fill="white"/>
<path d="M31.1957 11.6427C30.3469 11.629 29.5375 11.2825 28.9417 10.6777C28.3459 10.073 28.0115 9.25848 28.0105 8.40958C28.0095 7.56069 28.3419 6.74535 28.9362 6.13919C29.5305 5.53303 30.3391 5.18454 31.1879 5.16879C32.9431 5.1551 34.4615 6.67451 34.4439 8.42775C34.4324 9.28257 34.0854 10.0986 33.4778 10.7C32.8702 11.3014 32.0506 11.6399 31.1957 11.6427ZM31.2182 7.55504C30.9889 7.55099 30.7671 7.63653 30.5999 7.79347C30.4328 7.95042 30.3334 8.16639 30.323 8.39546C30.3083 8.84258 30.7212 9.276 31.1791 9.28872C31.4083 9.28882 31.6285 9.19954 31.7929 9.03987C31.9573 8.8802 32.053 8.66272 32.0596 8.43362C32.065 8.31975 32.0473 8.20597 32.0075 8.09915C31.9676 7.99234 31.9065 7.89473 31.8279 7.81222C31.7492 7.72971 31.6546 7.66403 31.5498 7.61915C31.445 7.57427 31.3322 7.55113 31.2182 7.55113V7.55504Z" fill="white"/>
</svg>
