<svg width="23" height="26" viewBox="0 0 23 26" fill="none" xmlns="http://www.w3.org/2000/svg">
<g clip-path="url(#clip0_125_1384)">
<path d="M12.1594 0C12.7232 0.113176 13.2978 0.190746 13.8495 0.345887C15.5703 0.833562 16.9852 1.80128 18.0884 3.19373C19.3926 4.83542 19.9986 6.71554 19.918 8.80485C19.8668 10.2473 19.4266 11.6496 18.6432 12.8652C17.7697 14.236 16.8834 15.5992 16.0035 16.9643C15.967 17.0209 15.9357 17.0807 15.889 17.1614C16.3267 17.2479 16.7503 17.3223 17.1688 17.4158C18.4391 17.6994 19.6857 18.0516 20.8408 18.6683C21.5146 19.0282 22.1379 19.4574 22.5686 20.0983C23.222 21.0679 23.119 22.1902 22.3095 23.0784C21.6727 23.7778 20.8613 24.2178 19.9999 24.5751C18.5005 25.1976 16.9282 25.5289 15.3233 25.7444C13.7374 25.9592 12.136 26.0388 10.5365 25.9822C8.04076 25.8945 5.57572 25.581 3.22395 24.6749C2.43491 24.3717 1.6881 23.9959 1.04304 23.4383C-0.405778 22.18 -0.343065 20.4563 1.18255 19.2908C2.15397 18.552 3.25659 18.098 4.41615 17.7814C5.22503 17.5607 6.04991 17.3999 6.86839 17.2129C6.94071 17.1958 7.01366 17.1799 7.11093 17.1583C6.58042 16.3317 6.06335 15.5274 5.54948 14.7218C5.05801 13.9512 4.53326 13.199 4.0885 12.403C3.14396 10.711 2.83999 8.88814 3.20027 6.98895C3.75702 4.03746 5.45157 1.9418 8.18667 0.682236C8.95483 0.33846 9.77505 0.123607 10.6139 0.0464149C10.6877 0.034901 10.7608 0.0194065 10.8328 0L12.1594 0ZM11.4983 21.1188C11.5739 21.0088 11.6372 20.9217 11.6948 20.8314C13.5852 17.8914 15.4839 14.9564 17.3615 12.0081C18.219 10.6602 18.5274 9.17045 18.3335 7.59234C18.1524 6.11724 17.5592 4.81571 16.5276 3.73163C14.938 2.06133 12.9721 1.33077 10.6811 1.58955C8.69734 1.81273 7.11797 2.78172 5.92769 4.37826C4.29264 6.57058 4.16914 9.7376 5.64355 12.0348C7.54118 14.9901 9.44116 17.9439 11.3435 20.8963C11.387 20.9643 11.4363 21.0298 11.4983 21.1188ZM12.1024 24.474C12.7219 24.4232 13.9442 24.3469 15.1607 24.2152C16.5814 24.0727 17.975 23.7335 19.3011 23.2075C19.9878 22.929 20.6578 22.6143 21.164 22.0484C21.5434 21.6249 21.562 21.2161 21.1582 20.8155C20.8599 20.5166 20.5216 20.2599 20.1529 20.0525C18.617 19.2069 16.9295 18.8813 15.2196 18.6264C14.9982 18.5933 14.9067 18.6741 14.8011 18.8394C13.9512 20.1784 13.0918 21.5194 12.2234 22.8501C12.1003 23.0389 11.9262 23.1894 11.721 23.2844C11.3659 23.4338 11.0357 23.2653 10.7842 22.8743C9.90916 21.5149 9.03608 20.154 8.16491 18.7917C8.07916 18.6575 8.00364 18.5863 7.82446 18.6207C7.29971 18.7205 6.76664 18.7815 6.24318 18.8877C5.05033 19.1287 3.87924 19.4485 2.81631 20.0602C2.45045 20.273 2.11455 20.5329 1.81737 20.8333C1.4334 21.2148 1.45324 21.6275 1.81737 22.0268C1.98176 22.209 2.16663 22.372 2.36835 22.5125C3.17339 23.0695 4.08466 23.3938 5.01833 23.657C7.13461 24.2553 9.30592 24.4435 12.1024 24.474Z" fill="white"/>
<path d="M11.5167 4.61988C12.021 4.62162 12.5201 4.72239 12.9851 4.9164C13.4501 5.11041 13.8719 5.39383 14.2263 5.75036C14.5806 6.1069 14.8606 6.52952 15.05 6.99392C15.2395 7.45832 15.3346 7.95535 15.3301 8.45642C15.3231 10.547 13.6023 12.2357 11.4789 12.2319C10.9745 12.2302 10.4753 12.1294 10.0102 11.9352C9.54514 11.7411 9.12328 11.4575 8.76892 11.1007C8.41456 10.744 8.13471 10.3211 7.94546 9.85652C7.75621 9.3919 7.6613 8.89468 7.6662 8.39348C7.67324 6.30481 9.39595 4.61606 11.5167 4.61988ZM13.7942 8.41827C13.7302 7.09386 12.7659 6.14839 11.4905 6.15729C10.1568 6.16683 9.20589 7.16761 9.21485 8.43671C9.22444 9.75986 10.2304 10.7053 11.5084 10.6971C12.8395 10.6882 13.7482 9.68801 13.7942 8.41827Z" fill="white"/>
</g>
<defs>
<clipPath id="clip0_125_1384">
<rect width="23" height="26" fill="white"/>
</clipPath>
</defs>
</svg>
