<svg width="41" height="41" viewBox="0 0 41 41" fill="none" xmlns="http://www.w3.org/2000/svg">
<path d="M30.0252 40.0488C28.2289 39.8783 26.4639 39.4657 24.7781 38.8224C20.5301 37.2447 16.8071 34.7995 13.3864 31.8682C9.26098 28.3349 5.80456 24.2496 3.15983 19.492C1.80513 17.0535 0.7604 14.4958 0.222981 11.744C0.137128 11.3226 0.0869538 10.8944 0.0211701 10.4685C-0.0624531 9.93219 0.111483 9.45721 0.370158 9.00118C1.70813 6.64078 3.39844 4.54127 5.27606 2.59229C5.93648 1.898 6.64919 1.25537 7.40789 0.670074C8.82057 -0.406994 10.2433 -0.176193 11.2668 1.29446C12.2703 2.74393 13.2638 4.20678 14.1736 5.71757C14.924 6.963 15.5495 8.28202 16.2196 9.5754C16.3195 9.80399 16.4063 10.0382 16.4793 10.2767C16.8696 11.3036 16.6288 12.2034 15.8594 12.9404C15.0901 13.6774 14.2717 14.3765 13.46 15.0745C13.237 15.2618 13.169 15.4168 13.2782 15.7055C15.2986 21.0262 18.9654 24.703 24.2786 26.736C24.5808 26.8475 24.7647 26.8129 24.9822 26.5531C25.6422 25.7637 26.322 24.9918 27.0215 24.2373C27.8019 23.4033 28.7263 23.177 29.8245 23.5762C31.4401 24.1638 32.9286 24.9978 34.377 25.8998C35.8253 26.8018 37.2213 27.7428 38.6272 28.6872C38.9435 28.8899 39.221 29.1474 39.4468 29.4476C40.2596 30.6016 40.3019 31.3877 39.5739 32.3053C38.7884 33.3124 37.9342 34.2639 37.0172 35.153C35.1998 36.8789 33.2363 38.431 31.0331 39.6497C30.6674 39.8526 30.2504 39.9619 30.0252 40.0488ZM37.3238 31.0844C37.1243 30.9227 36.9893 30.8046 36.8455 30.7009C34.4794 28.9918 31.9643 27.4991 29.3306 26.241C29.0128 26.0893 28.8534 26.1462 28.6404 26.3904C27.7986 27.3526 26.9412 28.3003 26.0826 29.2469C25.6746 29.6929 25.1639 29.771 24.5941 29.6182C21.1701 28.6984 18.2522 26.9021 15.7513 24.428C13.1991 21.9015 11.3549 18.9345 10.4116 15.4402C10.2533 14.8515 10.3447 14.3375 10.8052 13.9193C11.7608 13.0497 12.7163 12.18 13.683 11.3226C13.8904 11.1375 13.9272 10.9992 13.7945 10.7316C12.5316 8.07186 11.0267 5.53389 9.29889 3.14978C9.20412 3.01822 9.09262 2.8978 8.97778 2.75843C8.88635 2.83313 8.81945 2.88107 8.75478 2.93682C6.59882 4.92756 4.68462 7.16509 3.05168 9.60327C2.91701 9.79158 2.82383 10.0063 2.77828 10.2333C2.73272 10.4603 2.73584 10.6944 2.78743 10.9201C3.19724 13.1051 3.93555 15.2155 4.97724 17.1795C8.73695 24.3399 14.1691 29.9215 21.073 34.0837C23.5695 35.59 26.2365 36.705 29.1243 37.2413C29.5926 37.3283 29.9984 37.3171 30.4032 36.996C31.8159 35.8732 33.2865 34.8185 34.6691 33.66C35.6012 32.8784 36.4241 31.9664 37.3238 31.0844Z" fill="#EDC1BB"/>
<path d="M21.3906 3.96444V1.35094C29.8176 1.01644 38.7374 8.28052 38.7196 18.6242H36.0693C35.9745 14.6392 34.5975 11.1538 31.761 8.30839C28.9245 5.46297 25.4425 4.06367 21.3906 3.96444Z" fill="#EDC1BB"/>
<path d="M21.4082 8.00347C27.0589 7.85629 32.1432 12.7678 32.0339 18.6281H29.3948C29.3201 16.4661 28.5842 14.5673 27.0455 13.0209C25.5069 11.4744 23.6136 10.7151 21.4082 10.6415V8.00347Z" fill="#EDC1BB"/>
</svg>
