<svg width="48" height="40" viewBox="0 0 48 40" fill="none" xmlns="http://www.w3.org/2000/svg">
<path d="M0 17.7291C0.453978 16.5826 1.38043 15.9918 2.477 15.573C15.7246 10.5185 28.9708 5.46033 42.2153 0.398465C43.0475 0.0813282 43.8916 -0.116536 44.7811 0.0757806C46.2466 0.393842 47.2775 1.56346 47.2192 3.06316C47.1758 4.18655 46.9511 5.31086 46.7301 6.41945C45.7131 11.5149 44.6748 16.6058 43.6438 21.6975C42.6268 26.7301 41.6236 31.7664 40.5788 36.7934C40.2589 38.3301 39.4397 39.5247 37.805 39.9056C36.6594 40.1719 35.5952 39.8603 34.6845 39.1512C32.9629 37.8114 31.2727 36.4301 29.5705 35.0644C28.7079 34.3728 27.8471 33.6775 26.9493 32.9554C26.437 33.4233 25.9322 33.8847 25.4228 34.3497C24.2115 35.4592 23.0086 36.5854 21.7891 37.6894C20.6981 38.6768 19.4351 39.1613 17.9733 38.7443C16.5864 38.3477 15.794 37.3121 15.3326 36.002C14.0314 32.3036 12.737 28.6015 11.4493 24.8957C11.257 24.3465 11.1923 23.6558 10.8141 23.2962C10.4359 22.9365 9.74619 22.9069 9.18866 22.7414C7.02448 22.1176 4.85877 21.4963 2.69151 20.8774C1.496 20.5408 0.491886 19.9657 0 18.7434V17.7291ZM22.7571 25.9812C22.8783 26.0884 22.9559 26.1661 23.0391 26.229C27.1937 29.5717 31.3488 32.9147 35.5046 36.2581C35.8303 36.5384 36.1761 36.7946 36.5392 37.0246C37.1319 37.3722 37.5063 37.2095 37.7486 36.5623C37.7901 36.4469 37.8225 36.3285 37.8457 36.2082C38.7703 31.6721 39.6915 27.1357 40.6093 22.599C41.6085 17.6721 42.607 12.7446 43.605 7.81652C43.8879 6.41945 44.1773 5.02331 44.4482 3.62347C44.5906 2.88379 44.34 2.63877 43.6392 2.87177C42.6952 3.18613 41.7687 3.55504 40.8386 3.91009C29.2417 8.33645 17.6453 12.7631 6.04965 17.1901C5.22953 17.5035 4.41126 17.8253 3.48481 18.184C3.65032 18.2488 3.69932 18.2765 3.7511 18.2867C6.35754 19.0319 8.96398 19.7808 11.5741 20.5103C11.7621 20.5428 11.9555 20.5102 12.1224 20.4179C18.1255 17.3612 24.1262 14.2992 30.1243 11.232C31.8737 10.3388 33.6203 9.43919 35.3724 8.55065C36.3552 8.05322 37.3473 8.51737 37.511 9.55107C37.5988 10.1058 37.3122 10.5145 36.9507 10.8982C33.3207 14.747 29.6938 18.5995 26.07 22.4557C24.9753 23.6142 23.8824 24.7792 22.7571 25.9812ZM17.4093 33.4871C17.474 33.2781 17.5156 33.1672 17.5433 33.0525C18.124 30.7188 18.6917 28.3814 19.2954 26.0533C19.3923 25.6705 19.5794 25.3164 19.841 25.0205C22.9248 21.716 26.0194 18.421 29.1249 15.1356C29.2173 15.0349 29.3098 14.9258 29.3958 14.8213L29.344 14.7621L13.6628 22.7747C14.9101 26.3409 16.1426 29.8645 17.4093 33.4834V33.4871ZM21.5237 28.5913C20.9394 30.9694 20.3735 33.2735 19.8068 35.5776L19.9334 35.6183L24.7413 31.1802L21.5237 28.5913Z" fill="#EDC1BB"/>
</svg>
