<svg width="40" height="40" viewBox="0 0 40 40" fill="none" xmlns="http://www.w3.org/2000/svg">
<path d="M18.5405 0H21.2728C21.99 0.0975815 22.7101 0.17955 23.4196 0.307382C28.7094 1.2588 32.9601 3.9179 36.1051 8.25735C39.6044 13.0886 40.6681 18.4946 39.4112 24.3095C38.3261 29.3291 35.5782 33.3016 31.4046 36.2691C27.2846 39.1613 22.2249 40.3921 17.2368 39.7157C14.7662 39.3843 12.3816 38.5845 10.2109 37.3591C10.1077 37.2965 9.99228 37.2569 9.87243 37.2427C9.75258 37.2286 9.63108 37.2403 9.51615 37.2771C7.11954 37.9276 4.72099 38.5701 2.32049 39.2043C1.13292 39.5205 0.374713 38.7545 0.691853 37.5611C1.32613 35.1729 1.96464 32.7864 2.60738 30.4015C2.64771 30.2815 2.66204 30.1542 2.64942 30.0282C2.63681 29.9022 2.59753 29.7803 2.53419 29.6706C1.34883 27.5681 0.566478 25.2628 0.227365 22.8731C0.151251 22.3384 0.075463 21.8049 0 21.2728V18.6995C0.0337669 18.5902 0.0582492 18.4783 0.0731861 18.3648C0.154986 17.0072 0.398046 15.6642 0.797241 14.364C1.68136 11.3251 3.2789 8.54157 5.45676 6.24521C8.57936 2.95282 12.3808 0.948817 16.8611 0.23322C17.4202 0.146372 17.9823 0.0780652 18.5405 0ZM3.54611 36.3267C3.70517 36.2945 3.79104 36.2818 3.87496 36.2593C5.78756 35.7513 7.6995 35.2412 9.6108 34.7292C9.79617 34.6713 9.99144 34.6518 10.1846 34.6722C10.3777 34.6925 10.5647 34.7521 10.734 34.8473C10.9597 34.9774 11.1874 35.1043 11.417 35.2279C15.374 37.4127 19.5622 38.0314 23.9631 36.999C27.8722 36.0827 31.1012 34.0257 33.6012 30.8943C36.6165 27.1189 37.8392 22.7892 37.3288 17.9862C36.9385 14.2606 35.5031 10.9525 32.9425 8.22807C28.1191 3.10212 22.1939 1.35638 15.3779 3.06894C10.532 4.29358 6.9478 7.28348 4.52876 11.6493C3.31777 13.8419 2.64934 16.2034 2.46491 18.7103C2.33774 20.5099 2.49014 22.3184 2.91671 24.0714C3.33214 25.7991 4.0157 27.451 4.9425 28.9671C5.08197 29.1852 5.17099 29.4318 5.20307 29.6887C5.23514 29.9456 5.20947 30.2065 5.12791 30.4523C4.94836 31.0592 4.79125 31.674 4.62634 32.2858C4.27212 33.609 3.91887 34.9342 3.54611 36.3267Z" fill="white"/>
<path d="M24.3954 30.7302C22.8638 30.7992 21.3342 30.5555 19.8998 30.014C15.3233 28.2575 12.0406 25.1241 10.1163 20.6139C9.17562 18.4086 8.83116 16.1096 9.42543 13.7374C9.88504 11.9067 10.8892 10.4703 12.5549 9.52575C13.5873 8.94026 14.8285 9.02027 15.7009 9.81849C16.505 10.5533 17.2944 11.3115 18.0214 12.1224C19.2382 13.4807 19.0031 15.2772 17.5247 16.3438C17.3742 16.4674 17.2129 16.5771 17.0426 16.6716C16.6377 16.8668 16.5547 17.14 16.6738 17.5743C17.15 19.3932 17.9316 21.0013 19.5681 22.0698C20.5146 22.6885 21.5587 23.0564 22.6585 23.274C22.7746 23.2964 22.961 23.1764 23.0488 23.071C23.4069 22.6466 23.687 22.1401 24.0949 21.7742C25.1614 20.8169 26.6778 20.8667 27.7942 21.8922C28.5875 22.6202 29.3428 23.3921 30.0678 24.1874C30.866 25.0656 30.9548 26.3039 30.3606 27.3324C29.1496 29.448 27.238 30.4209 24.896 30.6941C24.733 30.7126 24.5632 30.7185 24.3954 30.7302ZM23.8851 28.3199C24.2588 28.2848 24.6355 28.2692 25.0063 28.2106C26.3129 28.0028 27.4224 27.47 28.1503 26.2951C28.3309 26.0024 28.2948 25.8121 28.0615 25.5847C27.4468 24.9885 26.8486 24.3747 26.2397 23.7707C25.8923 23.4253 25.7791 23.4389 25.4883 23.8546C25.1536 24.3318 24.8248 24.8148 24.4871 25.291C24.1729 25.7321 23.7309 25.9516 23.2039 25.8365C22.1832 25.613 21.1469 25.414 20.1643 25.0724C18.5415 24.5074 17.1607 23.5502 16.1254 22.1518C14.9973 20.6286 14.4138 18.8945 14.0889 17.0424C13.9327 16.1486 14.2294 15.5699 14.9768 15.1328C15.3672 14.9044 15.7282 14.6234 16.0971 14.3599C16.4396 14.116 16.4513 13.9862 16.1517 13.6827C15.5311 13.0553 14.8978 12.4395 14.283 11.8052C14.0596 11.575 13.8722 11.573 13.6 11.7389C12.2036 12.6074 11.7108 13.9598 11.6074 15.4958C11.4688 17.545 12.105 19.4098 13.0916 21.1662C14.4176 23.5509 16.3899 25.5127 18.7815 26.826C20.3663 27.714 22.0447 28.2916 23.8851 28.3199Z" fill="white"/>
</svg>
